<svg width="552" height="260" viewBox="0 0 552 260" fill="none" xmlns="http://www.w3.org/2000/svg" aria-hidden="true"><path d="M118.534 218.071L123.233 214.805" stroke="#742774" stroke-width="2" stroke-linecap="round" stroke-linejoin="round"></path><path d="M117.29 208.355L123.011 208.479" stroke="#C8C8C8" stroke-width="2" stroke-linecap="round" stroke-linejoin="round"></path><path d="M434.766 47.4321L433.318 40.7198" stroke="#742774" stroke-width="2" stroke-linecap="round" stroke-linejoin="round"></path><path d="M437.4 43.3513L430.688 44.799" stroke="#742774" stroke-width="2" stroke-linecap="round" stroke-linejoin="round"></path><path d="M428.036 36.0002L426 37.0455" stroke="#C8C8C8" stroke-width="2" stroke-linecap="round" stroke-linejoin="round"></path><path d="M384.094 125.261L382.146 126.464" stroke="#742774" stroke-width="2" stroke-linecap="round" stroke-linejoin="round"></path><path d="M376.74 117.373L375.424 122.941" stroke="#C8C8C8" stroke-width="2" stroke-linecap="round" stroke-linejoin="round"></path><path d="M419 46H133C131.895 46 131 46.8954 131 48V208C131 209.105 131.895 210 133 210H419C420.105 210 421 209.105 421 208V48C421 46.8954 420.105 46 419 46Z" fill="white" stroke="#323130" stroke-width="2" stroke-linecap="round" stroke-linejoin="round"></path><path d="M132 59H420V57H132V59Z" fill="#C8C6C4"></path><path d="M344 57V209" stroke="#C8C6C4" stroke-width="2" stroke-miterlimit="16"></path><path d="M357 75H383" stroke="#C8C6C4" stroke-width="2" stroke-linecap="round" stroke-linejoin="round"></path><path d="M357 82H407" stroke="#EDEBE9" stroke-width="2" stroke-linecap="round" stroke-linejoin="round"></path><path d="M357 86H398" stroke="#EDEBE9" stroke-width="2" stroke-linecap="round" stroke-linejoin="round"></path><path d="M357 98C357 97.4477 357.448 97 358 97H378C378.552 97 379 97.4477 379 98V106C379 106.552 378.552 107 378 107H358C357.448 107 357 106.552 357 106V98Z" fill="#742774"></path><path d="M360 100H374" stroke="white" stroke-width="2" stroke-linecap="round" stroke-linejoin="round"></path><path d="M360 104H370" stroke="white" stroke-width="2" stroke-linecap="round" stroke-linejoin="round"></path><path d="M357 115C357 114.448 357.448 114 358 114H378C378.552 114 379 114.448 379 115V123C379 123.552 378.552 124 378 124H358C357.448 124 357 123.552 357 123V115Z" fill="#742774"></path><path d="M360 117H374" stroke="white" stroke-width="2" stroke-linecap="round" stroke-linejoin="round"></path><path d="M360 121H370" stroke="white" stroke-width="2" stroke-linecap="round" stroke-linejoin="round"></path><path d="M357 132C357 131.448 357.448 131 358 131H378C378.552 131 379 131.448 379 132V140C379 140.552 378.552 141 378 141H358C357.448 141 357 140.552 357 140V132Z" fill="#C8C6C4"></path><path d="M360 134H374" stroke="white" stroke-width="2" stroke-linecap="round" stroke-linejoin="round"></path><path d="M360 138H370" stroke="white" stroke-width="2" stroke-linecap="round" stroke-linejoin="round"></path><path d="M292 151H247V187H292V151Z" stroke="#C8C6C4" stroke-width="2" stroke-linecap="round" stroke-linejoin="round" stroke-dasharray="6 6"></path><path d="M259 163V173.764C259 174.521 259.428 175.214 260.106 175.553L269 180M259 163L269 168M259 163L264 160.5M269 180L277.894 175.553C278.572 175.214 279 174.521 279 173.764V163M269 180V168M279 163L269.894 158.447C269.331 158.166 268.669 158.166 268.106 158.447L264 160.5M279 163L274 165.5M269 168L274 165.5M274 165.5L264 160.5" stroke="#323130" stroke-width="2"></path><path d="M297 187V197" stroke="black" stroke-width="2" stroke-linecap="round"></path><path d="M302 192H292" stroke="black" stroke-width="2" stroke-linecap="round"></path><path d="M216 117H152V158H216V117Z" stroke="#201F1E" stroke-width="2" stroke-linecap="round" stroke-linejoin="round" stroke-dasharray="6 6"></path><path d="M151 109C151 108.448 151.448 108 152 108H172C172.552 108 173 108.448 173 109V117C173 117.552 172.552 118 172 118H152C151.448 118 151 117.552 151 117V109Z" fill="#742774"></path><path d="M154 111H168" stroke="white" stroke-width="2" stroke-linecap="round" stroke-linejoin="round"></path><path d="M154 115H164" stroke="white" stroke-width="2" stroke-linecap="round" stroke-linejoin="round"></path><path d="M189.268 134.672H177.728M168.302 142.869L172.023 128.671L168.302 142.869ZM173.366 123.548L172.023 128.671L173.366 123.548ZM172.023 128.671L177.728 134.672L172.023 128.671ZM185.519 142.869H199.698L190.004 133.062L185.519 142.869ZM185.519 142.869L189.268 134.672L185.519 142.869ZM185.519 142.869L177.728 134.672L185.519 142.869ZM190.004 133.062L192.319 127.939L189.268 134.672L190.004 133.062ZM190.004 133.062L189.268 134.672L190.004 133.062Z" stroke="#742774" stroke-width="2" stroke-linecap="round" stroke-linejoin="round"></path><path d="M173.132 123.548H176.151" stroke="black" stroke-width="2" stroke-linecap="round"></path><path d="M190.038 127.774H196.076" stroke="black" stroke-width="2" stroke-linecap="round"></path><path d="M176.755 142.869C176.755 147.537 172.97 151.321 168.302 151.321C163.634 151.321 159.849 147.537 159.849 142.869C159.849 138.2 163.634 134.416 168.302 134.416C172.97 134.416 176.755 138.2 176.755 142.869Z" stroke="#201F1E" stroke-width="2"></path><path d="M168.333 143.806C168.833 143.806 169.239 143.4 169.239 142.9C169.239 142.4 168.833 141.994 168.333 141.994C167.833 141.994 167.427 142.4 167.427 142.9C167.427 143.4 167.833 143.806 168.333 143.806Z" fill="#201F1E"></path><path d="M208.151 142.869C208.151 147.537 204.367 151.321 199.698 151.321C195.03 151.321 191.245 147.537 191.245 142.869C191.245 138.2 195.03 134.416 199.698 134.416C204.367 134.416 208.151 138.2 208.151 142.869Z" stroke="#201F1E" stroke-width="2"></path><path d="M199.729 143.806C200.229 143.806 200.635 143.4 200.635 142.9C200.635 142.4 200.229 141.994 199.729 141.994C199.229 141.994 198.823 142.4 198.823 142.9C198.823 143.4 199.229 143.806 199.729 143.806Z" fill="#201F1E"></path><path d="M301 85H237V126H301V85Z" stroke="#201F1E" stroke-width="2" stroke-linecap="round" stroke-linejoin="round" stroke-dasharray="6 6"></path><path d="M236 77C236 76.4477 236.448 76 237 76H257C257.552 76 258 76.4477 258 77V85C258 85.5522 257.552 86 257 86H237C236.448 86 236 85.5522 236 85V77Z" fill="#742774"></path><path d="M239 79H253" stroke="white" stroke-width="2" stroke-linecap="round" stroke-linejoin="round"></path><path d="M239 83H249" stroke="white" stroke-width="2" stroke-linecap="round" stroke-linejoin="round"></path><path d="M247 115H250.584C262.686 114.738 285.449 114.982 289.637 114.999C289.881 115 290.116 114.914 290.284 114.736C292.206 112.709 292.137 108.983 291.845 107.688L288.177 102H254.252C249.117 102 246.611 104.167 246 106.062V114C246 114.552 246.448 115 247 115Z" stroke="#323130" stroke-width="2"></path><path d="M272 100V115" stroke="#323130" stroke-width="2"></path><path d="M272 102V92M272 102H288L283.805 92.5927C283.644 92.2322 283.286 92 282.892 92H272V102ZM272 102H255L263.621 92.3344C263.81 92.1217 264.082 92 264.367 92H272V102Z" stroke="#323130" stroke-width="2"></path><path d="M256 120C259.314 120 262 117.314 262 114C262 110.686 259.314 108 256 108C252.686 108 250 110.686 250 114C250 117.314 252.686 120 256 120Z" fill="white" stroke="#742774" stroke-width="2"></path><path d="M256 116C254.895 116 254 115.105 254 114C254 112.895 254.895 112 256 112C257.105 112 258 112.895 258 114C258 115.105 257.105 116 256 116Z" fill="#201F1E"></path><path d="M283 120C286.314 120 289 117.314 289 114C289 110.686 286.314 108 283 108C279.686 108 277 110.686 277 114C277 117.314 279.686 120 283 120Z" fill="white" stroke="#742774" stroke-width="2"></path><path d="M283 116C281.895 116 281 115.105 281 114C281 112.895 281.895 112 283 112C284.105 112 285 112.895 285 114C285 115.105 284.105 116 283 116Z" fill="#201F1E"></path></svg>