<?xml version="1.0" encoding="utf-8"?>
<!-- Generator: Adobe Illustrator 17.0.0, SVG Export Plug-In . SVG Version: 6.00 Build 0)  -->
<!DOCTYPE svg PUBLIC "-//W3C//DTD SVG 1.1//EN" "http://www.w3.org/Graphics/SVG/1.1/DTD/svg11.dtd">
<svg version="1.1" id="图层_1" xmlns="http://www.w3.org/2000/svg" xmlns:xlink="http://www.w3.org/1999/xlink" x="0px" y="0px"
	 width="1024px" height="188.538px" viewBox="0 0 1024 188.538" enable-background="new 0 0 1024 188.538" xml:space="preserve">
<g>
	<g>
		<path fill="#FFFFFF" stroke="#000000" stroke-width="2.1425" stroke-miterlimit="10" d="M180.035,155.044
			c7.87,1.78,29.064-13.189,31.265-11.21c1.488,1.338-6.05,11.184-6.05,11.184l-7.042,6.165
			C198.207,161.183,177.679,154.511,180.035,155.044z"/>
		<path fill="#FFFFFF" stroke="#000000" stroke-width="2.1425" stroke-miterlimit="10" d="M213.889,77.773
			c7.236,3.572,12.965,23.165,15.921,23.013c1.999-0.103,2.34-12.498,2.34-12.498l-1.591-9.224
			C230.56,79.064,211.723,76.704,213.889,77.773z"/>
		<path fill="#FF5F2E" stroke="#000000" stroke-width="3.5708" stroke-linejoin="round" stroke-miterlimit="10" d="M150.258,17.726
			l-34.072-8.031c0,0-45.617,16.653-72.524,43.219c18.673,3.811,24.112,2.8,24.112,2.8L150.258,17.726z"/>
		<g>
			<path fill="#5CC2F2" d="M15.589,100.137c0,0,74.376-81.081,134.669-82.411s78.381,56.954,83.071,69.012
				c-22.703,6.194-45.223,8.514-71.437,1.114c-3.474,39.47,16.638,65.012,48.759,66.202c-29.762,22.629-47.678,26.023-69.771,24.464
				c-36.108-2.548-92.45-32.156-117.907-107.858C16.114,84.393,15.589,100.137,15.589,100.137z"/>
			<path opacity="0.9" fill="#B2E7FB" d="M128.366,150.286c-44.398-4.878-72.308-29.982-99.332-63.709
				c27.534,63.976,78.362,89.579,111.821,91.94c22.093,1.559,40.009-1.835,69.771-24.464c-9.008,0.028-22.379-3.48-31.773-12.23
				C170.808,146.293,158.548,153.603,128.366,150.286z"/>
			
				<path fill="none" stroke="#000000" stroke-width="3.5708" stroke-linecap="round" stroke-linejoin="round" stroke-miterlimit="10" d="
				M15.589,100.137c0,0,74.376-81.081,134.669-82.411s80.06,55.354,83.071,69.012c-20.611,6.046-42.091,9.52-71.437,1.114
				c-3.474,39.47,16.638,65.012,48.759,66.202c-29.762,22.629-47.678,26.023-69.771,24.464
				c-36.108-2.548-92.45-32.156-117.907-107.858C16.114,84.393,15.589,100.137,15.589,100.137z"/>
		</g>
		<path fill="#FF5F2E" stroke="#000000" stroke-width="3.5708" stroke-linejoin="round" stroke-miterlimit="10" d="M143.028,98.242
			l-39.926-18.999c0,0-16.189,16.631-20.107,43.373C111.145,117.733,143.028,98.242,143.028,98.242z"/>
		
			<circle fill="#FFFFFF" stroke="#000000" stroke-width="3.5708" stroke-linecap="round" stroke-linejoin="round" stroke-miterlimit="10" cx="182.236" cy="65.548" r="12.634"/>
		<ellipse cx="183.8" cy="65.548" rx="6.487" ry="6.213"/>
		
			<path fill="none" stroke="#000000" stroke-width="3.5708" stroke-linecap="round" stroke-linejoin="round" stroke-miterlimit="10" d="
			M99.073,87c0,0,8.936,7.02,17.556,8.252"/>
		
			<path fill="none" stroke="#000000" stroke-width="3.5708" stroke-linecap="round" stroke-linejoin="round" stroke-miterlimit="10" d="
			M90.801,97.843c0,0,9.511,2.855,19.021,3.851"/>
		
			<path fill="none" stroke="#000000" stroke-width="3.5708" stroke-linecap="round" stroke-linejoin="round" stroke-miterlimit="10" d="
			M85.961,110.594c0,0,11.896,0.239,21.092-2.276"/>
		<g>
			<g>
				<path fill="#FFC7C7" stroke="#231815" stroke-width="2.1425" stroke-linejoin="round" stroke-miterlimit="10" d="
					M217.316,107.852c10.484-1.815,20.711,0.791,28.77,6.472c0.138-0.731,0.208-1.507,0.188-2.345
					c-0.341-13.965-19.068-17.128-30.783-15.792c-11.715,1.336-24.671,8.847-25.989,23.892c-0.194,2.217,0.157,4.444,0.931,6.631
					C195.937,117.082,205.535,109.892,217.316,107.852z"/>
				<path fill="#FFE2E2" stroke="#231815" stroke-width="2.1425" stroke-linejoin="round" stroke-miterlimit="10" d="
					M219.72,121.736c6.597-1.142,13.033,0.479,18.126,4.024c3.335-3.905,7.336-6.653,8.24-11.435
					c-8.059-5.681-18.286-8.288-28.77-6.472c-11.781,2.04-21.379,9.23-26.883,18.858c1.67,4.724,5.322,9.257,9.778,13.077
					C202.518,130.741,209.926,123.432,219.72,121.736z"/>
				<path fill="#F6F6F6" stroke="#231815" stroke-width="2.1425" stroke-linejoin="round" stroke-miterlimit="10" d="
					M200.211,139.787c10.397,8.914,25.16,13.939,29.287,8.402c5.014-6.726,2.215-12.604,5.935-19.066
					c0.713-1.239,1.541-2.341,2.414-3.363c-5.093-3.545-11.529-5.166-18.126-4.024C209.926,123.432,202.518,130.741,200.211,139.787
					z"/>
			</g>
			
				<path fill="none" stroke="#000000" stroke-width="3.5708" stroke-linecap="round" stroke-linejoin="round" stroke-miterlimit="10" d="
				M215.491,96.515c-11.715,1.336-24.67,8.847-25.989,23.892c-0.194,2.217,0.157,4.444,0.931,6.632
				c1.67,4.724,5.322,9.257,9.778,13.077c10.397,8.914,25.16,13.939,29.287,8.402c5.014-6.726,2.215-12.604,5.935-19.066
				c0.713-1.239,1.541-2.341,2.414-3.363c3.335-3.905,7.336-6.653,8.24-11.435c0.138-0.731,0.208-1.507,0.188-2.345
				C245.933,98.342,227.206,95.179,215.491,96.515z"/>
		</g>
		<circle fill="#FFFFFF" cx="185.618" cy="63.242" r="2.306"/>
	</g>
	<g>
		<path fill="#282828" stroke="#282828" stroke-width="5" stroke-miterlimit="10" d="M502.118,74.114
			c16.237,0,29.446,13.209,29.446,29.445c0,16.237-13.209,29.446-29.446,29.446c-16.236,0-29.445-13.209-29.445-29.446
			C472.673,87.324,485.882,74.114,502.118,74.114 M502.118,65.304c-21.128,0-38.255,17.128-38.255,38.255
			c0,21.128,17.128,38.256,38.255,38.256c21.128,0,38.256-17.128,38.256-38.256C540.374,82.432,523.246,65.304,502.118,65.304
			L502.118,65.304z"/>
		<path fill="#282828" stroke="#282828" stroke-width="5" stroke-miterlimit="10" d="M897.836,74.115
			c16.237,0,29.446,13.209,29.446,29.445c0,16.237-13.209,29.446-29.446,29.446c-16.236,0-29.445-13.209-29.445-29.446
			C868.39,87.325,881.6,74.115,897.836,74.115 M897.836,65.305c-21.128,0-38.255,17.128-38.255,38.255
			c0,21.128,17.128,38.256,38.255,38.256c21.128,0,38.256-17.128,38.256-38.256C936.092,82.433,918.964,65.305,897.836,65.305
			L897.836,65.305z"/>
		<path fill="#282828" stroke="#282828" stroke-width="5" stroke-miterlimit="10" d="M718.057,74.114
			c16.237,0,29.446,13.209,29.446,29.446c0,16.236-13.209,29.445-29.446,29.445c-16.236,0-29.445-13.209-29.445-29.445
			C688.611,87.324,701.821,74.114,718.057,74.114 M718.057,65.304c-21.128,0-38.255,17.128-38.255,38.256
			c0,21.128,17.128,38.255,38.255,38.255c21.128,0,38.256-17.128,38.256-38.255C756.313,82.432,739.185,65.304,718.057,65.304
			L718.057,65.304z"/>
		
			<rect x="391.543" y="34.187" fill="#282828" stroke="#282828" stroke-width="5" stroke-miterlimit="10" width="8.81" height="107.629"/>
		<g>
			<path fill="#282828" stroke="#282828" stroke-width="5" stroke-miterlimit="10" d="M807.947,74.115
				c16.236,0,29.445,13.209,29.445,29.445c0,16.237-13.209,29.446-29.445,29.446s-29.445-13.209-29.445-29.446
				C778.501,87.325,791.711,74.115,807.947,74.115 M807.947,65.305c-21.128,0-38.255,17.128-38.255,38.255
				c0,21.128,17.127,38.256,38.255,38.256c21.128,0,38.255-17.128,38.255-38.256C846.202,82.433,829.074,65.305,807.947,65.305
				L807.947,65.305z"/>
			
				<rect x="837.392" y="34.187" fill="#282828" stroke="#282828" stroke-width="5" stroke-miterlimit="10" width="8.81" height="107.629"/>
		</g>
		
			<rect x="441.675" y="94.776" fill="#282828" stroke="#282828" stroke-width="5" stroke-miterlimit="10" width="8.81" height="47.041"/>
		<path fill="#282828" stroke="#282828" stroke-width="5" stroke-miterlimit="10" d="M421.014,65.305
			c-16.277,0-29.471,13.194-29.471,29.471h8.81c0-11.392,9.268-20.661,20.661-20.661s20.661,9.268,20.661,20.661h8.81
			C450.485,78.499,437.29,65.305,421.014,65.305z"/>
		<g>
			
				<rect x="559.277" y="94.749" fill="#282828" stroke="#282828" stroke-width="5" stroke-miterlimit="10" width="66.855" height="8.81"/>
			<path fill="#282828" stroke="#282828" stroke-width="5" stroke-miterlimit="10" d="M592.008,65.304
				c-21.128,0-38.256,17.128-38.256,38.255h8.81c0-16.236,13.209-29.445,29.446-29.445c16.236,0,29.445,13.209,29.445,29.445h8.81
				C630.264,82.432,613.136,65.304,592.008,65.304z"/>
			<path fill="#282828" stroke="#282828" stroke-width="5" stroke-miterlimit="10" d="M592.008,133.006
				c-16.237,0-29.446-13.209-29.446-29.446h-8.81c0,21.128,17.128,38.256,38.256,38.256c14.158,0,26.512-7.698,33.127-19.131
				l-7.638-4.41C612.399,127.072,602.886,133.006,592.008,133.006z"/>
		</g>
		<g>
			
				<rect x="643.642" y="65.305" fill="#282828" stroke="#282828" stroke-width="5" stroke-miterlimit="10" width="8.81" height="76.511"/>
			<path fill="#282828" stroke="#282828" stroke-width="5" stroke-miterlimit="10" d="M673.112,74.116v-8.81
				c-16.267,0-29.456,13.18-29.47,29.445h8.811C652.467,83.37,661.729,74.116,673.112,74.116z"/>
		</g>
		<g>
			
				<rect x="949.47" y="65.838" fill="#282828" stroke="#282828" stroke-width="5" stroke-miterlimit="10" width="8.81" height="75.979"/>
			
				<rect x="999.601" y="94.776" fill="#282828" stroke="#282828" stroke-width="5" stroke-miterlimit="10" width="8.81" height="47.041"/>
			<path fill="#282828" stroke="#282828" stroke-width="5" stroke-miterlimit="10" d="M999.6,94.75h8.811
				c-0.014-16.265-13.202-29.445-29.47-29.445v8.81C990.324,74.115,999.586,83.37,999.6,94.75z"/>
			<path fill="#282828" stroke="#282828" stroke-width="5" stroke-miterlimit="10" d="M978.94,74.115v-8.81
				c-16.267,0-29.456,13.18-29.47,29.445h8.811C958.295,83.37,967.557,74.115,978.94,74.115z"/>
		</g>
		<g>
			<path fill="#282828" stroke="#282828" stroke-width="5" stroke-miterlimit="10" d="M283.945,88.002
				c0-7.971,2.081-15.462,5.716-21.972l-7.681-4.434c-4.38,7.811-6.888,16.814-6.888,26.407c0,10.112,2.783,19.572,7.614,27.668
				l7.681-4.435C286.3,104.44,283.945,96.492,283.945,88.002z"/>
			<path fill="#282828" stroke="#282828" stroke-width="5" stroke-miterlimit="10" d="M329.173,42.774
				c16.967,0,31.775,9.397,39.512,23.255l7.68-4.434c-9.258-16.51-26.917-27.674-47.192-27.674
				c-20.276,0-37.935,11.165-47.193,27.674l7.681,4.434C297.398,52.171,312.206,42.774,329.173,42.774z"/>
			<path fill="#282828" stroke="#282828" stroke-width="5" stroke-miterlimit="10" d="M329.173,133.23
				c-16.449,0-30.87-8.829-38.787-21.995l-7.681,4.435c9.437,15.816,26.712,26.413,46.467,26.413
				c19.755,0,37.03-10.598,46.467-26.413l-7.681-4.435C360.043,124.401,345.622,133.23,329.173,133.23z"/>
		</g>
	</g>
</g>
<g>
</g>
<g>
</g>
<g>
</g>
<g>
</g>
<g>
</g>
<g>
</g>
</svg>
