<?xml version="1.0" encoding="UTF-8"?>
<svg width="290px" height="226px" viewBox="0 0 290 226" version="1.1" xmlns="http://www.w3.org/2000/svg" xmlns:xlink="http://www.w3.org/1999/xlink">
    <!-- Generator: Sketch 52.2 (67145) - http://www.bohemiancoding.com/sketch -->
    <title>无相关信息</title>
    <desc>Created with Sketch.</desc>
    <defs>
        <linearGradient x1="90.0427136%" y1="25.2607168%" x2="16.0644973%" y2="75.334838%" id="linearGradient-1">
            <stop stop-color="#EDF4FF" offset="0%"></stop>
            <stop stop-color="#FDFEFF" offset="100%"></stop>
        </linearGradient>
        <linearGradient x1="50%" y1="0%" x2="63.0418722%" y2="115.219362%" id="linearGradient-2">
            <stop stop-color="#F8FBFF" offset="0%"></stop>
            <stop stop-color="#DCEAFF" offset="100%"></stop>
        </linearGradient>
        <linearGradient x1="50%" y1="-8.32667268e-15%" x2="50%" y2="93.7535042%" id="linearGradient-3">
            <stop stop-color="#F6FAFF" offset="0%"></stop>
            <stop stop-color="#FFFFFF" offset="100%"></stop>
        </linearGradient>
        <path d="M274.862637,137.471264 C274.862637,61.5479815 213.33254,-2.84217094e-14 137.431319,-2.84217094e-14 C61.5300972,-2.84217094e-14 5.40012479e-13,61.5479815 5.40012479e-13,137.471264 C58.6506494,137.394152 213.022035,137.245698 274.862637,137.471264 Z" id="path-4"></path>
        <linearGradient x1="50%" y1="93.7535042%" x2="50%" y2="-1.94289029e-14%" id="linearGradient-6">
            <stop stop-color="#EDF4FF" offset="0%"></stop>
            <stop stop-color="#FFFFFF" offset="100%"></stop>
        </linearGradient>
        <path d="M274.862637,137.471264 C274.862637,61.5479815 213.33254,-2.84217094e-14 137.431319,-2.84217094e-14 C61.5300972,-2.84217094e-14 5.40012479e-13,61.5479815 5.40012479e-13,137.471264 C58.6506494,137.394152 213.022035,137.245698 274.862637,137.471264 Z" id="path-7"></path>
        <linearGradient x1="96.8767521%" y1="46.8767521%" x2="3.12324792%" y2="46.8767521%" id="linearGradient-9">
            <stop stop-color="#EDF4FF" offset="0%"></stop>
            <stop stop-color="#FFFFFF" offset="100%"></stop>
        </linearGradient>
        <path d="M274.862637,137.471264 C274.862637,61.5479815 213.33254,-2.84217094e-14 137.431319,-2.84217094e-14 C61.5300972,-2.84217094e-14 5.40012479e-13,61.5479815 5.40012479e-13,137.471264 C58.6506494,137.394152 213.022035,137.245698 274.862637,137.471264 Z" id="path-10"></path>
        <path d="M274.862637,137.471264 C274.862637,61.5479815 213.33254,-2.84217094e-14 137.431319,-2.84217094e-14 C61.5300972,-2.84217094e-14 5.40012479e-13,61.5479815 5.40012479e-13,137.471264 C58.6506494,137.394152 213.022035,137.245698 274.862637,137.471264 Z" id="path-12"></path>
        <linearGradient x1="4.64115192%" y1="6.15719786%" x2="92.6348887%" y2="87.9731039%" id="linearGradient-14">
            <stop stop-color="#FDFEFF" offset="0%"></stop>
            <stop stop-color="#F0F6FF" offset="100%"></stop>
        </linearGradient>
        <linearGradient x1="98.4962002%" y1="91.0620193%" x2="0%" y2="91.0620193%" id="linearGradient-15">
            <stop stop-color="#E9F2FF" offset="0%"></stop>
            <stop stop-color="#F0F6FF" offset="100%"></stop>
        </linearGradient>
        <linearGradient x1="40.5212921%" y1="94.1708112%" x2="59.4976705%" y2="36.9321584%" id="linearGradient-16">
            <stop stop-color="#EEF6FF" offset="0%"></stop>
            <stop stop-color="#DEEAF8" offset="100%"></stop>
        </linearGradient>
    </defs>
    <g id="Page-1" stroke="none" stroke-width="1" fill="none" fill-rule="evenodd">
        <g id="无相关信息">
            <g id="分组-4" transform="translate(0.000000, 39.000000)">
                <g id="分组-3">
                    <ellipse id="椭圆形" fill="url(#linearGradient-1)" cx="266.497253" cy="16.3371648" rx="16.3324176" ry="16.3371648"></ellipse>
                    <ellipse id="椭圆形-copy-4" fill="url(#linearGradient-1)" cx="9.56043956" cy="42.2375479" rx="9.56043956" ry="9.56321839"></ellipse>
                    <path d="M250.823013,11.2364901 C247.377577,12.3582146 245.288882,13.8287329 245.289056,15.4388975 C245.289436,18.959808 255.277719,21.8151486 267.59851,21.8164792 C279.9193,21.8178098 289.03365,18.9135383 289.03327,15.3926278 C289.033062,13.4705428 286.929646,11.7978945 282.221822,10.6285371" id="路径" stroke="url(#linearGradient-2)" stroke-width="3" stroke-linecap="round" transform="translate(267.161163, 16.222508) rotate(24.000000) translate(-267.161163, -16.222508) "></path>
                </g>
                <g id="椭圆形-copy-3-+-椭圆形-+-椭圆形-copy-+-椭圆形-copy-2-Mask" transform="translate(9.560440, 31.877395)">
                    <g id="Mask" fill="url(#linearGradient-3)">
                        <path d="M274.862637,137.471264 C274.862637,61.5479815 213.33254,-2.84217094e-14 137.431319,-2.84217094e-14 C61.5300972,-2.84217094e-14 5.40012479e-13,61.5479815 5.40012479e-13,137.471264 C58.6506494,137.394152 213.022035,137.245698 274.862637,137.471264 Z" id="path-4"></path>
                    </g>
                    <g id="椭圆形-copy-3-Clipped">
                        <mask id="mask-5" fill="white">
                            <use xlink:href="#path-4"></use>
                        </mask>
                        <g id="path-4"></g>
                        <ellipse id="椭圆形-copy-3" fill="url(#linearGradient-6)" mask="url(#mask-5)" cx="62.5412088" cy="24.3065134" rx="24.2994505" ry="24.3065134"></ellipse>
                    </g>
                    <g id="椭圆形-Clipped">
                        <mask id="mask-8" fill="white">
                            <use xlink:href="#path-7"></use>
                        </mask>
                        <g id="path-4"></g>
                        <ellipse id="椭圆形" fill="url(#linearGradient-9)" mask="url(#mask-8)" cx="137.032967" cy="29.48659" rx="12.7472527" ry="12.7509579"></ellipse>
                    </g>
                    <g id="椭圆形-copy-Clipped">
                        <mask id="mask-11" fill="white">
                            <use xlink:href="#path-10"></use>
                        </mask>
                        <g id="path-4"></g>
                        <ellipse id="椭圆形-copy" fill="url(#linearGradient-9)" mask="url(#mask-11)" cx="205.947802" cy="91.2490421" rx="8.36538462" ry="8.36781609"></ellipse>
                    </g>
                    <g id="椭圆形-copy-2-Clipped">
                        <mask id="mask-13" fill="white">
                            <use xlink:href="#path-12"></use>
                        </mask>
                        <g id="path-4"></g>
                        <ellipse id="椭圆形-copy-2" fill="url(#linearGradient-9)" mask="url(#mask-13)" cx="56.1675824" cy="94.4367816" rx="8.36538462" ry="8.36781609"></ellipse>
                    </g>
                </g>
                <g id="暂无相关信息" opacity="0.69577753" transform="translate(93.000000, 168.000000)" fill="#A5BDE8" font-family="PingFangSC-Regular, PingFang SC" font-size="16" font-weight="normal">
                    <text>
                        <tspan x="0.4120879" y="17">暂无相关信息</tspan>
                    </text>
                </g>
            </g>
            <g id="分组-2" transform="translate(88.000000, 0.000000)">
                <g id="合并形状">
                    <g id="path-9-link" fill="#000000">
                        <path d="M52.6216216,72.8712871 L12,72.8712871 C5.372583,72.8712871 8.11624501e-16,67.4987041 0,60.8712871 L0,12 C-8.11624501e-16,5.372583 5.372583,-9.47058326e-14 12,-9.59232693e-14 L106,-9.9475983e-14 C112.627417,-1.06579749e-13 118,5.372583 118,12 L118,60.8712871 C118,67.4987041 112.627417,72.8712871 106,72.8712871 L65.3783784,72.8712871 L62.3214532,77.4266648 C61.0904715,79.2610528 58.6054984,79.7502102 56.7711104,78.5192284 C56.3393761,78.2295094 55.9682658,77.8583992 55.6785468,77.4266648 L52.6216216,72.8712871 Z" id="path-9"></path>
                    </g>
                    <g id="path-9-link" fill="url(#linearGradient-14)">
                        <path d="M52.6216216,72.8712871 L12,72.8712871 C5.372583,72.8712871 8.11624501e-16,67.4987041 0,60.8712871 L0,12 C-8.11624501e-16,5.372583 5.372583,-9.47058326e-14 12,-9.59232693e-14 L106,-9.9475983e-14 C112.627417,-1.06579749e-13 118,5.372583 118,12 L118,60.8712871 C118,67.4987041 112.627417,72.8712871 106,72.8712871 L65.3783784,72.8712871 L62.3214532,77.4266648 C61.0904715,79.2610528 58.6054984,79.7502102 56.7711104,78.5192284 C56.3393761,78.2295094 55.9682658,77.8583992 55.6785468,77.4266648 L52.6216216,72.8712871 Z" id="path-9"></path>
                    </g>
                </g>
                <rect id="矩形" fill="url(#linearGradient-15)" x="11.9594595" y="17.4257426" width="67.7702703" height="6.33663366" rx="3.16831683"></rect>
                <path d="M90.8284326,15.6573352 L104.338133,15.6129814 C106.08222,15.6072554 107.500724,17.0164754 107.50645,18.7605625 C107.506473,18.7674744 107.506473,18.7743863 107.50645,18.7812982 C107.500675,20.5402412 106.076204,21.9647126 104.317261,21.9704874 L90.8075603,22.0148412 C89.0634732,22.0205672 87.6449694,20.6113471 87.6392434,18.8672601 C87.6392207,18.8603482 87.6392207,18.8534362 87.6392434,18.8465243 C87.6450182,17.0875813 89.0694896,15.6631099 90.8284326,15.6573352 Z" id="矩形-copy-4" fill="#E1ECFF" transform="translate(97.572847, 18.813911) rotate(45.000000) translate(-97.572847, -18.813911) "></path>
                <path d="M90.8075609,15.6129815 L104.317261,15.6573353 C106.076204,15.66311 107.500675,17.0875814 107.50645,18.8465244 C107.512176,20.5906115 106.102956,22.0091153 104.358869,22.0148413 C104.351957,22.014864 104.345045,22.014864 104.338133,22.0148413 L90.8284332,21.9704875 C89.0694902,21.9647127 87.6450188,20.5402413 87.639244,18.7812983 C87.633518,17.0372113 89.042738,15.6187075 90.7868251,15.6129815 C90.793737,15.6129588 90.800649,15.6129588 90.8075609,15.6129815 Z" id="矩形-copy-5" fill="#E1ECFF" transform="translate(97.572847, 18.813911) rotate(-45.000000) translate(-97.572847, -18.813911) "></path>
                <rect id="矩形-copy-2" fill="url(#linearGradient-15)" x="11.9594595" y="34.0594059" width="94.8783784" height="6.33663366" rx="3.16831683"></rect>
                <rect id="矩形-copy-3" fill="url(#linearGradient-15)" x="11.9594595" y="50.6930693" width="94.8783784" height="6.33663366" rx="3.16831683"></rect>
            </g>
            <g id="分组" transform="translate(174.000000, 61.000000)">
                <g id="分组-6">
                    <polygon id="路径-21" fill="#FFF3D1" points="22.9507898 13.5811521 33.5539096 4.16931022 37.3589744 5.09215663 36.6522143 7.87667967 36.8738651 13.2406972 36.6522143 14.2191963 34.1794872 14.7610471 34.1794872 15.8534671 33.5539096 15.8534671 33.5539096 16.602526 32.6354133 16.602526 32.6354133 17.3563801 31.0178871 17.3563801 29.5018658 15.8534671 27.5592906 15.8534671 25.1630741 18.0361274 22.1393325 14.2191963"></polygon>
                    <path d="M25.5641608,11.7706678 L30.1547532,11.7706678 L30.1547532,8.35400677 L31.8104651,8.35400677 L31.8104651,9.39048078 L33.0829443,9.39048078 L35.0575853,7.77871417 L36.6112313,7.77871417 L37.3589744,9.39048078 L38.9058802,9.39048078 L38.9058802,7.77871417 L39.8261996,7.77871417 L39.8261996,2.81896857 L38.1538462,0.799631273 L38.1538462,3.15656542 L37.3589744,3.15656542 C30.2186423,-0.770438105 26.2870377,0.0650853992 25.5641608,5.66313594 C25.5179422,9.46459313 25.5179422,11.5004371 25.5641608,11.7706678 Z" id="路径-20" fill="#979797"></path>
                    <rect id="矩形" fill="#FFF3D1" x="41.3333333" y="61.0689655" width="3.17948718" height="4.75862069"></rect>
                    <rect id="矩形-copy" fill="#FFF3D1" x="49.2820513" y="57.8965517" width="3.97435897" height="4.75862069"></rect>
                    <path d="M13.1260392,59.953994 C16.5567879,63.9164878 19.7310754,65.0732025 22.6489016,63.4241381 C25.5667279,61.7750738 30.2635631,57.6703996 36.7394073,51.1101156 C38.7780288,55.0526106 39.7973396,58.620961 39.7973396,61.8151667 C41.7337118,61.8142716 43.8354533,61.8142716 46.1025641,61.8151667 L43.6642832,51.5324503 L44.8773142,50.7430173 L49.2074066,59.953994 L55.5018087,56.8231262 L47.8996618,38.4329774 C44.4988254,36.8874598 42.2129956,36.8874598 41.0421725,38.4329774 C40.4003295,36.7672626 34.6184131,33.7409567 32.953549,36.1987359 C31.8436396,37.8372554 25.2344697,45.7556747 13.1260392,59.953994 Z" id="路径-23" fill="#D7E5FA"></path>
                    <path d="M21.7298079,13.4488504 C23.6635075,16.1212875 24.2873981,17.6672449 27.6818498,18.5788843 C27.7784991,21.5609963 28.2956312,41.6623736 34.5374713,43.4546815 C36.865131,47.188463 14.9073402,59.1467498 13.4732711,63.6837531 C-14.0107072,48.074302 8.45585858,14.9945094 21.7298079,13.4488504 Z" id="路径-22" fill="url(#linearGradient-16)"></path>
                    <path d="M13.728098,30.5471905 C21.0486886,36.2715467 33.0085408,42.0910603 34.1794872,42.0910603 C34.9601181,42.0910603 36.7173953,41.4090061 39.4513187,40.0448978 L19.0970014,20.7718943 C12.2721625,21.2803381 10.4825281,24.5387701 13.728098,30.5471905 Z" id="路径-24" fill="#D0DEEE"></path>
                    <polygon id="路径-25" fill="#C2CFE2" points="40.5384615 63.4796532 46.1025641 63.4796532 47.0235877 65.0016689 48.4633029 65.0016689 48.4633029 63.4796532 49.3776039 61.8943069 54.0434144 61.8943069 54.0434144 62.7145573 57.1218716 62.7145573 61.2231015 64.2997651 61.2231015 65.8209493 52.4615385 65.8209493 52.4615385 67.4171048 45.3076923 67.4171048 45.3076923 68.2582807 41.3833375 68.2582807 40.5384615 67.4171048"></polygon>
                </g>
            </g>
        </g>
    </g>
</svg>