<?xml version="1.0" encoding="UTF-8"?>
<svg width="38px" height="38px" viewBox="0 0 38 38" version="1.1" xmlns="http://www.w3.org/2000/svg" xmlns:xlink="http://www.w3.org/1999/xlink">
    <!-- Generator: Sketch 52.2 (67145) - http://www.bohemiancoding.com/sketch -->
    <title>winning-notice</title>
    <desc>Created with Sketch.</desc>
    <defs>
        <rect id="path-1" x="0" y="0" width="38" height="38"></rect>
    </defs>
    <g id="Page-1" stroke="none" stroke-width="1" fill="none" fill-rule="evenodd">
        <g id="winning-notice">
            <mask id="mask-2" fill="white">
                <use xlink:href="#path-1"></use>
            </mask>
            <use id="Rectangle-Copy-6" fill="#D8D8D8" opacity="0.01" xlink:href="#path-1"></use>
            <circle id="Oval" stroke="#1E3255" stroke-width="2" fill="#19BBCB" mask="url(#mask-2)" cx="19" cy="19" r="4"></circle>
            <g id="Group-41" mask="url(#mask-2)">
                <g transform="translate(18.353553, 17.939340) rotate(-45.000000) translate(-18.353553, -17.939340) translate(0.353553, -2.560660)">
                    <path d="M11,5.41181852 L11,7.60846581 C5.67152947,10.2050533 2,15.6737608 2,22 C2,30.836556 9.163444,38 18,38 C26.836556,38 34,30.836556 34,22 C34,15.6737608 30.3284705,10.2050533 25,7.60846581 L25,5.41181852 C31.4638833,8.14284554 36,14.5416894 36,22 C36,31.9411255 27.9411255,40 18,40 C8.0588745,40 -2.38742359e-12,31.9411255 -2.38742359e-12,22 C-2.38742359e-12,14.5416894 4.53611666,8.14284554 11,5.41181852 Z M13,4.70353333 C14.5874495,4.24545512 16.2650602,4 18,4 C19.7349398,4 21.4125505,4.24545512 23,4.70353333 L23,6.79675709 C21.426903,6.27970611 19.7461159,6 18,6 C16.2538841,6 14.573097,6.27970611 13,6.79675709 L13,4.70353333 Z M11,11.0436358 L11,13.5143242 C8.55699334,15.5319075 7,18.5841261 7,22 C7,28.0751322 11.9248678,33 18,33 C24.0751322,33 29,28.0751322 29,22 C29,18.5841261 27.4430067,15.5319075 25,13.5143242 L25,11.0436358 C28.6083127,13.3537742 31,17.3975829 31,22 C31,29.1797017 25.1797017,35 18,35 C10.8202983,35 5,29.1797017 5,22 C5,17.3975829 7.39168726,13.3537742 11,11.0436358 Z M13,9.9963267 C14.5391842,9.35445629 16.2281982,9 18,9 C19.7718018,9 21.4608158,9.35445629 23,9.9963267 L23,12.1994192 C21.4998644,11.4325573 19.8004468,11 18,11 C16.1995532,11 14.5001356,11.4325573 13,12.1994192 L13,9.9963267 Z" id="Oval" fill="#1E3255" fill-rule="nonzero"></path>
                    <path d="M14.6262204,1.13462558 L17.9800103,3.82842712 L21.3768253,1.12179607 C21.8087576,0.777626187 22.4379128,0.848771699 22.7820827,1.28070402 C22.9231721,1.45777086 23,1.67747448 23,1.90387873 L23,13.8284271 C23,14.3807119 22.5522847,14.8284271 22,14.8284271 L14,14.8284271 C13.4477153,14.8284271 13,14.3807119 13,13.8284271 L13,1.91427163 C13,1.36198688 13.4477153,0.914271633 14,0.914271633 C14.2277421,0.914271633 14.4486622,0.992008818 14.6262204,1.13462558 Z" id="Rectangle" fill="#19BBCB" fill-rule="evenodd"></path>
                    <path d="M19,14.8284271 L19,21.8284271 C19,22.3807119 18.5522847,22.8284271 18,22.8284271 C17.4477153,22.8284271 17,22.3807119 17,21.8284271 L17,14.8284271 L14,14.8284271 C13.4477153,14.8284271 13,14.3807119 13,13.8284271 L13,1.91427163 C13,1.36198688 13.4477153,0.914271633 14,0.914271633 C14.2277421,0.914271633 14.4486622,0.992008818 14.6262204,1.13462558 L17.9800103,3.82842712 L21.3768253,1.12179607 C21.8087576,0.777626187 22.4379128,0.848771699 22.7820827,1.28070402 C22.9231721,1.45777086 23,1.67747448 23,1.90387873 L23,13.8284271 C23,14.3807119 22.5522847,14.8284271 22,14.8284271 L19,14.8284271 Z M15,12.8284271 L21,12.8284271 L21,3.97933034 L17.9750152,6.38968169 L15,4.00011614 L15,12.8284271 Z" id="Rectangle" fill="#1E3255" fill-rule="nonzero"></path>
                </g>
            </g>
        </g>
    </g>
</svg>