<svg id="图层_1" data-name="图层 1" xmlns="http://www.w3.org/2000/svg" xmlns:xlink="http://www.w3.org/1999/xlink" viewBox="0 0 43.35 49.85"><defs><clipPath id="clip-path" transform="translate(-32.2 -31.92)"><rect id="SVGID" x="32.21" y="31.89" width="43.38" height="49.95" style="fill:none"/></clipPath></defs><title>icon_userCenter_safeSetting_click</title><g style="clip-path:url(#clip-path)"><path d="M75.55,36.12V61.53a10.42,10.42,0,0,1-1.08,4.54,21.16,21.16,0,0,1-2.84,4.39,31.06,31.06,0,0,1-4,4,42,42,0,0,1-4.57,3.38,34.57,34.57,0,0,1-4.51,2.47,19.85,19.85,0,0,1-3.84,1.35l-.52.09-.47-.09a20.44,20.44,0,0,1-3.93-1.35,37.78,37.78,0,0,1-4.64-2.47,42.45,42.45,0,0,1-4.72-3.38,31.62,31.62,0,0,1-4.14-4,21,21,0,0,1-3-4.39,10.09,10.09,0,0,1-1.13-4.54V36.12L34,35.85l19.94-3.93,20.33,3.93ZM53.93,35.6l-.24-.05L36.57,38.61v16H53.93Zm17.25,19H53.93V77.46a23.86,23.86,0,0,0,3.62-1.23,32.58,32.58,0,0,0,3.86-2,35,35,0,0,0,3.67-2.51,22.2,22.2,0,0,0,3.13-3,14.8,14.8,0,0,0,2.16-3.29A7.9,7.9,0,0,0,71.18,62Zm0,0" transform="translate(-32.2 -31.92)" style="fill:#d5d6d5"/></g><polygon points="4.16 6.69 4.16 22.73 21.68 22.73 21.68 3.05 4.16 6.69" style="fill:#838687"/><path d="M53.93,54.65H71.18v7.92s-.27,4.87-6,9.28a35.82,35.82,0,0,1-11.54,5.87Z" transform="translate(-32.2 -31.92)" style="fill:#838687"/></svg>