<svg id="图层_1" data-name="图层 1" xmlns="http://www.w3.org/2000/svg" xmlns:xlink="http://www.w3.org/1999/xlink" viewBox="0 0 60.13 69.15"><defs><clipPath id="clip-path" transform="translate(-24.2 -21.26)"><rect id="SVGID" x="24.21" y="21.22" width="60.17" height="69.28" style="fill:none"/></clipPath></defs><title>icon_userCenter_safeSetting_default</title><g style="clip-path:url(#clip-path)"><path d="M84.33,27.1V62.34a14.49,14.49,0,0,1-1.51,6.3,29.7,29.7,0,0,1-3.93,6.09,43.73,43.73,0,0,1-5.57,5.57A59.41,59.41,0,0,1,67,85a48.48,48.48,0,0,1-6.25,3.43,28.42,28.42,0,0,1-5.33,1.87l-.72.13L54,90.29a29.15,29.15,0,0,1-5.44-1.87A52.25,52.25,0,0,1,42.14,85a60.5,60.5,0,0,1-6.55-4.69,45.34,45.34,0,0,1-5.74-5.57,29.4,29.4,0,0,1-4.09-6.09,14,14,0,0,1-1.56-6.3V27.1l2.46-.39,27.66-5.45,28.2,5.45Zm-30-.73L54,26.3,30.26,30.55V52.79H54.33ZM78.27,52.79H54.33V84.43a32.11,32.11,0,0,0,5-1.71A44.18,44.18,0,0,0,64.71,80a48.28,48.28,0,0,0,5.09-3.49,30.9,30.9,0,0,0,4.33-4.11,20.6,20.6,0,0,0,3-4.57A11.11,11.11,0,0,0,78.27,63Zm0,0" transform="translate(-24.2 -21.26)" style="fill:#b1c6e7"/></g><polygon points="5.76 9.27 5.76 31.52 30.07 31.52 30.07 4.24 5.76 9.27" style="fill:#3c6fb6"/><path d="M54.33,52.8H78.27v11s-.38,6.75-8.38,12.87a49.61,49.61,0,0,1-16,8.15Z" transform="translate(-24.2 -21.26)" style="fill:#3c6fb6"/></svg>