<svg id="图层_1" data-name="图层 1" xmlns="http://www.w3.org/2000/svg" viewBox="0 0 36 34"><title>icon_userCenter_messageReceived_click</title><path d="M69.33,77h-34a1,1,0,0,1-1-1V59a2,2,0,0,1,2.77-1.89L52.33,63l15.23-5.92A2,2,0,0,1,70.33,59V76A1,1,0,0,1,69.33,77Z" transform="translate(-34.33 -43)" style="fill:#3c6fb6"/><path d="M50.89,70.28,40.1,64.88A3.19,3.19,0,0,1,38.33,62V45a2,2,0,0,1,2-2h24a2,2,0,0,1,2,2V61.88a3.19,3.19,0,0,1-1.73,2.84L53.77,70.27A3.21,3.21,0,0,1,50.89,70.28Z" transform="translate(-34.33 -43)" style="fill:#b1c6e7"/><rect x="9" y="6" width="16" height="3" rx="1" ry="1" style="fill:#3c6fb6"/><rect x="9" y="12" width="11" height="3" rx="1" ry="1" style="fill:#3c6fb6"/></svg>