<svg xmlns="http://www.w3.org/2000/svg" width="169" height="128" viewBox="0 0 169 128">
  <g fill="none" fill-rule="evenodd">
    <path fill="#DEE0ED" d="M3.5652175,0 L160.434783,0 C162.811594,0 164,1.19191923 164,3.57575768 L164,114.424242 C164,116.808081 162.811594,118 160.434783,118 L3.5652175,118 C1.18840596,118 1.3056216e-07,116.808081 0,114.424242 L0,3.57575768 C0,1.19191936 1.18840583,1.30948159e-07 3.5652175,0 Z"/>
    <path fill="#F2F4FD" d="M0,22 L164,22 L164,114.444444 C164,115.387436 163.62438,116.291806 162.955772,116.958602 C162.287164,117.625398 161.380337,118 160.434783,118 L3.5652175,118 C2.61966301,118 1.71283596,117.625398 1.04422797,116.958602 C0.375619982,116.291806 -5.1940867e-08,115.387436 0,114.444444 L0,22 Z"/>
    <path fill="#F9FAFF" d="M12.0000001 7C14.6666667 7 16 8.33333337 16 11.0000001 16 13.6666667 14.6666667 15 12.0000001 15 9.33333352 15 8.00000015 13.6666667 8 11.0000001 8 8.33333352 9.33333337 7.00000015 12.0000001 7zM25.9999999 7C28.6666665 7 29.9999999 8.33333337 30 11.0000001 30 13.6666667 28.6666666 15 25.9999999 15 23.3333333 15 22 13.6666667 22 11.0000001 22 8.33333352 23.3333333 7.00000015 25.9999999 7zM39.6666668 7L76.3333332 7C78.7777776 7 79.9999999 8.33333337 80 11.0000001 80 13.6666667 78.7777777 15 76.3333332 15L39.6666668 15C37.2222224 15 36.0000001 13.6666667 36 11.0000001 36 8.33333352 37.2222223 7.00000015 39.6666668 7z"/>
    <g transform="translate(15 31)">
      <rect width="80" height="10" x="22" y="48" fill="#DEE0ED" rx="5"/>
      <rect width="80" height="10" x="22" y="66" fill="#DEE0ED" rx="5"/>
      <rect width="50" height="10" fill="#DEE0ED" rx="5"/>
      <g transform="translate(22 18)">
        <rect width="98" height="22" fill="#6776C4" rx="11"/>
        <path fill="#FFBA1C" d="M13,11 C12.9999999,12.7863279 13.9529946,14.436963 15.5,15.330127 C17.0470054,16.223291 18.9529946,16.223291 20.5,15.330127 C22.0470054,14.436963 23.0000001,12.7863279 23,11 C23.0000001,9.21367207 22.0470054,7.56303697 20.5,6.66987299 C18.9529946,5.776709 17.0470054,5.776709 15.5,6.66987299 C13.9529946,7.56303697 12.9999999,9.21367207 13,11 Z"/>
        <path fill="#FFF" d="M28.8181818 6L85.181818 6C86.3939392 6 86.9999999 6.50000003 87 7.50000008 87 8.50000003 86.3939393 9 85.181818 9L28.8181818 9C27.6060606 9 27 8.50000003 27 7.50000008 27 6.50000014 27.6060606 6.00000011 28.8181818 6zM27.9090909 13L56.090909 13C56.6969696 13 56.9999999 13.5 57 14.5000001 57 15.5 56.6969697 16 56.090909 16L27.9090909 16C27.3030303 16 27 15.5 27 14.5000001 27 13.5000001 27.3030303 13.0000001 27.9090909 13z"/>
      </g>
      <path stroke="#DEE0ED" stroke-linecap="square" stroke-width="2" d="M9,10 L9,67.0128866 C9,69.2220256 10.790861,71.0128866 13,71.0128866 L21,71.0128866"/>
      <path stroke="#DEE0ED" stroke-linecap="square" stroke-width="2" d="M9,13 L9,49.0128866 C9,51.2220256 10.790861,53.0128866 13,53.0128866 L21,53.0128866"/>
      <path stroke="#DEE0ED" stroke-linecap="square" stroke-width="2" d="M9,13 L9,26.0128866 C9,28.2220256 10.790861,30.0128866 13,30.0128866 L21,30.0128866"/>
    </g>
    <g fill-rule="nonzero" transform="translate(129 78)">
      <path fill="#2A2E76" d="M18.0834054,21.9952438 L21.6207829,41.0750661 C21.6888823,41.5447396 22.0025311,41.945035 22.4473312,42.1299515 C22.8921314,42.3148679 23.4030519,42.25737 23.7937432,41.9784292 L28.5944697,38.6230806 L35.5176227,48.4806579 C35.7296716,48.7865925 36.0584926,48.9954789 36.4295331,49.0599572 C36.8005736,49.1244355 37.1824019,49.0390434 37.4884472,48.8231417 L38.0948548,48.3714602 L38.8023302,47.8850339 C39.1158914,47.6714464 39.3296259,47.3437068 39.396048,46.9746294 C39.4624702,46.605552 39.3760789,46.2257033 39.156068,45.9194747 L32.2329151,36.0618974 L36.9831076,32.7412936 C37.3852485,32.4652545 37.616246,32.0067954 37.595779,31.5253285 C37.5753121,31.0438616 37.3062087,30.6059122 36.8820396,30.3637611 L20.1552979,20.5210744 C19.6770884,20.2449295 19.0778026,20.2730359 18.6285564,20.5926785 C18.1793102,20.9123211 17.9653243,21.4628644 18.0834054,21.9952438 Z"/>
      <path fill="#2A2E76" d="M15.3812195,27.6139896 C15.2647901,27.6139896 15.1483607,27.6216241 15.0319313,27.6216241 C8.27902552,27.6216241 2.76803351,22.1094724 2.76803351,15.3338012 C2.76803351,8.55813001 8.27902552,3.04216109 15.0319313,3.04216109 C21.8236468,3.04216109 27.3346389,8.55813005 27.3346389,15.3338012 C27.3325188,16.8727506 27.0431149,18.3982362 26.4808232,19.8343738 L28.8482212,21.2238636 C29.645711,19.3594088 30.0548173,17.3565378 30.0513251,15.3338012 C30.0513251,7.06175647 23.2984194,0.331892606 15.0319313,0.331892606 C6.76544322,0.331892606 0.0513472671,7.06175647 0.0513472671,15.3338012 C0.0513472671,23.605846 6.76544322,30.3318926 15.0319313,30.3318926 C15.3035999,30.3318926 15.5752685,30.324258 15.8469371,30.3089889 L15.3812195,27.6139896 Z"/>
      <path fill="#FF9915" d="M17.2374658,14.5116538 L22.6557759,17.7520211 C23.0138587,16.61837 23.1306685,15.4224572 22.9987069,14.2410523 C22.4182958,10.0370289 18.6530337,7.01676577 14.4180736,7.35819262 C10.1831134,7.69961947 6.95155879,11.2839732 7.05370298,15.5265549 C7.15584716,19.7691367 10.55616,23.1941918 14.8026556,23.3318926 L13.6709832,17.056678 C13.4828555,16.1297965 13.8577681,15.1790478 14.6281893,14.6292791 C15.3986105,14.0795104 16.4205959,14.0334396 17.2374658,14.5116538 Z"/>
    </g>
  </g>
</svg>
