<?xml version="1.0" encoding="UTF-8"?>
<svg width="617px" height="474px" viewBox="0 0 617 474" version="1.1" xmlns="http://www.w3.org/2000/svg" xmlns:xlink="http://www.w3.org/1999/xlink">
    <!-- Generator: Sketch 58 (84663) - https://sketch.com -->
    <title>登录失效</title>
    <desc>Created with Sketch.</desc>
    <defs>
        <polygon id="path-1" points="0.755457263 0.67498152 88.3305874 0.67498152 88.3305874 137.641286 0.755457263 137.641286"></polygon>
        <linearGradient x1="53.2311238%" y1="93.4904814%" x2="53.2311238%" y2="0%" id="linearGradient-3">
            <stop stop-color="#A1B7FE" stop-opacity="0.05" offset="0%"></stop>
            <stop stop-color="#A1B7FE" stop-opacity="0.6" offset="100%"></stop>
        </linearGradient>
        <path d="M5.0985,0.419166667 C2.60535789,0.419166667 0.563518421,2.50916667 0.563518421,5.065 L0.563518421,5.065 C0.563518421,7.62083333 2.60535789,9.71166667 5.0985,9.71166667 L5.0985,9.71166667 L613.016968,9.71166667 C615.510924,9.71166667 617.551137,7.62083333 617.551137,5.065 L617.551137,5.065 C617.551137,2.50916667 615.510924,0.419166667 613.016968,0.419166667 L613.016968,0.419166667" id="path-4"></path>
        <path d="M5.0985,0.419166667 C2.60535789,0.419166667 0.563518421,2.50916667 0.563518421,5.065 L0.563518421,5.065 C0.563518421,7.62083333 2.60535789,9.71166667 5.0985,9.71166667 L5.0985,9.71166667 L613.016968,9.71166667 C615.510924,9.71166667 617.551137,7.62083333 617.551137,5.065 L617.551137,5.065 C617.551137,2.50916667 615.510924,0.419166667 613.016968,0.419166667 L613.016968,0.419166667 L5.0985,0.419166667 Z" id="path-6"></path>
        <path d="M0.750204082,31.3640698 L0.750204082,55.9755814 L32.6987755,55.9755814 L32.6987755,38.4666279 C32.9632653,36.6686047 33.9183673,35.4265116 35.3771429,34.5913953 L35.3771429,34.5913953 L58.0359184,34.5913953 L22.8946939,0.372790698 C10.4236735,6.77372093 2.34530612,16.695814 0.750204082,31.3640698" id="path-8"></path>
        <path d="M79.2416327,59.1621465 C84.3053061,61.4404023 86.1053061,65.698193 86.4816327,70.8212162 L86.4816327,70.8212162 L88.1681633,70.8212162 L88.1681633,83.4594721 L119.792653,83.4594721 L119.792653,64.2241232 C118.198367,48.1534256 104.54449,40.8449372 86.8677551,36.4585418 L86.8677551,36.4585418 L79.2416327,59.1621465 Z" id="path-10"></path>
    </defs>
    <g id="缺省页" stroke="none" stroke-width="1" fill="none" fill-rule="evenodd">
        <g id="登录失效" transform="translate(-412.000000, -107.000000)">
            <g id="编组-18" transform="translate(384.000000, 107.000000)">
                <g id="登录失效" transform="translate(27.000000, 0.000000)">
                    <g id="编组-2" transform="translate(304.000000, 0.000000)">
                        <g id="编组" transform="translate(111.212868, 0.000000)">
                            <mask id="mask-2" fill="white">
                                <use xlink:href="#path-1"></use>
                            </mask>
                            <g id="Clip-52"></g>
                            <path d="M87.5765087,130.218935 C83.6903451,124.053614 80.3543557,117.178259 75.5791367,111.495534 C70.3114427,105.228315 63.1413003,100.983594 55.2787673,98.8502283 C52.2540285,98.0285117 49.1423346,97.5695569 46.0217013,97.4603207 L46.0217013,0.674655441 L42.8750628,0.674655441 L42.8750628,97.4676575 C37.369258,97.6934665 31.9105879,99.011637 26.916762,101.407495 C21.9058702,103.812321 17.4272739,107.271193 13.8117277,111.49961 C9.76628179,116.232633 6.96665119,121.839545 3.64366438,127.069021 C2.32714723,129.141247 0.303611609,131.101791 0.845659103,133.765033 C1.30075145,136.001929 3.30234512,137.641286 5.5769942,137.641286 L83.5001815,137.641286 C87.29939,137.641286 89.6065456,133.440586 87.5765087,130.218935" id="Fill-51" fill="#0E1D80" mask="url(#mask-2)"></path>
                        </g>
                        <polygon id="Stroke-53" fill="url(#linearGradient-3)" points="118.986332 137.641693 -7.95807864e-13 396.45064 307.688749 395.78218 190.714575 137.641693"></polygon>
                    </g>
                    <path d="M613.465735,405 L5.53426539,405 C3.04025679,405 1,402.974354 1,400.5 C1,398.024032 3.04025679,396 5.53426539,396 L613.465735,396 C615.959743,396 618,398.024032 618,400.5 C618,402.974354 615.959743,405 613.465735,405" id="Fill-3" fill="#0E1D80"></path>
                    <g id="编组" transform="translate(0.000000, 395.000000)">
                        <g>
                            <mask id="mask-5" fill="white">
                                <use xlink:href="#path-4"></use>
                            </mask>
                            <g id="Clip-6"></g>
                            <path d="M194.619096,0.415333333 C192.874873,3.0195 193.292836,6.54783333 193.239981,9.54783333 C193.239167,9.602 193.237541,9.657 193.236728,9.712 C193.229409,10.137 192.934233,11.0986667 192.291838,11.0578333 C191.984465,11.0378333 191.581138,10.6928333 191.412815,10.4403333 C191.111946,9.99116667 191.035509,9.42283333 191.038762,8.87783333 C190.867186,8.89866667 190.781804,8.67366667 190.758223,8.4995 C190.412631,5.91866667 190.915975,3.15366667 192.478865,1.10116667 C192.817138,0.657 193.22697,0.232833333 193.754709,0.077 C194.226341,-0.0621666667 194.728873,0.0286666667 195.219207,0.012" id="Fill-5" fill="#0A1459" mask="url(#mask-5)"></path>
                        </g>
                        <mask id="mask-7" fill="white">
                            <use xlink:href="#path-6"></use>
                        </mask>
                        <g id="Clip-8"></g>
                        <polygon id="Fill-7" fill="#0A1459" mask="url(#mask-7)" points="158 10.2933333 159.762926 10.2933333 159.762926 1 158 1"></polygon>
                        <polygon id="Fill-9" fill="#0A1459" mask="url(#mask-7)" points="246 10.2933333 247.685676 10.2933333 247.685676 1 246 1"></polygon>
                        <polygon id="Fill-10" fill="#0A1459" mask="url(#mask-7)" points="279 10.2933333 281.004434 10.2933333 281.004434 1 279 1"></polygon>
                        <path d="M198.724816,1 C196.606539,2.50083333 195.846237,3.68 195.634003,5.26416667 L195.634003,10.2966667 L192,10.2966667 L192,5.08 C192.226871,2.99666667 193.256329,1.69333333 194.667971,1 L198.724816,1 Z" id="Fill-11" fill="#0A1459" mask="url(#mask-7)"></path>
                        <path d="M138,1 L141.822655,1 C143.833595,3.57666667 145.237105,6.55083333 146.379592,10.1833333 L143.138345,10.1833333 C141.711253,6.61666667 139.83855,3.2925 138,1" id="Fill-12" fill="#0A1459" mask="url(#mask-7)"></path>
                    </g>
                    <path d="M257.071838,396 L390.928162,396 C392.068363,396 393,395.097171 393,393.993976 L393,392.006024 C393,390.902829 392.068363,390 390.928162,390 L257.071838,390 C255.932449,390 255,390.902829 255,392.006024 L255,393.993976 C255,395.097171 255.932449,396 257.071838,396" id="Fill-13" fill="#5266D4"></path>
                    <g id="编组-14" transform="translate(159.000000, 325.400000)">
                        <g id="编组" transform="translate(0.000000, 36.015751)">
                            <mask id="mask-9" fill="white">
                                <use xlink:href="#path-8"></use>
                            </mask>
                            <g id="Clip-18"></g>
                            <path d="M21.4162449,9.68262791 C22.1297143,13.740186 24.1844082,18.2779767 26.319102,21.7844884 C28.6831837,25.6670465 31.1305306,29.6285581 34.5599184,32.6800698 C36.2366531,34.1720465 38.3762449,35.790186 40.5648163,36.4332093 C43.0374694,37.1592558 46.1158367,36.8898372 48.6954286,37.0493721 C50.568898,37.1657674 52.4733878,37.2837907 54.3370612,36.9915814 C55.2472653,36.8475116 56.3786939,36.7669302 56.7272653,35.9375116 C56.9223673,35.475186 56.7672653,34.5611163 56.5754286,34.1069302 C56.1003265,32.9796047 53.4619592,32.7232093 52.3509388,32.3634419 C50.6848163,31.8246047 49.0301224,31.2458837 47.4121633,30.575186 C44.2227755,29.2533256 41.1542041,27.5603023 38.6129796,25.2014651 C34.3305306,21.2269302 31.3231837,15.5626279 28.6219592,10.4566977 C27.4750204,8.28913953 26.5044082,6.02227907 25.839102,3.661 C25.3950204,2.08355814 24.9762449,-1.83155814 22.0782857,-0.222372093 C20.6244082,0.584255814 20.9019592,6.75890698 21.4162449,9.68262791" id="Fill-17" fill="#5266D4" mask="url(#mask-9)"></path>
                        </g>
                        <path d="M22.8946122,36.388786 C10.4235918,42.7897162 2.34522449,52.7118093 0.750122449,67.3792511 L0.750122449,91.9915767 L32.6986939,91.9915767 L32.6986939,74.4826232 C32.9631837,72.683786 33.9182857,71.441693 35.3778776,70.6073907 L58.0358367,70.6073907 L22.8946122,36.388786 Z" id="Fill-15" fill="#7589F2"></path>
                        <path d="M0.960645619,91.9896232 C0.964734694,88.0093907 4.49289796,84.5224139 8.26106122,83.0776465 C12.845551,81.318693 18.3075918,81.2796232 23.0096327,82.6088093 C28.083102,84.0413674 34.6888163,88.3854372 32.0316735,94.4599721 C30.3157551,98.3824139 26.0463673,100.5166 22.0790204,101.464042 C17.290449,102.606019 11.7386122,102.361833 7.24636735,100.250437 C4.99983673,99.1955535 3.00310204,97.5774139 1.83004082,95.3634604 C1.22595918,94.2222976 0.959020408,93.0876465 0.960645619,91.9896232" id="Fill-19" fill="#0E1D80"></path>
                        <path d="M119.792327,83.4589837 L119.792327,64.2244488 C118.198041,48.1537511 104.544163,40.8452628 86.8674286,36.4580535 L79.2413061,59.1624721 C84.3049796,61.4399139 86.1049796,65.6985186 86.4813061,70.8215418 L88.1678367,70.8215418 L88.1678367,83.4589837 L119.792327,83.4589837 Z" id="Fill-21" fill="#5266D4"></path>
                        <mask id="mask-11" fill="white">
                            <use xlink:href="#path-10"></use>
                        </mask>
                        <g id="蒙版"></g>
                        <path d="M119.792327,83.6776116 L88.1678367,83.6776116 L88.1678367,70.8212162 C92.8690612,59.0384256 115.064163,59.3526116 119.792327,70.8212162 L119.792327,83.6776116 Z" id="Fill-23" fill="#7589F2"></path>
                        <path d="M47.7698776,0.36426276 C43.6857959,0.964146481 39.7543673,2.33240229 36.3249796,4.66437904 C28.6988571,9.85089067 24.1429388,18.7913558 23.0482449,27.7936814 C21.391102,41.4200767 26.5576327,56.3317046 37.9657959,64.4989139 C51.3674286,74.0937976 69.351102,72.4365883 79.240898,59.1626349 C86.1453878,49.8965883 88.3617143,37.2762395 85.953551,26.0803093 C83.4115102,14.2576349 75.2425306,4.54635578 63.3372245,1.39228602 C58.3796735,0.0785650854 52.9519184,-0.397597705 47.7698776,0.36426276" id="Fill-25" fill="#0E1D80"></path>
                        <path d="M88.3577959,83.4764837 C88.3986122,82.8831116 88.5414694,82.2921814 88.8084082,81.7175302 C89.7275918,79.7379953 91.1398367,78.0246232 92.8884082,76.7174139 C96.3814694,74.107879 100.946367,73.1750883 105.241878,73.4819488 C106.242694,73.5535767 107.238612,73.6935767 108.219837,73.9043907 C111.348,74.5750883 114.525143,76.0100883 116.839429,78.3029953 C119.488408,80.9255535 120.490041,84.0055535 118.458204,87.3329953 C117.733306,88.5189256 116.75698,89.5355535 115.650857,90.3747395 C113.228,92.2110186 110.224735,93.217879 107.238612,93.6598558 C101.522694,94.5063674 94.2786122,93.4881116 90.3708571,88.7948558 C89.1586122,87.338693 88.2239184,85.3990418 88.3577959,83.4764837" id="Fill-27" fill="#0E1D80"></path>
                        <path d="M9.22995918,89.0120186 C9.02179592,93.1387628 9.1997551,97.2891116 8.70261224,101.399577 C8.25526531,105.090856 6.92710204,108.656786 6.29608163,112.333414 C5.37608163,117.690042 4.99404082,123.485391 6.77934694,128.714228 C8.22342857,132.94353 11.1956735,136.285623 15.1826122,138.305042 C17.4879184,139.472251 20.2013878,140.316321 22.7687347,139.497484 C24.7605714,138.8626 27.5556735,136.285623 26.6683265,134.029344 C24.9589388,129.682833 22.6462857,125.065274 24.0601633,120.297949 C24.9613878,118.60574 25.9401633,118.691205 26.9858776,120.297949 C28.9891429,123.663646 27.8242449,130.0776 31.4258776,129.854577 C34.4217959,129.2376 34.3181224,122.496437 31.4250612,115.669809 C30.5091429,113.885623 29.5932245,112.100623 28.6773061,110.315623 C27.9581224,108.914809 27.2389388,107.513181 26.5197551,106.113181 C25.1989388,103.538646 24.9042449,101.730856 24.9573061,98.8706232 C25.0185306,95.584693 25.0985306,92.2987628 25.1703673,89.0120186 C21.5124082,83.1474837 12.9213878,83.4706232 9.22995918,89.0120186" id="Fill-29" fill="#FFE4A8"></path>
                        <path d="M111.654204,79.3558442 C111.846041,83.2107279 111.681959,87.0875883 112.139102,90.9270069 C112.550531,94.3749139 113.771755,97.7056116 114.35298,101.140495 C115.198694,106.143867 115.549714,111.557472 113.908082,116.442007 C112.579918,120.391309 109.846041,123.513635 106.179102,125.399565 C104.058286,126.490263 101.562776,127.278984 99.2011429,126.514681 C97.3684898,125.921309 94.7986939,123.513635 95.6150204,121.406309 C97.1872653,117.346309 99.3137959,113.03317 98.0133878,108.579216 C97.1848163,106.999333 96.2844082,107.0791 95.3219592,108.579216 C93.4795102,111.724333 94.5513469,117.71503 91.2386939,117.506658 C88.4835918,116.929565 88.5782857,110.632821 91.2386939,104.257123 C92.0811429,102.590146 92.9244082,100.922356 93.7668571,99.255379 C94.4280816,97.9473558 95.0893061,96.6377046 95.7513469,95.3296814 C96.9668571,92.9252628 97.2370612,91.2363093 97.1880816,88.5649139 C97.1317551,85.4954953 97.0582857,82.4252628 96.9921633,79.3558442 C100.357061,73.8779372 108.258286,74.1799139 111.654204,79.3558442" id="Fill-31" fill="#FFE4A8"></path>
                    </g>
                    <g id="编组-17" transform="translate(226.000000, 253.000000)">
                        <path d="M186.325245,120.458297 L9.64222407,120.458297 C4.33883817,120.458297 4.54747351e-13,116.09884 4.54747351e-13,110.770251 L4.54747351e-13,9.68804571 C4.54747351e-13,4.35945714 4.33883817,-2.84217094e-14 9.64222407,-2.84217094e-14 L186.325245,-2.84217094e-14 C191.628631,-2.84217094e-14 195.967469,4.35945714 195.967469,9.68804571 L195.967469,110.770251 C195.967469,116.09884 191.628631,120.458297 186.325245,120.458297" id="Fill-33" fill="#B2C1F2"></path>
                        <path d="M122.698196,69.9677754 L72.8946772,69.9677754 C71.7902456,69.9677754 70.8866938,69.0607469 70.8866938,67.9510669 C70.8866938,66.8413869 71.7902456,65.9335411 72.8946772,65.9335411 L122.698196,65.9335411 C123.801814,65.9335411 124.705366,66.8413869 124.705366,67.9510669 C124.705366,69.0607469 123.801814,69.9677754 122.698196,69.9677754" id="Fill-35" fill="#5266D4"></path>
                        <polygon id="Fill-37" fill="#BBCBFF" points="74.7918108 67.9512303 120.731446 67.9512303 125.3224 142.766379 70.0691054 142.766379"></polygon>
                        <polygon id="Fill-39" fill="#5266D4" points="126.355914 120.458297 123.95349 120.458297 120.854901 69.9678571 121.963399 69.9678571"></polygon>
                        <path d="M108.631007,104.540763 C108.631007,110.567191 103.768418,115.452889 97.7704929,115.452889 C91.7725676,115.452889 86.9099784,110.567191 86.9099784,104.540763 C86.9099784,98.5143343 91.7725676,93.6286371 97.7704929,93.6286371 C103.768418,93.6286371 108.631007,98.5143343 108.631007,104.540763" id="Fill-41" fill="#5266D4"></path>
                    </g>
                    <g id="编组-16" transform="translate(161.000000, 192.000000)" stroke="#F49130" stroke-linecap="round" stroke-linejoin="round">
                        <polyline id="Stroke-43" stroke-width="2.5" points="32.8417437 115.062418 38.3487322 116.826307 30.5566862 122.410458 36.8373299 124.364706"></polyline>
                        <path d="M5.40012479e-13,93.740768 L9.5042069,89.4360294 C7.25016092,95.0822712 5.70448276,100.658252 4.84268966,106.168056 L14.9344828,101.772631" id="Stroke-45" stroke-width="4"></path>
                        <path d="M6.22751609,39.0500817 L22.7860218,42.1848856 C14.5949069,47.1571078 7.26395287,52.9136438 2.40657356,59.263317 L19.3804701,62.1072712" id="Stroke-47" stroke-width="5"></path>
                        <path d="M37.2489667,11.9297386 L56.8710816,-2.84217094e-14 C52.721254,12.4035948 50.1195529,24.8047386 50.5561621,35.5506536 L70.355369,22.9534314" id="Stroke-49" stroke-width="6.5"></path>
                    </g>
                    <g id="编组-4" transform="translate(442.000000, 361.000000)">
                        <path d="M67.2754871,14.5553727 L27.0712165,14.5553727 C23.9410518,14.5553727 21.3799341,11.9748273 21.3799341,8.8191 L21.3799341,8.62764545 C21.3799341,5.47273636 23.9410518,2.89137273 27.0712165,2.89137273 L67.2754871,2.89137273 L67.2754871,14.5553727 Z" id="Fill-55" fill="#BBCBFF"></path>
                        <path d="M27.1665176,2.89145455 L68.8206,2.89145455 L68.8206,2.84217094e-14 L8.61850588,2.84217094e-14 C3.87861176,2.84217094e-14 2.27373675e-13,3.90845455 2.27373675e-13,8.68663636 L2.27373675e-13,8.76027273 C2.27373675e-13,13.5384545 3.87861176,17.4477273 8.61850588,17.4477273 L68.8206,17.4477273 L68.8206,14.5554545 L27.1665176,14.5554545 C23.9844,14.5554545 21.3802588,11.9315455 21.3802588,8.72345455 C21.3802588,5.51618182 23.9844,2.89145455 27.1665176,2.89145455" id="Fill-57" fill="#5266D4"></path>
                        <path d="M16.78356,5.35164545 L9.57508941,5.35164545 C9.16596,5.35164545 8.83151294,5.01455455 8.83151294,4.60219091 C8.83151294,4.18982727 9.16596,3.85273636 9.57508941,3.85273636 L16.78356,3.85273636 C17.1926894,3.85273636 17.5271365,4.18982727 17.5271365,4.60219091 C17.5271365,5.01455455 17.1926894,5.35164545 16.78356,5.35164545" id="Fill-59" fill="#BBCBFF"></path>
                    </g>
                    <g id="编组-3" transform="translate(429.000000, 378.300000)">
                        <path d="M66.4996024,14.7184364 L8.53554353,14.7184364 C5.46220235,14.7184364 2.94654353,12.1837091 2.94654353,9.08607273 L2.94654353,8.66470909 C2.94654353,5.56543636 5.46220235,3.03152727 8.53554353,3.03152727 L66.4996024,3.03152727 L66.4996024,14.7184364 Z" id="Fill-61" fill="#FFFFFF"></path>
                        <path d="M8.61850588,3.03136364 L68.4025412,3.03136364 L68.4025412,-2.84217094e-14 L8.75082353,-2.84217094e-14 C3.93787059,-2.84217094e-14 5.1159077e-13,3.969 5.1159077e-13,8.82 L5.1159077e-13,8.93045455 C5.1159077e-13,13.7814545 3.93787059,17.7496364 8.75082353,17.7496364 L68.4025412,17.7496364 L68.4025412,14.7182727 L8.61850588,14.7182727 C5.49889412,14.7182727 2.94670588,12.1467273 2.94670588,9.00245455 L2.94670588,8.74718182 C2.94670588,5.60372727 5.49889412,3.03136364 8.61850588,3.03136364" id="Fill-63" fill="#F49130"></path>
                    </g>
                    <g id="编组-12" transform="translate(24.000000, 291.500000)">
                        <path d="M27.2359459,104.530349 L2.17135135,104.530349 C0.977027027,104.530349 1.17239551e-13,103.549535 1.17239551e-13,102.349767 L1.17239551e-13,2.17976744 C1.17239551e-13,0.980813953 0.977027027,0 2.17135135,0 L27.2359459,0 C28.4302703,0 29.4072973,0.980813953 29.4072973,2.17976744 L29.4072973,102.349767 C29.4072973,103.549535 28.4302703,104.530349 27.2359459,104.530349" id="Fill-65" fill="#F49130"></path>
                        <path d="M14.9095135,49.2331977 L14.9095135,49.2331977 C11.0605946,49.2331977 7.91302703,46.0718023 7.91302703,42.2087791 L7.91302703,20.878314 C7.91302703,17.0152907 11.0605946,13.8547093 14.9095135,13.8547093 L14.9095135,13.8547093 C18.7576216,13.8547093 21.906,17.0152907 21.906,20.878314 L21.906,42.2087791 C21.906,46.0718023 18.7576216,49.2331977 14.9095135,49.2331977" id="Fill-67" fill="#FFFFFF"></path>
                        <path d="M21.9059189,89.1685233 C21.9059189,93.0478256 18.7737568,96.1929419 14.9094324,96.1929419 C11.0451081,96.1929419 7.91294595,93.0478256 7.91294595,89.1685233 C7.91294595,85.2892209 11.0451081,82.1449186 14.9094324,82.1449186 C18.7737568,82.1449186 21.9059189,85.2892209 21.9059189,89.1685233" id="Fill-69" fill="#FFFFFF"></path>
                    </g>
                    <g id="编组-13" transform="translate(56.000000, 291.500000)">
                        <path d="M27.2359459,104.530349 L2.17135135,104.530349 C0.977027027,104.530349 1.13686838e-13,103.549535 1.13686838e-13,102.349767 L1.13686838e-13,2.17976744 C1.13686838e-13,0.980813953 0.977027027,0 2.17135135,0 L27.2359459,0 C28.4302703,0 29.4072973,0.980813953 29.4072973,2.17976744 L29.4072973,102.349767 C29.4072973,103.549535 28.4302703,104.530349 27.2359459,104.530349" id="Fill-71" fill="#5266D4"></path>
                        <path d="M14.9091081,49.2331977 L14.9091081,49.2331977 C11.061,49.2331977 7.91262162,46.0718023 7.91262162,42.2087791 L7.91262162,20.878314 C7.91262162,17.0152907 11.061,13.8547093 14.9091081,13.8547093 C18.758027,13.8547093 21.9055946,17.0152907 21.9055946,20.878314 L21.9055946,42.2087791 C21.9055946,46.0718023 18.758027,49.2331977 14.9091081,49.2331977" id="Fill-73" fill="#FFFFFF"></path>
                        <path d="M21.9059189,89.1685233 C21.9059189,93.0478256 18.7737568,96.1929419 14.9094324,96.1929419 C11.0451081,96.1929419 7.91213514,93.0478256 7.91213514,89.1685233 C7.91213514,85.2892209 11.0451081,82.1449186 14.9094324,82.1449186 C18.7737568,82.1449186 21.9059189,85.2892209 21.9059189,89.1685233" id="Fill-75" fill="#FFFFFF"></path>
                    </g>
                    <g id="编组-11" transform="translate(73.000000, 335.500000)">
                        <path d="M3.32799697,52.9028308 C31.428997,56.8435882 20.6279876,103.652535 11.2954082,137.679742 L67.5673334,123.924653 C72.5743054,96.663529 79.7074923,68.5074462 57.0582213,52.9028308 L3.32799697,52.9028308 Z" id="Fill-89" fill="#FDF4EA"></path>
                        <path d="M16.1002474,60.3181669 L1.31024743,60.3181669 C-1.02980864,56.9228769 -0.162247894,53.7635751 3.3283222,52.9029124 C8.68492033,53.4818592 12.8495372,56.1128414 16.1002474,60.3181669" id="Fill-91" fill="#CCCCCC"></path>
                        <path d="M28.1504792,71.9892923 L56.7287596,70.8118012" id="Stroke-93" stroke="#F49130" stroke-width="2"></path>
                        <path d="M27.2837315,84.4618793 L68.9185166,82.6335834" id="Stroke-95" stroke="#F49130" stroke-width="2"></path>
                        <path d="M26.8569437,95.2917763 L68.4697755,93.014368" id="Stroke-97" stroke="#F49130" stroke-width="2"></path>
                        <path d="M25.7806643,107.966954 L65.5518605,103.844102" id="Stroke-99" stroke="#F49130" stroke-width="2"></path>
                    </g>
                    <g id="编组-15" transform="translate(221.000000, 381.700000)">
                        <path d="M24.3830645,14.2355833 L2.84217094e-13,14.2355833 L2.84217094e-13,13.83725 C2.84217094e-13,6.94975 5.40322581,1.36641667 12.0685484,1.36641667 L12.3145161,1.36641667 C18.9798387,1.36641667 24.3830645,6.94975 24.3830645,13.83725 L24.3830645,14.2355833 Z" id="Fill-101" fill="#D8D8D8"></path>
                        <path d="M12.191371,7.80083333 L12.191371,7.80083333 C11.3155645,7.80083333 10.598629,7.06 10.598629,6.155 L10.598629,1.645 C10.598629,0.74 11.3155645,5.68434189e-14 12.191371,5.68434189e-14 C13.0671774,5.68434189e-14 13.7841129,0.74 13.7841129,1.645 L13.7841129,6.155 C13.7841129,7.06 13.0671774,7.80083333 12.191371,7.80083333" id="Fill-103" fill="#979797"></path>
                    </g>
                    <g id="编组-8" transform="translate(525.000000, 329.700000)">
                        <g id="编组-7" transform="translate(0.000000, 4.139997)">
                            <path d="M17.3903185,35.517655 L18.1723185,35.4040818 C17.8149971,27.3967648 15.8977828,19.9548623 12.4231399,13.0808257 C14.7880328,20.6085209 16.4719613,28.0888257 17.3903185,35.517655" id="Fill-107" fill="#0E1D80"></path>
                            <path d="M7.70682563,12.7074233 C11.8763971,18.0617038 16.1913613,14.2541428 13.3590756,10.0298745 C10.7239328,9.14416721 8.92664706,10.2414965 7.70682563,12.7074233" id="Fill-109" fill="#0E1D80"></path>
                            <path d="M15.7739113,22.6598648 C15.7895185,18.5124014 18.1782328,16.4607306 21.5329471,15.2637184 C21.1550899,19.5786818 19.5040185,22.3665355 15.7739113,22.6598648" id="Fill-111" fill="#0E1D80"></path>
                            <path d="M18.1724006,35.404327 C23.8090435,34.6101318 24.9237221,32.3272294 22.9613292,29.0303392 C19.8793292,29.8155465 18.3095792,31.9636318 18.1724006,35.404327" id="Fill-113" fill="#0E1D80"></path>
                            <path d="M16.8717506,30.1164745 C13.5293578,31.9058648 10.8227506,30.7325477 8.75275063,26.5965233 C11.1981435,25.9976087 13.9047506,27.1709257 16.8717506,30.1164745" id="Fill-115" fill="#0E1D80"></path>
                            <path d="M7.63421135,12.6244087 C6.40288992,13.6612745 5.14938992,14.5911038 3.53117563,15.0568355 C3.12949706,15.1720428 2.70974706,15.2611038 2.2941042,15.2169818 C-0.700002939,14.9040428 -0.827324367,8.96392087 2.28999706,8.5276038 C3.32171135,8.38379892 4.34767563,8.62156721 5.37938992,8.61666477 C6.77992563,8.60849404 5.52313992,6.60503063 5.21346135,6.08046965 C4.68692563,5.18822575 3.99692563,4.20855502 4.14149706,3.11857941 C4.29674706,1.93872575 5.3301042,0.979481846 6.36181849,0.498225748 C7.6071042,-0.0835303495 9.57278278,-0.322932789 10.6554256,0.721286724 C11.0669613,1.11756721 11.2953185,1.67154282 11.3955328,2.23205502 C11.5918542,3.33020136 11.2673899,4.51822575 11.8736042,5.53057941 C12.3582471,6.34111599 13.2182828,3.16515258 13.3012471,2.93146965 C14.0035685,0.949250138 16.0234613,0.230225748 17.9390328,1.13881111 C19.8472113,2.04331111 20.5708899,3.96996965 20.1667471,5.96771355 C19.8176399,7.69418916 18.5501756,10.2687867 16.5754613,10.4771404 C15.8427471,10.5547623 15.1083899,10.394616 14.3847113,10.2532623 C12.3549613,9.85616477 10.1486042,10.4648843 8.56242563,11.8285794 C8.25028278,12.0965794 7.94306849,12.3637623 7.63421135,12.6244087" id="Fill-117" fill="#F49130"></path>
                            <path d="M7.63421135,12.6244087 C7.63421135,12.6244087 5.73013992,14.0526526 5.72603278,14.0559209 C5.3876042,14.3100306 4.05113992,12.9553233 3.87206849,12.7044818 C3.39481849,12.0312136 3.26256849,11.0948477 3.63878278,10.3464087 C4.10781849,9.41494526 5.09024706,9.27604282 6.04146135,9.39043307 C6.1638542,9.40514038 6.29281849,9.42393307 6.40863992,9.37981111 C6.82756849,9.22211599 6.53678278,8.14848185 6.52117563,7.81429892 C6.45956849,6.50779892 6.86617563,4.99131111 8.44003278,4.90878672 C9.05363992,4.87692087 9.65903278,5.09671355 10.1789971,5.42190867 C10.6636399,5.72504282 11.3051756,6.64588428 11.8703185,6.65487209 C12.3590685,6.66385989 12.8305685,6.15727453 13.2954971,6.03798185 C16.2551042,5.28300624 17.3032471,8.70654282 15.1757471,10.4019697 C12.3073185,9.56446965 9.85617563,10.5833599 7.63421135,12.6244087" id="Fill-119" fill="#FFE4A8"></path>
                        </g>
                        <g id="编组-6" transform="translate(15.154202, 10.943815)">
                            <path d="M5.77409161,24.2119269 L6.28584161,24.3116098 C7.83259161,19.2522928 8.28355589,14.2035976 7.64037732,9.16797569 C7.44898446,14.3678293 6.84359161,19.3903781 5.77409161,24.2119269" id="Fill-121" fill="#0E1D80"></path>
                            <path d="M4.78903446,7.90478056 C6.20024875,12.1462074 9.72499875,10.7212318 8.89699875,7.47500008 C7.45292732,6.34825617 6.09264161,6.63750008 4.78903446,7.90478056" id="Fill-123" fill="#0E1D80"></path>
                            <path d="M7.60908089,15.859233 C8.53483089,13.2830013 10.4742237,12.5288428 12.8259737,12.5174037 C11.6373666,15.1189647 9.99450946,16.4916476 7.60908089,15.859233" id="Fill-125" fill="#0E1D80"></path>
                            <path d="M6.28592375,24.3116915 C9.96756661,25.0503257 11.1652095,23.8737403 10.6723523,21.3939232 C8.58181661,21.2084476 7.13117375,22.2020086 6.28592375,24.3116915" id="Fill-127" fill="#0E1D80"></path>
                            <path d="M6.64447732,20.7385489 C4.17033446,21.1209391 2.74597732,19.7997318 2.37140589,16.7732928 C4.02494161,16.9358903 5.44929875,18.2570976 6.64447732,20.7385489" id="Fill-129" fill="#0E1D80"></path>
                            <path d="M4.76217375,7.83696349 C3.76742375,8.21363422 2.78170946,8.51840252 1.67278089,8.45385373 C1.39678089,8.43751227 1.11667375,8.40074398 0.866959464,8.28308544 C-0.926219108,7.43414642 0.306745178,3.71074398 2.34306661,4.12091471 C3.01663804,4.25654886 3.60149518,4.62831715 4.24549518,4.85137812 C5.11785232,5.15287812 4.77860232,3.63148788 4.70138804,3.23765861 C4.57160232,2.56765861 4.35885232,1.80696349 4.68906661,1.16065861 C5.04638804,0.460426905 5.90149518,0.090292759 6.64899518,0.0159391005 C7.55256661,-0.0739389483 8.82824518,0.207134222 9.27099518,1.09284154 C9.43938804,1.42947569 9.45910232,1.82412203 9.39831661,2.19507325 C9.27756661,2.92063422 8.81263804,3.58900008 8.96624518,4.35132934 C9.08945946,4.96086593 10.3257095,3.17310983 10.4292095,3.04646349 C11.3040309,1.96629276 12.7193523,1.96139032 13.7108166,2.94514642 C14.6973523,3.92481715 14.7219952,5.28115861 14.0295309,6.43486593 C13.4307095,7.43332934 12.072888,8.75780495 10.7988523,8.45630495 C10.3257095,8.34436593 9.90431661,8.08371959 9.48538804,7.83778056 C8.30992375,7.14735373 6.80342375,7.04358544 5.51542375,7.54608544 C5.26242375,7.64413422 5.01188804,7.74300008 4.76217375,7.83696349" id="Fill-131" fill="#F49130"></path>
                            <path d="M4.76217375,7.83696349 C4.76217375,7.83696349 3.26142375,8.31004886 3.25895946,8.31086593 C2.99199518,8.39502447 2.45970946,7.26092691 2.40385232,7.06482934 C2.25599518,6.54271959 2.38085232,5.93073178 2.78006661,5.54670739 C3.27703089,5.07035373 3.91938804,5.19863422 4.48535232,5.47725617 C4.55845946,5.51320739 4.63485232,5.55324398 4.71617375,5.55160983 C5.01188804,5.54425617 5.06856661,4.81379276 5.13181661,4.60217081 C5.38235232,3.77529276 5.97049518,2.9214513 6.96853089,3.21396349 C7.35706661,3.32753666 7.68481661,3.59717081 7.93617375,3.91256105 C8.17110232,4.20752447 8.36660232,4.92082934 8.71570946,5.04992691 C9.01799518,5.162683 9.42378089,4.95024398 9.73920946,4.97802447 C11.7467809,5.15451227 11.6424595,7.51340252 9.94456661,8.10332934 C8.34524518,6.95534154 6.59560232,7.05339032 4.76217375,7.83696349" id="Fill-133" fill="#FFE4A8"></path>
                        </g>
                        <g id="编组-5" transform="translate(20.551423, 0.000000)">
                            <path d="M6.42973109,35.4318309 L5.64855252,35.310087 C6.08473109,27.3060383 8.07340966,19.8837456 11.6154097,13.043209 C9.17658824,20.547209 7.42037395,28.0119895 6.42973109,35.4318309" id="Fill-135" fill="#0E1D80"></path>
                            <path d="M16.3350097,12.7157261 C12.1136882,18.0283358 7.83568824,14.1799212 10.708224,9.98343339 C13.3524025,9.12305534 15.1390097,10.2383602 16.3350097,12.7157261" id="Fill-137" fill="#0E1D80"></path>
                            <path d="M8.17124181,22.5892383 C8.19588466,18.4417749 5.82688466,16.3680431 2.48449181,15.138348 C2.82045609,19.4565797 4.44442038,22.2607749 8.17124181,22.5892383" id="Fill-139" fill="#0E1D80"></path>
                            <path d="M5.64879895,35.3097602 C0.0195489503,34.4624553 -1.07212962,32.1681139 0.923120379,28.8916505 C3.99608466,29.7054553 5.54529895,31.868248 5.64879895,35.3097602" id="Fill-141" fill="#0E1D80"></path>
                            <path d="M7.00128109,30.0354712 C10.3256025,31.8567273 13.0428882,30.7095566 15.1539597,26.5931419 C12.7143168,25.9705322 9.99620966,27.11852 7.00128109,30.0354712" id="Fill-143" fill="#0E1D80"></path>
                            <path d="M16.4079525,12.6327931 C17.6294168,13.681098 18.8730597,14.6240005 20.4871668,15.1036224 C20.888024,15.2237322 21.3061311,15.3160614 21.7234168,15.2768419 C24.7191668,14.9933175 24.9056311,9.05401266 21.7915954,8.58828095 C20.761524,8.43303705 19.7339168,8.66181753 18.7013811,8.64629314 C17.3008454,8.62586631 18.5781668,6.63384192 18.892774,6.11336631 C19.427524,5.22684192 20.1265597,4.25207363 19.9934882,3.16128095 C19.8489168,1.97979314 18.8254168,1.01074436 17.7986311,0.519683388 C16.5590954,-0.0743288073 14.5958811,-0.331706856 13.5025597,0.701073632 C13.0877382,1.09408583 12.8536311,1.64561022 12.7476668,2.20530534 C12.5406668,3.30100046 12.8536311,4.49229314 12.2375597,5.49974436 C11.745524,6.30456144 10.9158811,3.11961022 10.8353811,2.88511022 C10.152774,0.897171193 8.13945252,0.157719973 6.21484538,1.04832973 C4.29845252,1.93485412 3.55588109,3.85497607 3.94113109,5.85517119 C4.27380966,7.5849151 5.51580966,10.1717688 7.48805966,10.4005492 C8.21995252,10.4847078 8.95595252,10.3319151 9.68127395,10.197098 C11.7151311,9.81961022 13.9149168,10.4495736 15.4871311,11.8287931 C15.7968097,12.1000614 16.1015597,12.3696956 16.4079525,12.6327931" id="Fill-145" fill="#F49130"></path>
                            <path d="M16.4079525,12.6327931 C16.4079525,12.6327931 18.2988811,14.0798297 18.3021668,14.0822809 C18.6381311,14.339659 19.9877382,12.9988419 20.169274,12.7488175 C20.6530954,12.0812688 20.7943811,11.14572 20.4255597,10.3931956 C19.9663811,9.4576468 18.9839525,9.30975656 18.0327382,9.415159 C17.909524,9.42823217 17.7805597,9.44620778 17.6647382,9.40045168 C17.248274,9.23867119 17.5489168,8.16830534 17.5686311,7.83412241 C17.6425597,6.52762241 17.2499168,5.00786631 15.6768811,4.90981753 C15.0640954,4.8714151 14.4570597,5.08630534 13.9338097,5.40578095 C13.4458811,5.70482973 12.7953097,6.61913461 12.2301668,6.62403705 C11.7414168,6.62730534 11.2748454,6.11581753 10.8107382,5.99325656 C7.85934538,5.20804924 6.77752395,8.62259802 8.88859538,10.3384517 C11.7644168,9.5279151 14.2057025,10.5705005 16.4079525,12.6327931" id="Fill-147" fill="#FFE4A8"></path>
                        </g>
                        <path d="M24.9536221,66.2659663 L19.6480149,66.2659663 C11.3392649,66.2659663 4.54112206,59.5038688 4.54112206,51.2391736 L4.54112206,38.4887468 C4.54112206,36.5416614 6.14290778,34.9483688 8.10037206,34.9483688 L36.5012649,34.9483688 C38.4579078,34.9483688 40.0605149,36.5416614 40.0605149,38.4887468 L40.0605149,51.2391736 C40.0605149,59.5038688 33.2623721,66.2659663 24.9536221,66.2659663" id="Fill-149" fill="#D8D8D8"></path>
                    </g>
                </g>
            </g>
        </g>
    </g>
</svg>
