<svg width="88" height="76" xmlns="http://www.w3.org/2000/svg" xmlns:xlink="http://www.w3.org/1999/xlink">
  <defs>
    <rect id="b" x="0" y="0" width="80" height="48" rx="4"/>
    <filter x="-8.8%" y="-10.4%" width="117.5%" height="129.2%" filterUnits="objectBoundingBox" id="a">
      <feOffset dy="2" in="SourceAlpha" result="shadowOffsetOuter1"/>
      <feGaussianBlur stdDeviation="2" in="shadowOffsetOuter1" result="shadowBlurOuter1"/>
      <feComposite in="shadowBlurOuter1" in2="SourceAlpha" operator="out" result="shadowBlurOuter1"/>
      <feColorMatrix values="0 0 0 0 0 0 0 0 0 0 0 0 0 0 0 0 0 0 0.04 0" in="shadowBlurOuter1"/>
    </filter>
  </defs>
  <g fill="none" fill-rule="evenodd">
    <g transform="translate(4 2)">
      <use fill="#000" filter="url(#a)" xlink:href="#b"/>
      <use fill-opacity=".92" fill="#E6F7FF" xlink:href="#b"/>
      <rect stroke="#1890FF" x=".5" y=".5" width="79" height="47" rx="4"/>
    </g>
    <text font-family="PingFangSC-Regular, PingFang SC" font-size="12" fill="#000" fill-opacity=".65"
          transform="translate(4 2)">
      <tspan x="17" y="65">映射组件</tspan>
    </text>
    <g>
      <path stroke="null" id="svg_11" fill="#515151"
            d="m36.96777,24.56975c0.50528,0 0.91879,-0.41351 0.91879,-0.89504c0,-0.50528 -0.41351,-0.89612 -0.91879,-0.89612s-0.91879,0.41351 -0.91879,0.89612c0,0.48153 0.41351,0.89504 0.91879,0.89504zm-1.44567,9.22895l14.76222,0c2.44435,0 4.44281,-1.99845 4.44281,-4.44281l0,-13.8499c0,-1.80627 -1.47806,-3.28001 -3.28001,-3.28001l-16.14418,0c-1.80519,0 -3.28001,1.47482 -3.28001,3.28001l0,20.86123c0,1.80627 1.47482,3.28001 3.28001,3.28001l16.14418,0c1.2902,0 2.40981,-0.75468 2.94532,-1.84082l-18.87033,0c-0.67371,0 -1.22866,-0.55063 -1.22866,-1.22866l0,-1.55147c0.00108,-0.67371 0.55063,-1.22758 1.22866,-1.22758zm15.27074,-11.84713c0.94147,0 1.72206,0.75792 1.72206,1.69939s-0.7806,1.69939 -1.72206,1.69939c-0.96414,0 -1.72206,-0.75792 -1.72206,-1.69939s0.7806,-1.69939 1.72206,-1.69939zm-16.55877,1.69939c0,-1.49317 1.21678,-2.68728 2.73262,-2.68728c1.25133,0 2.27269,0.83458 2.59443,1.95203l5.67362,0l-1.72206,-1.67671c-0.27531,-0.25264 -0.29907,-0.7115 -0.04643,-0.98789l0.04643,-0.04643c0.27531,-0.29907 0.73525,-0.29907 1.03324,-0.02267l0.02267,0.02267l3.5143,3.4452l-3.5143,3.4452c-0.27531,0.29907 -0.73525,0.29907 -1.03324,0.02267l-0.02267,-0.02267c-0.27531,-0.25264 -0.29907,-0.7115 -0.04643,-0.98789l0.04643,-0.04643l1.72206,-1.67671l-5.67254,0c-0.3239,1.12825 -1.35929,1.95203 -2.59443,1.95203c-1.49317,0.00216 -2.7337,-1.19303 -2.7337,-2.68512z"/>
    </g>
  </g>
</svg>
