<svg width="88" height="76" xmlns="http://www.w3.org/2000/svg" xmlns:xlink="http://www.w3.org/1999/xlink">
  <defs>
    <rect id="b" x="0" y="0" width="80" height="48" rx="4"/>
    <filter x="-8.8%" y="-10.4%" width="117.5%" height="129.2%" filterUnits="objectBoundingBox" id="a">
      <feOffset dy="2" in="SourceAlpha" result="shadowOffsetOuter1"/>
      <feGaussianBlur stdDeviation="2" in="shadowOffsetOuter1" result="shadowBlurOuter1"/>
      <feComposite in="shadowBlurOuter1" in2="SourceAlpha" operator="out" result="shadowBlurOuter1"/>
      <feColorMatrix values="0 0 0 0 0 0 0 0 0 0 0 0 0 0 0 0 0 0 0.04 0" in="shadowBlurOuter1"/>
    </filter>
  </defs>
  <g fill="none" fill-rule="evenodd">
    <g transform="translate(4 2)">
      <use fill="#000" filter="url(#a)" xlink:href="#b"/>
      <use fill-opacity=".92" fill="#E6F7FF" xlink:href="#b"/>
      <rect stroke="#1890FF" x=".5" y=".5" width="79" height="47" rx="4"/>
    </g>
    <text font-family="PingFangSC-Regular, PingFang SC" font-size="12" fill="#000" fill-opacity=".65"
          transform="translate(4 2)">
      <tspan x="17" y="65">规则组件</tspan>
    </text>
    <g>
      <path stroke="null" id="svg_11" fill="#515151"
            d="m32.04013,13.99616l21.81565,0l0,10.12503l1.60409,0l0,-11.72912l-25.02384,0l0,28.74533l9.86837,0l0,-1.60409l-8.26428,0l0,-25.53715z"/>
      <path stroke="null" id="svg_12" fill="#515151"
            d="m34.9275,29.62643l3.45201,0l0,1.60409l-3.45201,0l0,-1.60409zm0,-10.27261l16.04092,0l0,1.60409l-16.04092,0l0,-1.60409zm22.13647,14.27321l0,-1.60409l-2.62429,0c-0.13474,-0.94962 -0.5101,-1.82546 -1.06191,-2.56013l1.85433,-1.85433l-1.1357,-1.1357l-1.85433,1.85433c-0.73467,-0.55181 -1.61051,-0.92396 -2.56013,-1.06191l0,-2.62429l-1.60409,0l0,2.62429c-0.94962,0.13474 -1.82546,0.5101 -2.56013,1.06191l-1.85433,-1.85433l-1.13249,1.13249l1.85433,1.85433c-0.55181,0.73467 -0.92396,1.61051 -1.06191,2.56013l-2.62109,0l0,1.60409l2.62429,0c0.13474,0.94962 0.5101,1.82546 1.06191,2.56013l-1.85754,1.85754l1.1357,1.1357l1.85433,-1.85433c0.73467,0.55181 1.61051,0.92396 2.56013,1.06191l0,2.62429l1.60409,0l0,-2.62429c0.94962,-0.13474 1.82546,-0.5101 2.56013,-1.06191l1.85433,1.85433l1.1357,-1.1357l-1.85433,-1.85433c0.55181,-0.73467 0.92396,-1.61051 1.06191,-2.56013l2.62109,0zm-4.21235,-0.22778c-0.09304,0.66089 -0.35611,1.28969 -0.75713,1.82546l-0.34648,0.46519l-0.46519,0.34648c-0.53577,0.40102 -1.16457,0.66089 -1.82546,0.75713l-0.57426,0.08341l-0.57426,-0.08341c-0.66089,-0.09304 -1.28969,-0.35611 -1.82546,-0.75713l-0.46519,-0.34648l-0.34648,-0.46519c-0.40102,-0.53577 -0.66089,-1.16457 -0.75713,-1.82546l-0.08341,-0.57426l0.08341,-0.57426c0.09304,-0.66089 0.35611,-1.28969 0.75713,-1.82546l0.34648,-0.46519l0.46519,-0.34648c0.53577,-0.40102 1.16457,-0.66089 1.82546,-0.75713l0.57426,-0.08341l0.57426,0.08341c0.66089,0.09304 1.28969,0.35611 1.82546,0.75713l0.46519,0.34648l0.34648,0.46519c0.40102,0.53577 0.66089,1.16457 0.75713,1.82546l0.08341,0.57426l-0.08341,0.57426zm-17.92413,-8.90913l5.37692,0l0,1.60409l-5.37692,0l0,-1.60409z"/>
    </g>
  </g>
</svg>
