<svg width="88" height="76" xmlns="http://www.w3.org/2000/svg" xmlns:xlink="http://www.w3.org/1999/xlink">
  <defs>
    <rect id="b" x="0" y="0" width="80" height="48" rx="4"/>
    <filter x="-8.8%" y="-10.4%" width="117.5%" height="129.2%" filterUnits="objectBoundingBox" id="a">
      <feOffset dy="2" in="SourceAlpha" result="shadowOffsetOuter1"/>
      <feGaussianBlur stdDeviation="2" in="shadowOffsetOuter1" result="shadowBlurOuter1"/>
      <feComposite in="shadowBlurOuter1" in2="SourceAlpha" operator="out" result="shadowBlurOuter1"/>
      <feColorMatrix values="0 0 0 0 0 0 0 0 0 0 0 0 0 0 0 0 0 0 0.04 0" in="shadowBlurOuter1"/>
    </filter>
  </defs>
  <g>

    <g fill="none" fill-rule="evenodd">
      <g transform="translate(4 2)">
        <use fill="#000" filter="url(#a)" xlink:href="#b"/>
        <use fill-opacity=".92" fill="#E6F7FF" xlink:href="#b"/>
        <rect stroke="#1890FF" x=".5" y=".5" width="79" height="47" rx="4"/>
      </g>
      <text font-family="PingFangSC-Regular, PingFang SC" font-size="12" fill="#000" fill-opacity=".65"
            transform="translate(4 2)">
        <tspan x="21" y="65">Sql组件</tspan>
      </text>
    </g>
    <g stroke="null" id="svg_14">
      <path stroke="null" id="svg_11" fill="#515151"
            d="m55.67654,39.97389l-19.01643,0c-1.28393,0 -2.31107,-1.04141 -2.31107,-2.31107l0,-19.01643c0,-1.28393 1.04141,-2.31107 2.31107,-2.31107l19.00216,0c1.28393,0 2.31107,1.04141 2.31107,2.31107l0,19.00216c0.01427,1.28393 -1.02714,2.32534 -2.29681,2.32534zm-19.01643,-21.8696c-0.29958,0 -0.5421,0.24252 -0.5421,0.5421l0,19.00216c0,0.29958 0.24252,0.5421 0.5421,0.5421l19.00216,0c0.29958,0 0.5421,-0.24252 0.5421,-0.5421l0,-19.00216c0,-0.29958 -0.24252,-0.5421 -0.5421,-0.5421l-19.00216,0z"/>
      <path stroke="null" id="svg_12" fill="#515151"
            d="m34.4489,35.6228c-2.43947,0 -4.42242,-1.98296 -4.42242,-4.42242l0,-16.89081c0,-1.28393 1.04141,-2.31107 2.31107,-2.31107l16.90507,0c2.43947,0 4.42242,1.98296 4.42242,4.42242l-1.78324,0c0,-1.45512 -1.18407,-2.63919 -2.63919,-2.63919l-16.90507,0c-0.29958,0 -0.5421,0.24252 -0.5421,0.5421l0,16.90507c0,1.45512 1.18407,2.63919 2.63919,2.63919l0,1.7547l0.01427,0z"/>
      <path stroke="null" id="svg_13" fill="#515151"
            d="m41.32506,27.66243c-1.04141,-0.68476 -1.52645,-1.01288 -1.52645,-1.42659c0,-0.42798 0.39944,-0.44224 0.6277,-0.42798c0.24252,0.01427 1.98296,0.01427 1.98296,0.01427l0,-1.36953l-2.65345,0c-0.44224,0 -1.31246,0.51357 -1.55498,1.34099c-0.15692,0.57064 0.07133,1.127 0.11413,1.24113c0.07133,0.17119 0.19972,0.42798 0.55637,0.78462c0.97008,0.99861 2.02576,1.15554 2.15415,1.78324c0.01427,0.05706 0.0428,0.21399 -0.0428,0.35665c-0.11413,0.18546 -0.37091,0.25679 -0.5421,0.25679l-2.26828,0l0,1.42659s1.65484,0.01427 2.63919,0s1.7975,-0.82742 1.7975,-1.7975s-0.25679,-1.49792 -1.28393,-2.18268zm5.32118,-3.33822c-1.99722,0 -3.62354,1.66911 -3.62354,3.7234c0,1.52645 0.88448,2.88171 2.26828,3.45234l0.49931,-1.2126c-0.88448,-0.37091 -1.46939,-1.2554 -1.46939,-2.25401c0,-1.32673 1.04141,-2.41093 2.32534,-2.41093s2.32534,1.08421 2.32534,2.41093c0,0.99861 -0.5849,1.86883 -1.44085,2.23974l0,-1.2982l-1.2982,0l0,4.23697l1.2982,0l0,-1.56925c1.62631,-0.41371 2.75332,-1.8831 2.75332,-3.60927c-0.01427,-2.04002 -1.64058,-3.70913 -3.6378,-3.70913zm6.20566,5.96314c-0.39944,0 -0.72756,-0.32812 -0.72756,-0.72756l0,-5.10719l-1.2982,0l0,5.10719c0,1.11274 0.91302,2.02576 2.02576,2.02576l1.31246,0l0,-1.2982l-1.31246,0z"/>
    </g>
  </g>
</svg>
