<svg id="图层_1" data-name="图层 1" xmlns="http://www.w3.org/2000/svg" viewBox="0 0 36 34"><title>icon_userCenter_messageReceived_default</title><path d="M68.17,77.14h-34a1,1,0,0,1-1-1v-17a2,2,0,0,1,2.77-1.9l15.23,5.93L66.4,57.21a2,2,0,0,1,2.77,1.9v17A1,1,0,0,1,68.17,77.14Z" transform="translate(-33.17 -43.14)" style="fill:#838687"/><path d="M49.72,70.41,38.93,65a3.19,3.19,0,0,1-1.76-2.85v-17a2,2,0,0,1,2-2h24a2,2,0,0,1,2,2V62a3.19,3.19,0,0,1-1.74,2.84L52.6,70.4A3.18,3.18,0,0,1,49.72,70.41Z" transform="translate(-33.17 -43.14)" style="fill:#d5d6d5"/><rect x="9" y="6" width="16" height="3" rx="1" ry="1" style="fill:#838687"/><rect x="9" y="12" width="11" height="3" rx="1" ry="1" style="fill:#838687"/></svg>