<?xml version="1.0" encoding="UTF-8"?>
<svg width="16px" height="16px" viewBox="0 0 16 16" version="1.1" xmlns="http://www.w3.org/2000/svg" xmlns:xlink="http://www.w3.org/1999/xlink">
    <!-- Generator: Sketch 59 (86127) - https://sketch.com -->
    <title>icon/allread-hover</title>
    <desc>Created with Sketch.</desc>
    <defs>
        <rect id="path-1" x="0" y="0" width="16" height="16"></rect>
    </defs>
    <g id="客户端" stroke="none" stroke-width="1" fill="none" fill-rule="evenodd">
        <g id="icon/allread-hover">
            <mask id="mask-2" fill="white">
                <use xlink:href="#path-1"></use>
            </mask>
            <use id="蒙版" fill-opacity="0.01" fill="#FFFFFF" xlink:href="#path-1"></use>
            <g id="编组-8" mask="url(#mask-2)">
                <g transform="translate(0.206250, 0.206250)">
                    <path d="M12.9277039,-2.57571742e-14 C13.8834216,-2.57571742e-14 14.6581839,0.774762307 14.6581839,1.73048005 L14.6581839,12.8768074 C14.6581839,14.310384 13.4960405,15.4725275 12.0624639,15.4725275 L4.1735107,15.4725275 C3.21779296,15.4725275 2.44303065,14.6977652 2.44303065,13.7420474 L2.44303065,1.73048005 C2.44303065,0.774762307 3.21779296,-2.57571742e-14 4.1735107,-2.57571742e-14 L12.9277039,-2.57571742e-14 Z M12.9277039,1.26923077 L4.1735107,1.26923077 C3.91876976,1.26923077 3.71226142,1.4757391 3.71226142,1.73048005 L3.71226142,13.7420474 C3.71226142,13.9967884 3.91876976,14.2032967 4.1735107,14.2032967 L12.0624639,14.2032967 C12.7950637,14.2032967 13.3889532,13.6094072 13.3889532,12.8768074 L13.3889532,1.73048005 C13.3889532,1.4757391 13.1824448,1.26923077 12.9277039,1.26923077 Z" id="矩形" fill="#29BDCD" fill-rule="nonzero"></path>
                    <rect id="矩形备份-13" fill="#FFFFFF" fill-rule="evenodd" x="1.03125" y="9.77212261" width="9.28125" height="5.70040486" rx="2.38596491"></rect>
                    <path d="M7.8375,9.77212261 C9.43222222,9.77212261 10.725,11.0482017 10.725,12.622325 C10.725,14.1964484 9.43222222,15.4725275 7.8375,15.4725275 L2.8875,15.4725275 C1.29277778,15.4725275 -1.82076576e-13,14.1964484 -1.82076576e-13,12.622325 C-1.82076576e-13,11.0482017 1.29277778,9.77212261 2.8875,9.77212261 L7.8375,9.77212261 Z M7.8375,11.0413534 L2.8875,11.0413534 C2.00292752,11.0413534 1.28583984,11.7491785 1.28583984,12.622325 C1.28583984,13.4954716 2.00292752,14.2032967 2.8875,14.2032967 L7.8375,14.2032967 C8.72207248,14.2032967 9.43916016,13.4954716 9.43916016,12.622325 C9.43916016,11.8037502 8.80890731,11.1304773 8.00126045,11.0495158 L7.8375,11.0413534 Z" id="矩形备份-13" fill="#29BDCD" fill-rule="nonzero"></path>
                    <rect id="矩形备份-15" fill="#29BDCD" fill-rule="evenodd" x="4.88606131" y="3.47428022" width="7.32909196" height="1.22151533" rx="0.610757663"></rect>
                    <rect id="矩形备份-16" fill="#29BDCD" fill-rule="evenodd" x="4.88606131" y="6.73165453" width="3.2573742" height="1.22151533" rx="0.610757663"></rect>
                    <rect id="矩形备份-14" fill="#29BDCD" fill-rule="evenodd" x="7.32909196" y="7.32909196" width="8.14343551" height="8.14343551" rx="3.94833237"></rect>
                    <path d="M8.34057569,11.2556747 L9.64683865,12.7733139 C10.1892275,13.4034708 11.1397636,13.4746209 11.7699205,12.932232 L11.8378243,12.870072 L14.2033118,10.567851 L13.1533261,9.48901099 L10.7878386,11.7912321 L9.48157563,10.2735929 L8.34057569,11.2556747 Z" id="Path-3" fill="#FFFFFF" fill-rule="nonzero"></path>
                </g>
            </g>
        </g>
    </g>
</svg>