<?xml version="1.0" encoding="UTF-8"?>
<svg width="16px" height="16px" viewBox="0 0 16 16" version="1.1" xmlns="http://www.w3.org/2000/svg" xmlns:xlink="http://www.w3.org/1999/xlink">
    <!-- Generator: Sketch 59 (86127) - https://sketch.com -->
    <title>icon/empty</title>
    <desc>Created with Sketch.</desc>
    <defs>
        <rect id="path-1" x="0" y="0.538748024" width="15.2380952" height="15.2380952"></rect>
    </defs>
    <g id="客户端" stroke="none" stroke-width="1" fill="none" fill-rule="evenodd">
        <g id="已登录" transform="translate(-1388.000000, -234.000000)">
            <g id="icon/empty" transform="translate(1388.000000, 234.000000)">
                <mask id="mask-2" fill="white">
                    <use xlink:href="#path-1"></use>
                </mask>
                <use id="蒙版" fill-opacity="0.01" fill="#FFFFFF" xlink:href="#path-1"></use>
                <g id="编组-15" mask="url(#mask-2)" fill="#29BDCD" fill-rule="nonzero">
                    <g transform="translate(9.545942, 7.244368) rotate(45.000000) translate(-9.545942, -7.244368) translate(3.045942, 0.244368)" id="形状结合">
                        <path d="M6.0952381,4.33431069e-13 C6.93681486,4.33431069e-13 7.61904762,0.682232762 7.61904762,1.52380952 L7.619,5.333 L10.5714286,5.33333333 C11.4656039,5.33333333 12.1904762,6.05820564 12.1904762,6.95238095 L12.1904762,12.0952381 C12.1904762,12.9894134 11.4656039,13.7142857 10.5714286,13.7142857 L1.61904762,13.7142857 C0.72487231,13.7142857 -9.30810984e-13,12.9894134 -9.30810984e-13,12.0952381 L-9.30810984e-13,6.95238095 C-9.30810984e-13,6.05820564 0.72487231,5.33333333 1.61904762,5.33333333 L4.571,5.333 L4.57142857,1.52380952 C4.57142857,0.682232762 5.25366133,4.33431069e-13 6.0952381,4.33431069e-13 Z M11.19,9.016 L1,9.016 L1,12.0952381 C1,12.4371287 1.27715706,12.7142857 1.61904762,12.7142857 L2.547,12.714 L2.54761905,10.6869206 L3.54761905,10.6869206 L3.547,12.714 L5.595,12.714 L5.5952381,10.6869206 L6.5952381,10.6869206 L6.595,12.714 L8.642,12.714 L8.64285714,10.6869206 L9.64285714,10.6869206 L9.642,12.714 L10.5714286,12.7142857 C10.9133191,12.7142857 11.1904762,12.4371287 11.1904762,12.0952381 L11.19,9.016 Z M6.0952381,1 C5.80594608,1 5.57142857,1.23451751 5.57142857,1.52392203 L5.57088751,6.3328871 L1.61904762,6.33333333 C1.27715706,6.33333333 1,6.61049039 1,6.95238095 L1,8.016 L11.19,8.016 L11.1904762,6.95238095 C11.1904762,6.61049039 10.9133191,6.33333333 10.5713157,6.33333333 L6.6189875,6.3328871 L6.61904762,1.52380952 C6.61904762,1.23451751 6.38453011,1 6.0952381,1 Z"></path>
                    </g>
                </g>
            </g>
        </g>
    </g>
</svg>