<?xml version="1.0" encoding="UTF-8"?>
<svg width="12px" height="12px" viewBox="0 0 12 12" version="1.1" xmlns="http://www.w3.org/2000/svg" xmlns:xlink="http://www.w3.org/1999/xlink">
    <!-- Generator: Sketch 64 (93537) - https://sketch.com -->
    <title>icon/free</title>
    <desc>Created with Sketch.</desc>
    <g id="我的产品" stroke="none" stroke-width="1" fill="none" fill-rule="evenodd">
        <g transform="translate(-361.000000, -420.000000)" fill-rule="nonzero" id="编组-12">
            <g transform="translate(52.000000, 415.000000)">
                <g id="编组-10" transform="translate(186.000000, 0.000000)">
                    <g id="编组-11" transform="translate(123.000000, 2.000000)">
                        <g id="icon/free" transform="translate(0.000000, 3.000000)">
                            <path d="M4.65680299,1.11316606 L0.235313472,3.59332519 L0.235313472,8.55364346 L4.65680299,11.0338026 L9.07829251,8.55364346 L9.07829251,3.59332519 L4.65680299,1.11316606 Z M6.97969632,5.39285854 L4.48793561,7.88461925 C4.42477147,7.94778338 4.34098231,7.98000998 4.25848222,7.98000998 C4.17469306,7.98000998 4.09219296,7.94778338 4.02902882,7.88461925 L2.6871132,6.54270362 C2.55949586,6.41637535 2.55949586,6.21012511 2.6871132,6.08250778 C2.81473054,5.95489044 3.01969171,5.95489044 3.14730905,6.08250778 L4.25848222,7.19368094 L6.51950047,4.93266269 C6.64582874,4.80633442 6.85207898,4.80633442 6.97969632,4.93266269 C7.10602459,5.06028002 7.10602459,5.26653026 6.97969632,5.39285854 Z" id="形状" fill="#77CF37"></path>
                            <polygon id="路径" fill="#ACDC79" points="6.68063347 0.17988372 5.96133576 0.5923842 6.23848452 0.749650008 6.24106265 0.749650008 8.43891677 2.00906554 10.8262633 3.37418431 10.8262633 8.62325292 6.24106265 11.2490763 6.23719546 11.2464982 5.95746857 11.405053 6.68192254 11.8201316 11.765991 8.90942513 11.765991 3.09059023 6.68063347 0.17988372"></polygon>
                        </g>
                    </g>
                </g>
            </g>
        </g>
    </g>
</svg>