<?xml version="1.0" encoding="UTF-8"?>
<svg width="10px" height="10px" viewBox="0 0 10 10" version="1.1" xmlns="http://www.w3.org/2000/svg" xmlns:xlink="http://www.w3.org/1999/xlink">
    <!-- Generator: Sketch 59 (86127) - https://sketch.com -->
    <title>icon/mes</title>
    <desc>Created with Sketch.</desc>
    <defs>
        <rect id="path-1" x="0" y="0" width="10" height="10"></rect>
    </defs>
    <g id="客户端" stroke="none" stroke-width="1" fill="none" fill-rule="evenodd">
        <g id="icon/mes">
            <g id="形状">
                <mask id="mask-2" fill="white">
                    <use xlink:href="#path-1"></use>
                </mask>
                <use id="蒙版" fill-opacity="0.01" fill="#FFFFFF" xlink:href="#path-1"></use>
                <path d="M8.57142857,1 L1.42857143,1 C0.642857143,1 0,1.64285714 0,2.42857143 L0,6.71428571 C0,7.5 0.642857143,8.14285714 1.42857143,8.14285714 L3.57142857,8.14285714 L5,9.57142857 L6.42857143,8.14285714 L8.57142857,8.14285714 C9.35714286,8.14285714 10,7.5 10,6.71428571 L10,2.42857143 C10,1.64285714 9.35714286,1 8.57142857,1 Z M2.85714286,5.28571429 C2.42857143,5.28571429 2.14285714,5 2.14285714,4.57142857 C2.14285714,4.14285714 2.42857143,3.85714286 2.85714286,3.85714286 C3.28571429,3.85714286 3.57142857,4.14285714 3.57142857,4.57142857 C3.57142857,5 3.28571429,5.28571429 2.85714286,5.28571429 Z M5,5.28571429 C4.57142857,5.28571429 4.28571429,5 4.28571429,4.57142857 C4.28571429,4.14285714 4.57142857,3.85714286 5,3.85714286 C5.42857143,3.85714286 5.71428571,4.14285714 5.71428571,4.57142857 C5.71428571,5 5.42857143,5.28571429 5,5.28571429 Z M7.14285714,5.28571429 C6.71428571,5.28571429 6.42857143,5 6.42857143,4.57142857 C6.42857143,4.14285714 6.71428571,3.85714286 7.14285714,3.85714286 C7.57142857,3.85714286 7.85714286,4.14285714 7.85714286,4.57142857 C7.85714286,5 7.57142857,5.28571429 7.14285714,5.28571429 Z" fill="#BCC2CB" fill-rule="nonzero" mask="url(#mask-2)"></path>
            </g>
        </g>
    </g>
</svg>