<?xml version="1.0" encoding="UTF-8"?>
<svg width="26px" height="27px" viewBox="0 0 26 27" version="1.1" xmlns="http://www.w3.org/2000/svg" xmlns:xlink="http://www.w3.org/1999/xlink">
    <!-- Generator: Sketch 59 (86127) - https://sketch.com -->
    <title>icon/newversion@2x</title>
    <desc>Created with Sketch.</desc>
    <g id="客户端" stroke="none" stroke-width="1" fill="none" fill-rule="evenodd">
        <g id="画板" transform="translate(-430.000000, -48.000000)">
            <g id="编组-22备份" transform="translate(406.000000, 32.000000)">
                <g id="编组-6" transform="translate(24.000000, 16.000000)">
                    <g id="icon/newversion" transform="translate(0.000000, 0.500000)">
                        <rect id="矩形" fill-opacity="0.01" fill="#FFFFFF" x="0" y="9.69890834e-14" width="26" height="26"></rect>
                        <path d="M9.5,14 L22.5,14 C23.0128358,14 23.4355072,14.3860402 23.4932723,14.8833789 L23.5,15 L23.5,21 C23.5,21.5128358 23.1139598,21.9355072 22.6166211,21.9932723 L22.5,22 L9.5,22 C8.98716416,22 8.56449284,21.6139598 8.50672773,21.1166211 L8.5,21 L8.5,15 C8.5,14.4871642 8.88604019,14.0644928 9.38337887,14.0067277 L9.5,14 L22.5,14 Z M20.7076666,3.35966129 L20.8521266,3.36652787 C21.5652377,3.43466981 22.132658,4.00209012 22.2008,4.71520128 L22.2076666,4.85966129 L22.207,12.9996613 L9.5,13 C8.4456382,13 7.58183488,13.8158778 7.50548574,14.8507377 L7.5,15 L7.5,21 C7.5,21.2406904 7.54251706,21.4714503 7.6204504,21.6851792 L7.68543002,21.8421715 L3,21.8422081 L2.85553999,21.8353416 C2.14242883,21.7671996 1.57500853,21.1997793 1.50686658,20.4866681 L1.5,20.3422081 L1.5,4.85966129 L1.50686658,4.71520128 C1.57500853,4.00209012 2.14242883,3.43466981 2.85553999,3.36652787 L3,3.35966129 L20.7076666,3.35966129 Z M9.85546218,16 L9.2,16 L9.2,20 L9.85546218,20 L9.85546218,17.0756303 L9.87787115,17.0756303 L11.8778711,20 L12.5165266,20 L12.5165266,16 L11.8554622,16 L11.8554622,18.8851541 L11.8330532,18.8851541 L9.85546218,16 Z M16.6528478,16 L13.7676937,16 L13.7676937,20 L16.7480859,20 L16.7480859,19.4397759 L14.4231559,19.4397759 L14.4231559,18.2296919 L16.518394,18.2296919 L16.518394,17.6694678 L14.4231559,17.6694678 L14.4231559,16.5602241 L16.6528478,16.5602241 L16.6528478,16 Z M18.2065359,16 L17.4670401,16 L18.6154995,20 L19.3157796,20 L20.1000934,16.9915966 L20.1225023,16.9915966 L20.9012138,20 L21.5958917,20 L22.7499533,16 L22.0104575,16 L21.2597572,19.0420168 L21.2373483,19.0420168 L20.4474323,16 L19.7695612,16 L18.9796452,19.0420168 L18.9572362,19.0420168 L18.2065359,16 Z M6.64101303,12.0743595 L4.75625101,12.0743595 L4.66637538,12.0824151 C4.43312617,12.1247511 4.25625101,12.3288996 4.25625101,12.5743595 C4.25625101,12.8198194 4.43312617,13.0239678 4.66637538,13.0663038 L4.75625101,13.0743595 L6.64101303,13.0743595 L6.73088866,13.0663038 C6.96413787,13.0239678 7.14101303,12.8198194 7.14101303,12.5743595 C7.14101303,12.2982171 6.9171554,12.0743595 6.64101303,12.0743595 Z M18,7.81795427 L4.75625101,7.81795427 L4.66637538,7.82600994 C4.43312617,7.8683459 4.25625101,8.07249438 4.25625101,8.31795427 C4.25625101,8.56341416 4.43312617,8.76756264 4.66637538,8.8098986 L4.75625101,8.81795427 L18,8.81795427 L18.0898756,8.8098986 C18.3231248,8.76756264 18.5,8.56341416 18.5,8.31795427 C18.5,8.04181189 18.2761424,7.81795427 18,7.81795427 Z" id="形状结合" fill="#29BDCD"></path>
                    </g>
                </g>
            </g>
        </g>
    </g>
</svg>