<?xml version="1.0" encoding="UTF-8"?>
<svg width="16px" height="16px" viewBox="0 0 16 16" version="1.1" xmlns="http://www.w3.org/2000/svg" xmlns:xlink="http://www.w3.org/1999/xlink">
    <!-- Generator: Sketch 59 (86127) - https://sketch.com -->
    <title>编组</title>
    <desc>Created with Sketch.</desc>
    <defs>
        <rect id="path-1" x="0" y="0" width="16" height="16"></rect>
    </defs>
    <g id="反馈修改" stroke="none" stroke-width="1" fill="none" fill-rule="evenodd">
        <g id="弹窗备份" transform="translate(-888.000000, -623.000000)">
            <g id="编组-6" transform="translate(265.000000, 92.000000)">
                <g id="编组-5" transform="translate(40.000000, 272.000000)">
                    <g id="去选择项目父组件-bg" transform="translate(575.000000, 255.000000)">
                        <g id="编组" transform="translate(8.000000, 4.000000)">
                            <g id="形状结合">
                                <mask id="mask-2" fill="white">
                                    <use xlink:href="#path-1"></use>
                                </mask>
                                <use id="蒙版" fill-opacity="0.01" fill="#FFFFFF" xlink:href="#path-1"></use>
                                <path d="M7.355,13.895 L8.4275,13.895 C8.7525,13.895 8.98,14.1225 8.98,14.4475 C8.98,14.74 8.7694,14.953525 8.5140475,14.993305 L8.4275,15 L7.355,15 C7.03,15 6.8025,14.74 6.8025,14.4475 C6.8025,14.1875 6.98225309,13.978858 7.2504561,13.9128772 L7.355,13.895 L8.4275,13.895 Z M6.25,12.27 L9.5,12.27 C9.825,12.27 10.0525,12.53 10.0525,12.8225 C10.0525,13.115 9.8419,13.328525 9.5865475,13.368305 L9.5,13.375 L6.25,13.375 C5.925,13.375 5.6975,13.115 5.6975,12.8225 C5.6975,12.5625 5.9029321,12.353858 6.15401578,12.2878772 L6.25,12.27 L9.5,12.27 Z M7.875,2 C10.5725,2 12.75,4.1775 12.75,6.875 C12.75,9.5725 10.5725,11.75 7.875,11.75 C5.1775,11.75 3,9.5725 3,6.875 C3,4.1775 5.1775,2 7.875,2 Z M8,3.5 C7.72385763,3.5 7.5,3.72385763 7.5,4 C7.5,4.27614237 7.72385763,4.5 8,4.5 C9.38071187,4.5 10.5,5.61928813 10.5,7 C10.5,7.27614237 10.7238576,7.5 11,7.5 C11.2761424,7.5 11.5,7.27614237 11.5,7 C11.5,5.06700338 9.93299662,3.5 8,3.5 Z" fill="#FFBE58" fill-rule="nonzero" mask="url(#mask-2)"></path>
                            </g>
                        </g>
                    </g>
                </g>
            </g>
        </g>
    </g>
</svg>