<?xml version="1.0" encoding="UTF-8"?>
<svg width="30px" height="30px" viewBox="0 0 30 30" version="1.1" xmlns="http://www.w3.org/2000/svg" xmlns:xlink="http://www.w3.org/1999/xlink">
    <!-- Generator: Sketch 59 (86127) - https://sketch.com -->
    <title>icon/productlist</title>
    <desc>Created with Sketch.</desc>
    <g id="客户端" stroke="none" stroke-width="1" fill="none" fill-rule="evenodd">
        <g id="已登录" transform="translate(-252.000000, -228.000000)">
            <g id="icon/productlist" transform="translate(252.000000, 228.000000)">
                <circle id="椭圆形" stroke="#FF9A3A" fill="#FFE9DD" cx="15" cy="15" r="14.5"></circle>
                <path d="M21.9983817,11.7387887 C22.2438403,11.7379943 22.4485602,11.9142078 22.4916509,12.1473187 L22.4999974,12.2371678 C22.4999991,12.2377072 22.5,12.2382467 22.5,12.2387861 L22.5,22 C22.5,22.2761424 22.2761424,22.5 22,22.5 L8,22.5 C7.72385763,22.5 7.5,22.2761424 7.5,22 L7.5,12.2840986 C7.5,12.008588 7.72287255,11.7849929 7.9983817,11.7841012 L21.9983817,11.7387887 Z M14.4642857,19.2589286 L14.4575893,19.2589286 L10.171875,19.3125 C9.87555804,19.3158482 9.63950893,19.5585937 9.64282196,19.8549107 C9.64620536,20.1478795 9.88560268,20.3839286 10.1785714,20.3839286 L10.1852679,20.3839286 L14.4709821,20.3303571 C14.7672991,20.3270089 15.0033482,20.0842634 15.0000352,19.7879464 C14.9966518,19.4949777 14.7572545,19.2589286 14.4642857,19.2589286 Z M19.8214286,16.5803571 L19.8180804,16.5803571 L10.1752232,16.6339286 C9.87890625,16.6356027 9.64118304,16.8766741 9.64284835,17.1729911 C9.64453125,17.4676339 9.88392857,17.7053571 10.1785714,17.7053571 L10.1819196,17.7053571 L19.8247768,17.6517857 C20.1210937,17.6501116 20.358817,17.4090402 20.3571516,17.1127232 C20.3554687,16.8180804 20.1160714,16.5803571 19.8214286,16.5803571 Z M19.8214286,13.9017857 L19.8180804,13.9017857 L10.1752232,13.9553571 C9.87890625,13.9570312 9.64118304,14.1981027 9.64284835,14.4944196 C9.64453125,14.7890625 9.88392857,15.0267857 10.1785714,15.0267857 L10.1819196,15.0267857 L19.8247768,14.9732143 C20.1210937,14.9715402 20.358817,14.7304687 20.3571516,14.4341518 C20.3554687,14.1395089 20.1160714,13.9017857 19.8214286,13.9017857 Z M13.9642857,7.5 C14.2404281,7.5 14.4642857,7.72385763 14.4642857,8 L14.4642857,10.1924861 C14.4642857,10.467988 14.2414267,10.6915795 13.9659263,10.6924834 L8.64365113,10.7099467 C8.36751024,10.7108528 8.14291931,10.4877309 8.14201325,10.21159 C8.14175662,10.1333783 8.15985148,10.0561971 8.19484357,9.9862494 L9.30039408,7.7763 C9.3851086,7.60695921 9.55821257,7.5 9.74756106,7.5 L13.9642857,7.5 Z M20.25244,7.5 C20.4417879,7.5 20.6148915,7.60695859 20.6996063,7.77629862 L21.7843767,9.9446927 C21.9079235,10.1916558 21.8078749,10.4920135 21.5609118,10.6155604 C21.4919569,10.6500561 21.4159585,10.6681375 21.3388568,10.6683914 L16.0373607,10.6858482 C15.7612198,10.6867575 15.5366263,10.4636382 15.535717,10.1874973 L15.5357143,8 C15.5357143,7.72385763 15.7595719,7.5 16.0357143,7.5 L20.25244,7.5 Z" id="形状结合" fill="#FF953F" fill-rule="nonzero"></path>
            </g>
        </g>
    </g>
</svg>