<?xml version="1.0" encoding="UTF-8"?>
<svg width="30px" height="30px" viewBox="0 0 30 30" version="1.1" xmlns="http://www.w3.org/2000/svg" xmlns:xlink="http://www.w3.org/1999/xlink">
    <!-- Generator: Sketch 59 (86127) - https://sketch.com -->
    <title>icon/existingservice</title>
    <desc>Created with Sketch.</desc>
    <g id="客户端" stroke="none" stroke-width="1" fill="none" fill-rule="evenodd">
        <g id="已登录" transform="translate(-252.000000, -563.000000)">
            <g id="icon/existingservice" transform="translate(252.000000, 563.000000)">
                <circle id="椭圆形" stroke="#6CCDD9" fill="#DDFFFF" cx="15" cy="15" r="14.5"></circle>
                <g id="编组-12" transform="translate(5.000000, 7.000000)">
                    <path d="M17.2213014,1.11111111 L17.2211111,8.31511111 L18.1583095,8.38930121 L19.2222222,9.72132132 L12.8137619,14.8940055 L2.51106994,14.8940055 C1.63765484,14.8940055 0.893611334,14.2595455 0.75561996,13.3970999 L0.75561996,13.3970999 L0.111111111,9.36892218 L2.61511111,8.01711111 L2.61521533,1.11111111 L17.2213014,1.11111111 Z" id="Combined-Shape" fill="#29BDCD"></path>
                    <path d="M16.1360364,2.08721929e-14 C16.2951907,0.0632312312 16.4664532,0.106551351 16.6110778,0.19372973 C16.972034,0.411406607 17.1971103,0.735903904 17.2031643,1.16318559 C17.2217301,2.456197 17.2279187,3.74947748 17.2279187,5.04275796 C17.2279187,5.43398438 17.1119499,5.79238438 16.8070946,6.06374054 C16.5744844,6.27052012 16.3008412,6.39832793 15.9885865,6.39886607 C13.6936964,6.40303664 11.3985373,6.40303664 9.10337813,6.39886607 C8.72977573,6.39886607 8.52339975,6.17863303 8.46958594,5.88373333 C8.401646,5.51201441 8.61246161,5.19464745 8.95229585,5.11177417 C8.99723038,5.10464384 9.04297212,5.10262583 9.08844479,5.10598919 L15.9045025,5.10598919 L15.9045025,1.30525405 L3.83352588,1.30525405 L3.83352588,7.04218813 C3.83352588,7.33170645 3.65916912,7.59458693 3.37032347,7.6700608 C2.93873669,7.78306981 2.53580576,7.49704939 2.53724213,7.06236831 C2.5410526,6.07461576 2.53338413,2.22856456 2.54078353,1.24040841 C2.5445505,0.74559039 2.77689164,0.376293093 3.21897212,0.149871471 C3.34341657,0.0866402402 3.47889284,0.0491051051 3.60939134,0.000538138138 L16.1360364,2.08721929e-14 Z" id="Path" fill="#DDFFFF"></path>
                    <polygon id="Rectangle" fill="#DDFFFF" points="15.9046033 4.1353879 17.2279187 3.84741386 17.2279187 8.82519164 15.9046033 9.11316568"></polygon>
                    <path d="M0.145084236,8.85586461 C0.347344472,8.58774294 0.539447798,8.35271111 0.769636386,8.13476517 C1.38069224,7.5559976 2.05417212,7.06387027 2.82734209,6.72147988 C3.21412888,6.55021742 3.61410005,6.41608649 4.03922918,6.37532252 C4.23834029,6.35621862 4.44014209,6.32150871 4.63911867,6.32931171 C5.24600395,6.35245165 5.84468263,6.47608889 6.41107302,6.69511111 C6.95620696,6.90498498 7.43326642,7.22504264 7.88261176,7.59393634 C8.2641517,7.90672913 8.64972768,8.21642763 9.04768083,8.50675315 C9.30343098,8.69362162 9.60492287,8.79035195 9.92323158,8.81510631 C10.2913181,8.84376216 10.6608844,8.8590991 11.0287019,8.89273273 C11.4021697,8.92676997 11.7759067,8.94816096 12.1371319,9.06318799 C12.5297037,9.18776697 12.7553181,9.45293453 12.8345589,9.86434114 C13.035688,9.81187267 13.2357409,9.76653453 13.4321613,9.7072048 C13.9845601,9.54038198 14.535479,9.36521802 15.0379655,9.07543063 C15.2859127,8.92757718 15.5244424,8.76479039 15.7522094,8.58774294 C16.2181025,8.2362042 16.7137277,7.94722402 17.2962622,7.8473994 C17.813682,7.75874114 18.2949121,7.86556156 18.725288,8.16947508 C19.0624316,8.4071976 19.3165673,8.72375736 19.5171583,9.07933213 C19.6374322,9.30050691 19.7466742,9.52746667 19.8440772,9.75953874 C19.860894,9.81429429 19.8516112,9.87375856 19.8193229,9.92084565 C19.6133505,10.1700036 19.3958082,10.4108204 19.1880868,10.6590366 C18.6171223,11.3416649 17.992613,11.9739772 17.3512868,12.5871856 C16.9845457,12.9372444 16.5840364,13.2520553 16.1949625,13.5783015 C15.7980856,13.9111399 15.3647499,14.1911063 14.9202478,14.4569465 C14.3179367,14.8160192 13.6810502,15.0854919 12.9981529,15.2341526 C12.7363487,15.2914643 12.4621673,15.2996709 12.1929637,15.3135279 C11.8462682,15.3312865 11.4989,15.3316901 11.15207,15.340973 C10.8712964,15.3485069 10.5906574,15.3576553 10.3102874,15.3658619 C9.9922478,15.3744721 9.67420816,15.382006 9.35616852,15.3907508 C9.08413969,15.3981502 8.81184179,15.4075676 8.53940936,15.4156396 C8.21316311,15.4249225 7.88691687,15.4319183 7.56067062,15.4405285 C7.32160275,15.4475243 7.08253488,15.4584216 6.84319795,15.4654174 C6.47982017,15.4748348 6.11603879,15.4815616 5.75239194,15.4903063 C5.4635463,15.4974366 5.17456612,15.5069886 4.88572047,15.5151952 L3.95810485,15.5399495 C3.67316071,15.5478871 3.38848564,15.5569009 3.10381056,15.5648384 C2.79007603,15.5735832 2.47620696,15.5819243 2.16220335,15.5897273 C1.81106822,15.5983375 1.45993308,15.6093694 1.10879795,15.6146808 C0.820355906,15.6181141 0.551421371,15.3394931 0.546309059,15.0484949 C0.543752903,14.8948565 0.550479629,14.7474066 0.640079629,14.6128721 C0.768829179,14.4200841 0.957581131,14.3318294 1.17700696,14.3233538 C1.63146461,14.3058643 2.08672948,14.3046535 2.54145621,14.2955051 C2.89689645,14.2882402 3.25233669,14.2800336 3.60764239,14.2704817 C3.89648804,14.2630823 4.18533368,14.2537994 4.47431386,14.2457273 L5.40327482,14.2207039 L6.26981176,14.1959495 L7.19877272,14.1710607 C7.48371687,14.1628541 7.76825741,14.1539748 8.05320155,14.1460372 C8.36693609,14.1372925 8.68080515,14.129624 8.99453969,14.1211483 C9.27921476,14.1134799 9.56415891,14.1044661 9.84883398,14.0961249 C10.1710442,14.0876492 10.4931199,14.0801153 10.815061,14.0713706 C11.0874934,14.0638366 11.3599259,14.0584553 11.6320892,14.0464817 C12.1908112,14.0215928 12.7506094,14.0117718 13.2835007,13.8001489 C13.8749145,13.5687495 14.4333673,13.2605309 14.944464,12.8834306 C15.3007115,12.6182631 15.6597841,12.3526919 15.9903355,12.0565814 C16.4489637,11.645982 16.8868736,11.2126462 17.3234382,10.7770234 C17.5864532,10.5111832 17.8295571,10.2252973 18.078446,9.94667628 C18.1656244,9.84967688 18.2456724,9.7472961 18.3441517,9.62715676 C18.2318154,9.505403 18.1341433,9.371003 18.0090262,9.26983303 C17.7656532,9.07273994 17.4976604,9.08457898 17.2183667,9.20808168 C16.9389385,9.33158438 16.6928748,9.51320601 16.4555559,9.70478318 C16.0873349,10.0074859 15.6760628,10.2535495 15.2353277,10.4349021 C14.8706046,10.5818138 14.5070922,10.7337033 14.1326826,10.8530354 C13.6775523,10.9969874 13.2113901,11.1054222 12.7507439,11.2340372 C12.6990826,11.2496432 12.6550898,11.2840841 12.6277793,11.3307676 C12.353867,11.8924492 11.9093649,12.2690114 11.346876,12.5199183 C10.9151547,12.7098811 10.4563919,12.8310967 9.98727002,12.8792601 C9.48585981,12.9342847 8.99978654,12.8588108 8.51398233,12.7614078 C7.70704419,12.5995628 6.94504059,12.3017033 6.18518954,11.9944264 C5.87643278,11.8698474 5.57870786,11.717958 5.27546702,11.5799255 C4.93697813,11.4256144 4.79773488,10.9784216 5.01514269,10.6336096 C5.17860215,10.3748997 5.55852768,10.2799183 5.87858534,10.4179508 C6.53753549,10.7015495 7.19998353,10.980036 7.87359795,11.2258306 C8.2676496,11.3695135 8.68201597,11.4648985 9.09396071,11.5496553 C9.716452,11.6763868 10.3249517,11.5796565 10.8891895,11.2979411 C11.3374586,11.0736721 11.5306502,10.7524036 11.5513685,10.261218 C11.4177757,10.2442667 11.2822994,10.2212613 11.146016,10.2114402 C10.5102058,10.1661021 9.86901416,10.1772685 9.24477392,10.0123291 C8.78089885,9.89003724 8.3681469,9.66913153 7.99440996,9.37544264 C7.59941657,9.06520601 7.21343699,8.74393754 6.82194149,8.42912673 C6.36640756,8.06305826 5.84548984,7.84188348 5.27640876,7.71757357 C4.63239194,7.57698498 4.01232227,7.63348949 3.40853128,7.89367928 C2.94411807,8.09319399 2.51293488,8.3623976 2.12991506,8.69214174 C1.89071266,8.89367447 1.48461937,9.34066793 1.17700696,9.7072048 C0.86939454,10.0737417 0.464212335,9.96255234 0.203518168,9.75953874 C-0.0571759994,9.55652514 -0.0571759994,9.12398628 0.145084236,8.85586461 Z" id="Path" fill="#DDFFFF"></path>
                    <path d="M5.57823685,3.32355459 C5.57796792,3.80115219 5.96488924,4.18874619 6.44248684,4.18901557 C6.92021897,4.18941886 7.30767843,3.80249754 7.3079475,3.32476541 L7.3079475,3.32355459 C7.3079475,2.845957 6.92075711,2.45863207 6.44315951,2.45863207 C5.96542738,2.45863207 5.57823685,2.845957 5.57823685,3.32355459" id="Fill-6" fill="#DDFFFF"></path>
                    <line x1="0.622222222" y1="9.33333333" x2="1.15284788" y2="14.8592111" id="Path-13" stroke="#DDFFFF" stroke-width="1.33333333"></line>
                </g>
            </g>
        </g>
    </g>
</svg>