<?xml version="1.0" encoding="UTF-8"?>
<svg width="16px" height="16px" viewBox="0 0 16 16" version="1.1" xmlns="http://www.w3.org/2000/svg" xmlns:xlink="http://www.w3.org/1999/xlink">
    <!-- Generator: Sketch 59 (86127) - https://sketch.com -->
    <title>icon/signout</title>
    <desc>Created with Sketch.</desc>
    <defs>
        <rect id="path-1" x="0" y="0" width="16" height="16"></rect>
    </defs>
    <g id="客户端" stroke="none" stroke-width="1" fill="none" fill-rule="evenodd">
        <g id="icon/signout">
            <g id="编组-18">
                <mask id="mask-2" fill="white">
                    <use xlink:href="#path-1"></use>
                </mask>
                <use id="蒙版" fill-opacity="0.01" fill="#FFFFFF" xlink:href="#path-1"></use>
                <g mask="url(#mask-2)" fill="#29BDCD" fill-rule="nonzero" id="形状结合">
                    <path d="M12.85,0.1 C13.1932055,0.1 13.4714286,0.378223048 13.4714286,0.721428571 C13.4714286,1.02302985 13.2550798,1.27958678 12.9571787,1.33345102 L12.8499954,1.34285714 L3.53001673,1.24463478 L7.5866533,2.61640194 C8.18186879,2.81766547 8.56538607,3.39193122 8.56538607,4.06249832 L8.51500494,12.671 L12.85,12.6714286 C13.1932055,12.6714286 13.4714286,12.9496516 13.4714286,13.2928571 C13.4714286,13.5944584 13.2550798,13.8510154 12.9571787,13.9048796 L12.8499967,13.9142857 L8.56499995,13.8639278 L8.56538607,14.1315185 C8.56538607,15.0040391 7.92575346,15.7881577 7.10227946,15.9088432 C6.87620452,15.941976 6.64931571,15.9222934 6.437682,15.8507325 L1.77873277,14.275376 C1.18351728,14.0741125 0.8,13.4998467 0.8,12.8292818 L0.8,1.76904762 C0.8,0.907512155 1.45251144,0.189135674 2.30274419,0.1074789 L2.46038961,0.1 L12.85,0.1 Z M2.49023616,2.21100551 L2.44333023,2.21265554 C2.26108941,2.23936413 2.08640909,2.445293 2.04984113,2.67381185 L2.04285714,2.7602594 L2.04285714,12.8292818 C2.04285714,12.9439819 2.07841649,13.0301732 2.13279385,13.0736391 L2.17684367,13.0980054 L6.8357929,14.6733619 C6.86053681,14.681618 6.88944814,14.6839013 6.92205584,14.6791224 C7.10429666,14.6524138 7.27897698,14.4464849 7.31554494,14.2179661 L7.32252893,14.1315185 L7.32252893,4.06249609 C7.32252893,3.94779608 7.28696957,3.86160474 7.23259222,3.81813884 L7.1885424,3.79377257 L2.53584397,2.22008775 L2.49023616,2.21100551 Z M13.2957423,4.6718797 L13.3904316,4.75242553 L15.0066757,6.3686696 C15.2725086,6.63450251 15.3045044,7.05286448 15.0847201,7.35803812 L15.0066757,7.44953283 L13.3904316,9.0657769 C13.0919595,9.36424903 12.6080405,9.36424903 12.3095684,9.0657769 C12.0437355,8.79994399 12.0117397,8.38158202 12.231524,8.07640838 L12.3095153,7.98496687 L12.7410089,7.673 L10.5642857,7.67338693 C10.1807824,7.67338693 9.85805941,7.38930868 9.80663335,7.00938172 L9.8,6.90910121 C9.8,6.52559792 10.0840782,6.20287491 10.4640052,6.15144885 L10.564267,6.1448155 L12.7056451,6.22935577 L12.3095684,5.83328875 C12.0437355,5.56745585 12.0117397,5.14909388 12.231524,4.84392023 L12.3095684,4.75242553 C12.5754013,4.48659263 12.9937633,4.45459685 13.2957423,4.6718797 Z"></path>
                </g>
            </g>
        </g>
    </g>
</svg>
