<?xml version="1.0" encoding="UTF-8"?>
<svg width="12px" height="12px" viewBox="0 0 12 12" version="1.1" xmlns="http://www.w3.org/2000/svg" xmlns:xlink="http://www.w3.org/1999/xlink">
    <!-- Generator: Sketch 59 (86127) - https://sketch.com -->
    <title>tips@2x</title>
    <desc>Created with Sketch.</desc>
    <g id="页面-2" stroke="none" stroke-width="1" fill="none" fill-rule="evenodd">
        <g id="销售信息维护-2" transform="translate(-901.000000, -248.000000)">
            <g id="提示反馈-01" transform="translate(901.000000, 248.000000)">
                <circle id="Oval" fill="#BCC2CB" opacity="0.9" cx="6" cy="6" r="6"></circle>
                <path d="M4.08515621,5.12702846 C4.08515621,5.12702846 5.84265063,4.16109149 6.84624343,5.12702846 C7.35155544,5.61312175 7.04186902,6.51452714 6.72655643,7.34890135 C6.05281051,9.33625063 6.59186898,9.50250086 7.67155506,9.07687627 L7.67155506,9.07687627 L7.58655518,9.57062541 C7.58655518,9.57062541 5.82906076,10.5367182 4.82546796,9.57062541 C4.32015595,9.08453212 4.62984237,8.18312321 4.94515496,7.34890487 C5.61874455,5.36140324 5.07984311,5.19515301 4,5.6207776 L4,5.6207776 Z M6.71468535,2 C7.26895474,2 7.71827814,2.4493234 7.71827814,3.0035928 L7.71827814,3.0035928 L7.71152625,3.12063305 C7.65355365,3.61975884 7.22936407,4.00718565 6.71468535,4.00718565 C6.16041595,4.00718565 5.71109255,3.55786225 5.71109255,3.00359285 L5.71109255,3.00359285 L5.71784445,2.8865526 C5.77581705,2.38742681 6.20000662,2 6.71468535,2 Z" id="Combined-Shape" fill="#FFFFFF" fill-rule="nonzero"></path>
            </g>
        </g>
    </g>
</svg>
