<?xml version="1.0" standalone="no"?><!DOCTYPE svg PUBLIC "-//W3C//DTD SVG 1.1//EN" "http://www.w3.org/Graphics/SVG/1.1/DTD/svg11.dtd"><svg t="1583390929632" class="icon" viewBox="0 0 1024 1024" version="1.1" xmlns="http://www.w3.org/2000/svg" p-id="2663" width="48" height="48" xmlns:xlink="http://www.w3.org/1999/xlink"><defs><style type="text/css"></style></defs><path d="M902.095 652.871l-250.96-84.392s19.287-28.87 39.874-85.472c20.59-56.606 23.539-87.689 23.539-87.689l-162.454-1.339v-55.487l196.739-1.387v-39.227H552.055v-89.29h-96.358v89.294H272.133v39.227l183.564-1.304v59.513h-147.24v31.079h303.064s-3.337 25.223-14.955 56.606c-11.615 31.38-23.58 58.862-23.58 58.862s-142.3-49.804-217.285-49.804c-74.985 0-166.182 30.123-175.024 117.55-8.8 87.383 42.481 134.716 114.728 152.139 72.256 17.513 138.962-0.173 197.04-28.607 58.087-28.391 115.081-92.933 115.081-92.933l292.486 142.041c-11.932 69.3-72.067 119.914-142.387 119.844H266.37c-79.714 0.078-144.392-64.483-144.466-144.194V266.374c-0.074-79.72 64.493-144.399 144.205-144.47h491.519c79.714-0.073 144.396 64.49 144.466 144.203v386.764z m-365.76-48.895s-91.302 115.262-198.879 115.262c-107.623 0-130.218-54.767-130.218-94.155 0-39.34 22.373-82.144 113.943-88.333 91.519-6.18 215.2 67.226 215.2 67.226h-0.047z" fill="#02A9F1" p-id="2664"></path></svg>