<?xml version="1.0" standalone="no"?><!DOCTYPE svg PUBLIC "-//W3C//DTD SVG 1.1//EN" "http://www.w3.org/Graphics/SVG/1.1/DTD/svg11.dtd"><svg t="1595475960959" class="icon" viewBox="0 0 1024 1024" version="1.1" xmlns="http://www.w3.org/2000/svg" p-id="19738" xmlns:xlink="http://www.w3.org/1999/xlink" width="200" height="200"><defs><style type="text/css"></style></defs><path d="M840.49824219 318.23193359c-7.10244141-6.81503906-19.32890625-12.57539063-34.66845703-12.57539062 0 0 18.646875-0.02548828 32.65048828-11.56113281 8.64228516-7.1296875 15.33251953-19.48359375 15.33251953-36.43242188 0 0-0.03867188 22.75224609 15.34130859 36.94130859 7.06552734 6.51445313 18.34365234 11.053125 32.66191407 11.053125 0 0-18.27333984 0.52734375-32.15830079 11.55761719-9.02724609 7.16396484-15.84492188 19.55654297-15.84492187 36.44560547 0.00087891 0 1.51083984-21.22119141-13.31455078-35.42871094" fill="#0391FD" p-id="19739"></path><path d="M97.23095703 459.18652344c-5.57841797-5.34375-15.16904297-9.86044922-27.19072266-9.86044922 0 0 14.61269531-0.02636719 25.60253907-9.07558594 6.76230469-5.57402344 12.02695312-15.26572266 12.02695312-28.57236328 0 0-0.03603516 17.86025391 12.04013672 28.98105469 5.52832031 5.10380859 14.38681641 8.66601563 25.59023438 8.66601562 0 0-14.31210937 0.40341797-25.2131836 9.06152344-7.05498047 5.61972656-12.41630859 15.32988281-12.41630859 28.56708984-0.00087891 0.00087891 1.18652344-16.64560547-10.43964844-27.76728515M896.49775391 592.28984375c-2.82480469-3.05771484-7.70273438-5.63642578-13.82080078-5.63642578 0 0 7.43466797-0.00966797 13.01132812-5.19169922 3.47167969-3.18427734 6.11806641-8.71435547 6.11806641-16.30371094 0 0-0.01669922 10.19003906 6.12070312 16.5375 2.840625 2.91181641 7.32304688 4.95791016 13.02714844 4.95791016 0 0-7.28876953 0.23115234-12.83554688 5.17412109-3.5859375 3.22294922-6.32021484 8.75654297-6.32021484 16.32304688 0.00966797 0.00527344 0.63369141-9.49482422-5.30068359-15.86074219" fill="#CEE0F4" p-id="19740"></path><path d="M101.36884766 614.11660156c-3.38291016-3.23525391-9.15732422-5.95283203-16.43027344-5.95283203 0 0 8.81982422-0.00791016 15.45820312-5.47822266 4.10361328-3.37324219 7.27119141-9.23203125 7.27119141-17.26611328 0 0-0.01933594 10.77890625 7.26943359 17.48935547 3.346875 3.09462891 8.69150391 5.24707031 15.46435547 5.24707031 0 0-8.64316406 0.24521484-15.22177734 5.4703125-4.28203125 3.40136719-7.50322266 9.26894531-7.50322266 17.25820313-0.00878906-0.00175781 0.71191406-10.05205078-6.30791015-16.76777344" fill="#0391FD" p-id="19741"></path><path d="M956.36621094 733.85966797c0-28.67783203-24.78515625-52.4390625-57.28271485-57.05332031-0.9-21.83642578-22.16601563-39.31962891-48.32314453-39.31962891-26.75039063 0-48.42070313 18.25048828-48.42070312 40.72851563 0 14.07919922 8.57988281 26.37861328 21.47519531 33.68847656a4.07988281 4.07988281 0 0 0-0.27773437 0.65478515c-77.96777344-16.25537109-188.47353516-26.42080078-311.11347657-26.42080078-85.81289062 0-165.71601562 4.98164062-232.67021484 13.54394532-2.56640625-30.02431641-32.24619141-53.73457031-68.59160156-53.73457032-35.00859375 0-63.85605469 22.02011719-68.23564454 50.45888672-17.28720703 6.21210937-29.39589844 20.64023437-29.39589843 37.45195313 0 1.97929688 0.22412109 3.89970703 0.54404297 5.80253906C95.29208984 749.11660156 84.93945312 759.40859375 84.93945312 770.17871094c0 46.40449219 191.38974609 84.04628906 427.48330079 84.04628906 233.91035156 0 423.91054687-36.93603516 427.42089843-82.75166016 10.2796875-10.13027344 16.52255859-23.25673828 16.5225586-37.61367187" fill="#F0EFEF" p-id="19742"></path><path d="M876.2328125 756.2375c0 22.190625-155.43105469 40.19150391-347.13017578 40.19150391-191.72373047 0-347.12226563-18.00087891-347.12226563-40.19150391 0-22.19150391 155.41083984-40.17304687 347.12226563-40.17304688 191.71669922-0.00966797 347.13017578 17.98154297 347.13017578 40.17304688" fill="#DFDFDF" p-id="19743"></path><path d="M252.24189453 657.828125s-1.97753906-1.18916016-5.93173828-3.16669922l3.16142578-5.53271484c3.56220703 1.97578125 5.53886719 3.16230469 5.53886719 3.16230468l-2.76855469 5.53710938z m-17.39970703-9.8859375c-3.5578125-1.97578125-7.11738281-4.74345703-11.07070313-7.12089844l3.55869141-5.53271484c3.95419922 2.76591797 7.51201172 5.13984375 10.6734375 7.11738281l-3.16142578 5.53623047z m-21.74941406-15.02929688c-3.55605469-2.36953125-6.721875-5.13896484-10.27792969-8.30039062l4.34794922-5.14160156c3.56044922 2.76767578 6.721875 5.53535156 10.28320312 7.90927734l-4.35322265 5.53271485z m-20.56201172-17.00068359c-3.16230469-3.1640625-6.32373047-5.93261719-9.48691406-9.48867187l4.74521484-4.35146485c3.1640625 3.16230469 5.93173828 6.32636719 9.09316406 9.09404297l-4.35146484 4.74609375z m-18.18720703-19.37285156c-2.7703125-3.56044922-5.53798828-7.12089844-7.90927735-10.67607422l5.53798828-3.56132812c2.37128906 3.56132813 4.74169922 6.721875 7.51025391 10.28232421l-5.13896484 3.95507813z m-15.02578125-22.54042969c-1.97666016-4.35146484-3.95332031-8.30566406-5.13984375-12.65361328l6.32460937-1.97753906c1.18740234 3.95507813 2.7703125 7.90839844 4.74521485 11.47060547l-5.92998047 3.16054687z m-8.30566407-25.70185547c-0.39375-3.16318359-0.78837891-6.32988281-0.7883789-9.4930664v-4.34707032l6.32373047 0.39462891v3.95244141c0 2.76855469 0.39462891 5.53974609 0.79277343 8.30742187l-6.328125 1.18564453z m8.30566407-25.30986328l-6.32900391-1.97490234c1.19003906-4.34882812 2.76855469-8.70205078 5.14423828-12.6553711l5.93261719 2.76855469c-2.3765625 3.95419922-3.95595703 7.90927734-4.74785156 11.86171875z m624.36445312-15.02402344H770.63574219v-6.32636718h12.65273437l0.39375 6.32636718z m13.05263672-0.39375v-6.32988281c4.34707031 0 8.69765625 0 13.04824219-0.39199219l0.39375 6.32460938c-4.34707031 0.39726563-8.70117188 0.39726563-13.44199219 0.39726562z m-39.14824219 0c-4.34794922 0-8.69853516-0.39726563-13.04912109-0.39726562l0.39462891-6.32460938c4.35058594 0 8.69853516 0.39199219 13.04824218 0.39199219l-0.39375 6.32988281z m65.63759766-0.79277343l-0.39199219-6.32636719c4.34707031-0.39462891 8.69941406-0.39462891 13.04824219-0.79101563l0.39726562 6.3272461c-3.95507813 0.39199219-8.69941406 0.39199219-13.05351562 0.79013672z m-92.13222656-0.39814453c-4.34794922-0.39287109-8.69941406-0.39287109-13.04824219-0.7875l0.39462891-6.32988282c4.35058594 0.39550781 8.69765625 0.39550781 13.05263671 0.79189453l-0.39902343 6.32548829z m-26.09560547-1.57763672c-4.35234375-0.39638672-8.69853516-0.79013672-13.04824219-0.79013672l0.39375-6.3272461c4.34794922 0.39638672 8.69853516 0.79189453 13.04824219 0.79189454l-0.39375 6.32548828z m144.72333984-0.39726563l-0.79277344-6.32460937c4.35234375-0.39638672 8.69941406-1.18828125 12.65361329-1.97753907l1.18740234 6.32548829c-4.35058594 0.78925781-8.69853516 1.58291016-13.04824219 1.97666015z m-170.82333984-1.57939453l-13.04648438-1.18740234 0.78925782-6.3272461 13.04824218 1.18652344-0.79101562 6.328125z m-508.11328125-0.79277344l-4.34794922-4.74521484c2.76767578-2.76591797 6.72275391-5.53535156 11.07158203-7.91015625l3.56044922 5.53798828c-4.35322266 2.37216797-7.51552734 4.74433594-10.28408203 7.11738281z m481.62304687-1.58203125l-13.05263671-1.18740234 0.79101562-6.32460938 13.05 1.18564454-0.78837891 6.32636718z m223.41181641-0.3946289l-1.58378906-6.328125c4.34794922-1.18564453 8.69941406-1.97578125 12.25634765-3.16230469l1.97666016 6.32548828a84.00585938 84.00585938 0 0 1-12.64921875 3.16494141z m-249.51005859-2.37304688c-4.34794922-0.39550781-8.70117188-1.18652344-13.0491211-1.58115234l0.79101563-6.3272461c4.34619141 0.39462891 8.69853516 1.18740234 13.04736328 1.58203125l-0.78925781 6.32636719z m-26.09736328-3.16230469c-4.35146484-0.39638672-8.70029297-1.18740234-13.05087891-1.58203125l0.78925781-6.32636718c4.34970703 0.39550781 8.69941406 1.18652344 13.05175781 1.58203125l-0.79013671 6.32636718z m300.91113281-3.1640625l-3.1631836-5.93173828c3.95507813-1.97753906 7.11914063-4.34707031 9.4921875-7.11738281l4.74257813 4.35058594c-2.37041016 3.5578125-5.93085937 6.32724609-11.07158203 8.69853515z m-326.61386719-0.3946289c-4.35322266-0.79189453-8.69941406-1.18740234-13.04912109-1.97578125l0.7875-6.3272461c4.35058594 0.78837891 8.69941406 1.18564453 13.05175781 1.97753907l-0.79013672 6.32548828z m-382.37167969-2.37304688l-2.76767578-5.93085937c3.95419922-1.97753906 7.90839844-3.5578125 12.25898438-5.14248047l2.37304687 5.93085937c-4.34970703 1.97841797-8.30302734 3.56132813-11.86435547 5.14248047z m356.27167969-1.58115234c-4.34619141-0.79101563-8.69677734-1.18740234-13.04824219-1.97753906l1.18740235-6.32636719c4.35146484 0.78925781 8.69853516 1.58027344 13.05175781 1.97753906l-1.19091797 6.32636719z m-26.09736328-4.34970703l-13.04736328-2.37392578 1.18564453-6.32636719 13.04736328 2.37304687-1.18564453 6.3272461z m-306.05449219-3.5578125l-2.37128906-6.328125c3.95507813-1.58027344 8.30302734-2.76679687 12.65361328-3.95419922l1.97753906 6.328125c-4.35146484 1.18476562-8.30566406 2.37041016-12.25986328 3.95419922z m280.35439453-0.79277344l-13.04912109-2.37304687 1.18652344-6.32636719 13.04648437 2.37216797-1.18388672 6.32724609z m-25.70273437-5.13896484c-4.34882812-0.79189453-8.70029297-1.58291016-13.04736328-2.7694336l1.18388672-6.32636718c4.34794922 0.79189453 8.69941406 1.58027344 12.65273437 2.76855468l-0.78925781 6.3272461z m-229.73730469-1.97753907l-1.58291016-6.32724609c3.95419922-1.18828125 8.30126953-2.37216797 12.65449219-3.5578125l1.57939453 6.32460938c-4.34970703 1.18740234-8.69677734 2.37392578-12.65097656 3.56044921z m670.23632813-1.97753906v-0.79013672c-0.39814453-3.16318359-1.58378906-6.32724609-3.95332032-9.49042968l5.13984375-3.95419922c2.76855469 3.95419922 4.74433594 8.30302734 5.13984375 12.65273437v1.18740235l-6.32636718 0.3946289z m-466.20175782-1.18652344c-4.34794922-0.78925781-8.69941406-1.97753906-12.65273437-2.76503906l1.58378906-6.32724609c4.34707031 0.78837891 8.30039063 1.97666016 12.65273438 2.76503906l-1.58378907 6.32724609z m-179.12373047-3.16318359l-1.18652343-6.32724609c4.34882812-1.18476562 8.30390625-1.97753906 12.65097656-3.16230469l1.58378906 6.32373047c-4.34794922 1.18828125-8.69941406 1.97841797-13.04824219 3.16582031z m153.421875-2.76767578c-4.34707031-1.18652344-8.69853516-1.97753906-12.65361328-3.16318359l1.58378907-6.3272461c4.34794922 1.18388672 8.30302734 1.97753906 12.65273437 3.1631836l-1.58291016 6.32724609z m-127.72001953-3.16318359l-1.18564453-6.3272461c4.34794922-0.79277344 8.69677734-1.58115234 13.04824219-2.76855469l1.18564453 6.32636719c-4.74433594 1.18828125-8.69853516 1.97753906-13.04824219 2.7694336z m102.01816407-3.1640625c-4.34794922-1.18564453-8.69853516-2.37041016-12.65273438-3.1631836l1.58291016-6.32636719c4.34794922 1.18652344 8.30302734 2.37216797 12.65537109 3.16494141l-1.58554687 6.32460938z m-76.3163086-1.97929688l-1.18476562-6.32373047 13.04736328-2.37128906 1.18652344 6.32724609a413.90595703 413.90595703 0 0 0-13.0491211 2.36777344z m581.26728516-2.76503906c-3.16318359-1.97753906-6.72363281-3.95507813-11.07158203-5.93085938l2.76503906-5.93085937c4.35146484 1.97666016 8.69941406 4.34882812 11.86347656 6.32636719l-3.55693359 5.53535156z m-555.56542969-1.97841797l-1.18300781-6.32636719c4.34707031-0.79013672 8.69501953-1.58027344 13.04736328-1.97666015l0.79101562 4.74609375 1.97753907-6.32636719c3.55517578 1.18476562 7.11650391 1.97666016 11.07246093 3.16142578l-0.79189453-3.5578125c4.34619141-0.79189453 8.69941406-1.18564453 13.04824219-1.97753906l0.78925781 6.32636718c-4.3453125 0.79013672-8.29951172 1.18564453-12.25458984 1.97753907l-1.19003906 3.95332031c-4.34619141-1.18564453-8.30126953-2.37216797-12.65097657-3.55693359l0.39550782 1.58027343c-4.34970703 0.79101563-8.70205078 1.58203125-13.05087891 1.97666016z m0-7.51113281c-4.35146484-1.18828125-8.30478516-2.76767578-12.65273437-3.95419922l1.97841796-6.3272461c3.95332031 1.18476562 8.29951172 2.76591797 12.25458985 3.95419922l-1.58027344 6.3272461z m51.80097656-0.39550782l-0.79277343-6.32636718c4.35146484-0.79189453 8.69941406-1.18652344 13.05263671-1.58203125l0.7875 6.32724609c-4.34970703 0.39199219-8.69677734 1.18476562-13.04736328 1.58115234z m480.83027344-0.79189453c-3.95244141-1.18476562-7.90751953-2.37216797-12.26074219-3.5586914l1.58378907-6.328125c4.34882812 1.18916016 8.69941406 2.37480469 12.65361328 3.95507812l-1.97666016 5.93173828z m-455.12929687-2.37392578l-0.79189454-6.32460937c4.35146484-0.39638672 8.69941406-1.18916016 13.05175782-1.58466797l0.7875 6.328125c-4.34619141 0.39638672-8.69414062 0.79277344-13.04736328 1.58115234z m26.09912109-3.16142578l-0.79101563-6.328125c4.34794922-0.39462891 8.69853516-0.78925781 13.04824219-1.58203125l0.79277344 6.32724609c-4.35322266 0.79013672-8.70117188 1.18740234-13.05 1.58291016z m404.11494141-1.18652344c-3.9515625-0.79101563-8.30039063-1.58291016-12.65009766-2.37216797l1.18740234-6.32636718 13.0491211 2.37216797-1.58642578 6.32636718z m-532.62685547 0c-4.35146484-1.58291016-8.30566406-2.76855469-12.25898438-4.34970703l2.37480469-5.93173828c3.95419922 1.58203125 7.90839844 2.76679687 12.25722656 4.35058594l-2.37304687 5.93085937z m154.60927734-1.58291015l-0.79101562-6.32460938 13.04912109-1.18740234 0.78837891 6.32636719-13.04648438 1.18564453z m26.09648438-2.36953125l-0.7875-6.72451172 13.04824218-1.18388672 0.39462891 6.32548828c-3.95595703 0.78925781-8.30390625 1.18564453-12.65537109 1.58291016z m326.22011718-0.39726563c-4.34794922-0.79189453-8.30039063-1.18652344-13.04824218-1.58115234l0.79101562-6.328125c4.34794922 0.39726563 8.69941406 1.18740234 13.04912109 1.58115234l-0.79189453 6.328125z m-300.12011718-1.97666015l-0.39814454-6.3272461c4.35058594-0.39462891 8.70029297-0.79101563 13.05439454-0.79101562l0.39111328 6.32724609c-4.34882812 0.39462891-8.70029297 0.79101563-13.04736328 0.79101563z m274.41738281-1.18740235l-13.0491211-1.18476562 0.39726563-6.3272461 13.04912109 1.18652344-0.39726562 6.32548828z m-248.32265625-0.39375l-0.3928711-6.32636719c4.34707031-0.39550781 8.69765625-0.39550781 13.04736329-0.79189453l0.3946289 6.3272461c-4.34794922 0-8.69677734 0.39550781-13.04912109 0.79101562z m-257.81484375-1.18740234c-4.34794922-1.97666016-8.30126953-3.55869141-12.25634766-5.13896485l2.37216797-5.93085937c3.95419922 1.58027344 7.90839844 3.16142578 11.86259766 5.13896484l-1.97841797 5.93085938z m283.91572265-0.39726563l-0.39726562-6.32460937c4.35058594-0.39462891 8.69765625-0.39462891 13.04648437-0.79101563l0.39990235 6.32636719c-4.35322266 0.39638672-8.70029297 0.39638672-13.0491211 0.78925781z m196.12705079-0.39287109c-4.34970703-0.39638672-8.70117188-0.39638672-13.05-0.79277344l0.39287109-6.32636719c4.35234375 0.39638672 8.69941406 0.39638672 13.05 0.79277344l-0.39287109 6.32636719z m-170.03056641-1.18652344l-0.39375-6.328125c4.34707031 0 8.69589844-0.39199219 13.04912109-0.39199219l0.3928711 6.32373047c-4.34970703 0.39638672-8.70117188 0.39638672-13.04824219 0.39638672z m143.93320312-0.39638672c-4.35146484 0-8.69765625-0.39375-13.0508789-0.39375l0.39726562-6.32636718c4.34619141 0 8.69941406 0.39638672 13.04736328 0.39638671l-0.39375 6.32373047z m-117.83759765-0.39375v-6.32636718c4.35234375 0 8.69765625-0.39638672 13.05175781-0.39638672v6.32548828c-4.35234375 0-8.69941406 0.39726563-13.05175781 0.39726562z m91.73847656-0.39726562c-4.34970703 0-8.70029297 0-13.05087891-0.39462891v-6.32724609c4.34882812 0 8.69941406 0 13.05087891 0.39638672v6.32548828z m-65.24472656-0.39462891v-6.32724609h13.04912109v6.32724609h-13.04912109z m39.14824219 0h-13.04824219v-6.32724609h13.04824219v6.32724609z m-425.8678711-7.1165039c-3.95419922-1.97753906-8.30039063-3.95332031-11.86347656-5.93085938l3.1640625-5.93261719c3.56132813 1.97753906 7.51464844 3.95507813 11.46884766 5.93261719l-2.7694336 5.93085938z m-23.72607422-12.25898438c-3.95332031-2.37216797-7.90839844-4.74521484-11.06982422-7.12001953l3.95332032-5.13808594c3.16318359 2.37304688 6.72275391 4.74521484 10.67695312 7.11650391l-3.56044922 5.14160156z m-21.74589843-15.81679687a68.53710938 68.53710938 0 0 1-9.09316407-9.8859375l5.13808594-3.95419922c2.37128906 3.16318359 5.13984375 5.93173828 8.30214844 9.09316406l-4.34707031 4.74697266z m-15.42480469-22.14228516c-0.7875-2.76855469-1.18476562-5.14072266-1.18476563-7.90927734 0-2.37304688 0.39726563-4.35146484 0.79189453-6.72275391l6.32285157 1.58203125c-0.39287109 1.58115234-0.39287109 3.1640625-0.3928711 5.14072266 0 1.97578125 0.39287109 3.95332031 0.79277344 5.92998046l-6.32988281 1.97929688z m11.46972656-24.12246094l-5.53798828-3.5586914c2.3765625-3.95332031 5.14511719-7.51201172 7.91015625-11.06982422l5.14248047 3.95332031c-2.76943359 3.95419922-5.53798828 7.11650391-7.51464844 10.67519531z m587.98916016-12.65273437c-4.35058594-0.39462891-8.69765625-0.39462891-13.04736328-0.79013672l0.39199218-6.3272461c4.34882812 0.39550781 8.70117188 0.79189453 13.0491211 0.79189454l-0.39375 6.32548828z m-26.49375-1.97666016l-13.0491211-1.18740234 0.79013672-6.328125 13.05 1.19003906-0.79101562 6.32548828z m-26.09560547-3.16494141c-4.35146484-0.39462891-8.69941406-1.18388672-13.05175781-1.58027343l0.78925781-6.32548828c4.35234375 0.39462891 8.70029297 1.18564453 13.04912109 1.57939453l-0.78662109 6.32636718z m-519.58300781-1.97666015l-4.74697266-4.74433594c3.1640625-3.1640625 6.32988281-6.32724609 9.88505859-9.09580078l3.95507813 5.14160156c-3.16142578 3.1640625-6.32460937 5.93349609-9.09316406 8.69853516z m493.87939453-1.58115235c-4.35058594-0.79277344-8.69941406-1.18388672-13.05263672-1.97666015l0.79013672-6.3272461c4.35322266 0.79189453 8.70029297 1.18740234 13.04912109 1.97753907l-0.78662109 6.32636718z m-26.1-3.55957031l-13.04736328-1.97666015 1.18564453-6.32636719 13.04824218 1.97753906-1.18652343 6.32548828z m-26.09560547-4.34794922l-13.04824219-1.97753906 1.18652344-6.32636719 13.0508789 1.97666016-1.18916015 6.32724609z m-25.70273438-4.35058593l-13.04736328-2.37304688 1.18564453-6.32373047 13.05 2.36953125-1.18828125 6.3272461z m-396.21005859-1.97753907L251.84375 298.390625c3.55957031-2.37480469 7.51376953-4.74521484 11.46796875-6.72275391l3.16318359 5.93173828c-3.95419922 1.97666016-7.51025391 3.95332031-11.07070312 6.32636719z m370.50820312-2.37304687l-13.04912109-2.37128906 1.18652344-6.32636719 13.04736328 2.37392578-1.18476563 6.32373047z m-26.09912109-4.74257813l-13.04912109-2.37392578 1.18652343-6.32636719 13.05175782 2.37392579-1.18916016 6.32636718z m-25.70361328-4.35146484l-13.04824219-1.97578125 1.18652344-6.328125 13.05175781 1.97666016-1.19003906 6.32724609z m-296.16591797-0.39462891l-2.37480469-5.93261718c3.95507813-1.57939453 8.30566406-3.16142578 12.25986328-4.74345704l1.97666016 6.32636719c-3.95419922 1.18652344-7.90751953 2.76943359-11.86171875 4.34970703z m270.07119141-3.56044922c-4.34707031-0.79013672-8.69941406-1.18388672-13.04824219-1.97666015l0.79013672-6.32636719c4.34794922 0.79189453 8.69677734 1.18564453 13.04912109 1.97578125l-0.79101562 6.32724609z m-25.70449219-3.9515625c-4.34707031-0.79277344-8.69853516-1.18740234-13.04736328-1.97753906l0.79101562-6.32724609c4.34794922 0.39638672 8.69589844 1.18740234 13.04824219 1.97753906l-0.79189453 6.32724609z m-219.85048828-0.79277343l-1.58203125-6.32460938c4.34619141-1.18740234 8.69941406-2.37216797 13.04736328-3.16582031l1.18564453 6.328125c-4.34882812 0.79013672-8.69677734 1.97666016-12.65097656 3.16230469z m194.15039062-2.76591797c-4.34882812-0.39638672-8.70117188-1.18828125-13.04912109-1.58203125l0.79013672-6.3272461c4.34882812 0.39638672 8.69677734 1.18476562 13.05 1.58115235l-0.79101563 6.328125z m-168.84492187-2.76855469l-1.18564453-6.32636719c4.34619141-0.79101563 8.69853516-1.18564453 13.04824218-1.97841797l0.79101563 6.3272461c-4.34794922 0.39550781-8.69941406 1.18652344-12.65361328 1.97753906z m142.7484375 0l-13.05439453-1.18564453 0.79189453-6.32636719 13.05 1.18564453-0.7875 6.32636719z m-26.09824219-2.37480469c-4.34970703-0.39199219-8.70029297-0.78837891-13.05-0.7883789l0.39462891-6.3272461c4.35234375 0.39638672 8.70117188 0.39638672 13.05263672 0.79101563l-0.39726563 6.32460937z m-90.94833984-0.7883789l-0.39462891-6.3272461c4.34794922-0.39550781 8.69941406-0.79101563 13.04824219-0.79101562l0.39375 6.32548828c-4.74169922 0-9.09316406 0.39638672-13.04736328 0.79277344z m64.84921875-0.79277344c-4.35146484 0-8.69941406-0.39375-13.04648438-0.39375v-6.32636719c4.34619141 0 8.69501953 0.39462891 13.04648438 0.39462891v6.32548828z m-39.14736328-0.78837891v-6.32636718h13.05v6.32636718h-13.05z m448.40917968 54.17138672h-6.72451172l0.39462891-6.32724609h6.32988281v6.32724609z" fill="#CCE1FF" p-id="19744"></path><path d="M661.10292969 558.575l-248.32265625 0.79101563c-2.37128906 0-4.74433594-1.97753906-4.74433594-4.74433594v-5.93173828c0-2.37041016 1.97666016-4.74433594 4.74433594-4.74433594l248.32265625-0.78837891c2.37304688 0 4.74609375 1.97841797 4.74609375 4.74257813v5.93173828c-0.39375 2.76767578-2.37216797 4.74345703-4.74609375 4.74345703z" fill="#E6EFFF" p-id="19745"></path><path d="M803.85224609 352.56376953c-29.26318359-32.82011719-70.78271484-76.3171875-110.32294922-122.97568359l-219.8540039 0.79013672-1.58203125 30.44882812 27.67851562 19.37548828-26.09648437 6.32636719 26.09648437 22.93505859-20.95576172 3.55869141-16.20966796 40.72851562-14.63115235-19.37548828-27.67939453-14.63115234 17.79257813-21.35214844-35.98330079-16.21318359 22.93945313-16.21142578-19.38076172-35.19316407-95.29365234 0.39638672c-17.79257813 0-32.03085937 14.63115234-32.03085938 32.42373047l1.18652344 298.14433594c0 17.79433594 14.63115234 32.03261719 32.42460937 32.03261719l461.05927735-1.18828125c17.79521484 0 32.02734375-14.63027344 32.02734375-32.42548828l-1.18476563-207.59414063z" fill="#FFFFFF" p-id="19746"></path><path d="M805.03613281 350.98085937v-0.79013671l-0.79189453-0.79101563c-9.88330078-11.07158203-20.95576172-23.32880859-33.21035156-36.37880859-23.72695313-26.09736328-50.61796875-55.35703125-76.71357422-86.2022461l-0.79013672-0.78925781-223.41269531 0.78925781-1.57939453 34.40390625 24.51357422 17.39707032-25.30458985 6.32724609 25.70273438 22.53691406-17.40058594 2.76855469L461.0234375 348.2140625l-12.25810547-16.21230469-25.70273437-13.84013672 18.18720703-21.35126953-34.79589844-15.81679687 21.35126953-15.02753907-21.35126953-38.35546875-96.8765625 0.39550782c-9.09404297 0-17.79433594 3.55957031-24.51796875 10.2805664-6.32548828 6.72099609-9.88505859 15.42128906-9.88505859 24.51621094l1.18476562 298.14873047c0 9.09404297 3.56132813 17.79433594 10.28320313 24.51357422 6.71835937 6.721875 15.41953125 10.28144531 24.51357422 10.28144531l460.26914062-2.76679687c18.97998047 0 34.40302734-15.81679687 34.40302734-34.79677735l-0.79189453-207.20214843z m-41.25849609 238.45429688l-445.39013672 1.17246094c-7.63857422 0-14.89482422-3.12451172-20.24384766-8.58164063-5.34462891-5.46064453-8.40498047-12.86894531-8.40498047-20.66660156l-1.14433593-294.02753906c0-7.79853516 3.05507813-15.20771484 8.40322265-20.66748047 5.34990234-5.46064453 12.60527344-8.57900391 20.24472657-8.57900391l79.40654296-0.34189453 5.14511719-0.02197265 16.48564453 27.30234375-24.65771484 18.30058593 35.57724609 16.80996094-15.62871093 20.12431641 30.6149414 18.55458984 18.26982422 21.65625 20.55234375-44.49199219 24.97675781-5.56699218-25.26240234-22.12294922 24.56367187-7.06552735-27.13271484-24.47753906 0.8578125-19.82988281H686.62109375c25.21230469 30.02607422 50.80429687 58.88144531 73.72089844 84.22822265 11.07949219 12.87158203 21.77490234 24.56894531 31.32421875 35.48671875l0.76640625 203.16621094c-0.00527344 16.3828125-12.60966797 29.63935547-28.65498047 29.63935547z" fill="#A9B1B6" p-id="19747"></path><path d="M801.47568359 348.60869141c-0.7875 5.93261719-5.93173828 9.88681641-11.46533203 9.49042968L684.43261719 347.02753906c-5.92822266-0.78925781-9.8859375-5.93261719-9.4913086-11.46796875l8.69853516-95.69091797c0.79101563-5.93085937 5.93261719-9.88505859 11.46972656-9.49042968l106.36611328 118.23046875z" fill="#EDEEEE" p-id="19748"></path><path d="M697.48173828 229.19169922l-0.79013672-0.79013672h-0.7883789c-7.12089844-0.79013672-13.44462891 4.34882812-14.23564454 11.46708984l-8.70029296 95.69091797c-0.39375 3.56044922 0.79101563 6.72275391 2.76855468 9.48867188 2.37480469 2.76943359 5.14072266 4.35234375 8.69853516 4.74697265l105.57685547 10.67695313h1.18828125c6.32373047 0 12.25546875-4.74433594 13.04648437-11.46796875v-1.18652344l-106.76425781-118.62597656zM787.14160156 350.73388672c-1.40976562 1.05908203-3.53056641 1.76572266-5.29365234 1.41328125L687.60986328 342.265625a6.17871094 6.17871094 0 0 1-4.94033203-2.47236328c-1.05644531-1.41152344-1.76484375-3.5296875-1.41152344-5.29541016l7.76601563-85.41298828c0.35068359-3.52880859 3.53056641-6.35273437 7.05849609-6.35273437l93.53232422 104.11875c-0.35332031 1.41152344-1.06171875 2.82480469-2.47324219 3.88300781z" fill="#A9B1B6" p-id="19749"></path><path d="M776.96298828 766.56816406H294.94619141c-11.86347656 0-21.74765625-9.88417969-21.74765625-21.74677734L240.77128906 536.82910156c0-11.86347656 9.88681641-21.74853516 21.75029297-21.74853515h551.21484375c11.86259766 0 21.74765625 9.88505859 21.74765625 21.74853515l-36.77167969 207.99140625c-0.39814453 11.86347656-9.88681641 21.74765625-21.74941406 21.74765625z" fill="#EDEEEE" p-id="19750"></path><path d="M813.73642578 512.70927734h-551.21484375c-13.44287109 0-24.11982422 10.67519531-24.11982422 24.51796875l32.42548828 207.59326172c0 13.44375 10.67255859 24.11894531 24.11894532 24.11894532h482.01679687c13.04824219 0 24.11894531-10.67519531 24.11894531-23.72519532l36.77431641-208.38691406c0-13.44287109-10.67695313-24.11806641-24.11982422-24.11806641z m-23.7375 225.30585938c0 10.04326172-8.51484375 18.23115234-18.96767578 18.23115234H299.59648437c-10.45195312 0-18.96767578-8.18789063-18.96767578-18.60380859l-31.73554687-195.33867188c0-10.04677734 8.51308594-18.22763672 18.96416015-18.22763672h539.1694336c10.45195312 0 18.96679688 8.18261719 18.96679687 17.85498047l-35.99472656 196.08398438z" fill="#A9B1B6" p-id="19751"></path><path d="M440.50712891 619.76621094c0 3.38291016 1.45283203 7.24570312 3.86894531 9.6618164 2.41699219 2.41611328 6.28066406 3.86367187 9.66005859 3.86367188 3.37851562 0 7.24394531-1.44667969 9.6600586-3.86367188s3.86367187-6.28066406 3.86367187-9.6618164c0-3.38115234-1.44667969-7.24306641-3.86367187-9.65917969-2.41611328-2.41347656-6.28154297-3.86367187-9.6600586-3.86367187-3.38115234 0-7.24394531 1.45019531-9.66005859 3.86367187-2.41523437 2.89775391-3.86894531 6.27978516-3.86894531 9.65917969z m159.88886718 0c0 3.38291016 1.44667969 7.24570312 3.86367188 9.6618164s6.27978516 3.86367187 9.65917969 3.86367188c3.38378906 0 7.24658203-1.44667969 9.6618164-3.86367188 2.41611328-2.41611328 3.86191406-6.28066406 3.86191406-9.6618164 0-3.38115234-1.44580078-7.24306641-3.86191406-9.65917969-2.41523437-2.41347656-6.27978516-3.86367187-9.6618164-3.86367187-3.38115234 0-7.24394531 1.45019531-9.65917969 3.86367187-2.41523437 2.89775391-3.86367187 6.27978516-3.86367188 9.65917969zM580.58720703 699.94882812c4.83134766 0 8.69853516-2.89511719 7.73261719-6.27802734-4.35058594-16.90488281-26.0859375-29.94873047-52.16660156-29.94873047-26.0859375 0-47.82041016 13.04384766-52.17011719 29.94873047-0.96240234 3.38291016 2.90214844 6.27802734 7.73085937 6.27802734 3.86279297 0 7.24658203-1.9265625 7.72822266-4.34267578 2.89863281-12.07529297 18.35419922-20.77470703 36.71191406-20.77470703 18.35595703 0 33.32900391 9.17841797 36.71015625 20.77470703 0.47988281 2.41435547 3.86103516 4.34267578 7.72294922 4.34267578z" fill="#A9B1B6" p-id="19752"></path><path d="M168.01806641 487.00654297c0 55.03007812 44.61240234 99.64775391 99.64335937 99.64775391 55.03271484 0 99.64511719-44.61767578 99.64511719-99.64775391 0-55.03623047-44.61240234-99.64599609-99.64511719-99.6459961-55.03095703 0-99.64335937 44.60976563-99.64335937 99.6459961z" fill="#CEE0F4" p-id="19753"></path><path d="M267.66142578 384.98837891c-56.14804687 0-102.01816406 45.86835938-102.01816406 102.01904297 0 56.14980469 45.87011719 102.01640625 102.01816406 102.01640624 56.14980469 0 102.01992188-45.86835938 102.01992188-102.01640624 0-56.15068359-45.87011719-102.01904297-102.01992188-102.01904297z m0 190.72705078c-49.04208984 0-88.70888672-40.02626953-88.70888672-88.70888672 0-49.04384766 40.02539063-88.70888672 88.70888672-88.70888672 49.04384766 0 88.71064453 40.02714844 88.71064453 88.70888672 0 49.04296875-39.66679688 88.70888672-88.71064453 88.70888672z" fill="#0391FD" p-id="19754"></path><path d="M275.56894531 543.15546875c-1.97753906 1.97841797-4.74257812 3.5578125-7.5102539 3.5578125-2.76943359 0-5.53710938-1.18564453-7.51464844-3.16318359-1.97666016-1.97753906-3.1640625-5.14072266-3.1640625-7.91015625 0-2.76679687 1.18740234-5.92998047 3.1640625-7.90576172 1.97753906-1.97666016 4.74521484-3.56132813 7.51464844-3.56132813 2.76855469 0 5.53271484 1.19003906 7.5102539 3.16669922 1.97666016 1.97666016 3.16582031 5.13984375 3.16582031 7.90839844 0 2.76591797-1.18916016 5.93261719-3.16582031 7.90751953z m3.95507813-89.3671875l-4.74257813 54.96679688c0 4.34794922-3.56044922 7.51201172-7.51552734 7.51201171-3.95419922 0-7.51289062-3.1640625-7.90839844-7.51201171l-7.115625-54.96679688c-0.39814453-1.18388672-0.39814453-1.97666016-0.39814453-3.16230469 0-7.90839844 5.93173828-14.63027344 13.83925781-14.63027343s14.23740234 6.32636719 14.23740235 14.23476562c0.00087891 1.58115234-0.39638672 2.7703125-0.39638672 3.5578125z" fill="#0391FD" p-id="19755"></path><path d="M645.87412109 546.71328125c-2.63671875 0-4.74697266 2.11464844-4.74697265 4.22314453v33.26396485c0 2.63847656 2.11025391 4.22841797 4.74697265 4.22841796 2.64023438 0 4.75400391-2.11464844 4.75400391-4.22841796v-33.26396485c0.00087891-2.10849609-2.11376953-4.22314453-4.75400391-4.22314453z m19.53808594 0c-2.64199219 0-4.74697266 2.11464844-4.74697266 4.22314453v33.26396485c0 2.63847656 2.10585937 4.22841797 4.74697266 4.22841796 2.63935547 0 4.753125-2.11464844 4.753125-4.22841796v-33.26396485c0-2.10849609-2.11376953-4.22314453-4.753125-4.22314453z m21.65097656 0c-2.64111328 0-4.75224609 2.11464844-4.75224609 4.22314453v33.26396485c0 2.63847656 2.11113281 4.22841797 4.75224609 4.22841796 2.63847656 0 4.74697266-2.11464844 4.74697266-4.22841796v-33.26396485c0-2.10849609-2.10849609-4.22314453-4.74697266-4.22314453z" fill="#A9B1B6" p-id="19756"></path></svg>