<?xml version="1.0" encoding="UTF-8"?>
<svg width="65px" height="50px" viewBox="0 0 65 50" version="1.1" xmlns="http://www.w3.org/2000/svg" xmlns:xlink="http://www.w3.org/1999/xlink">
    <!-- Generator: Sketch 58 (84663) - https://sketch.com -->
    <title>编组 5</title>
    <desc>Created with Sketch.</desc>
    <defs>
        <filter x="-0.7%" y="-1.4%" width="101.4%" height="102.7%" filterUnits="objectBoundingBox" id="filter-1">
            <feOffset dx="0" dy="1" in="SourceAlpha" result="shadowOffsetOuter1"></feOffset>
            <feGaussianBlur stdDeviation="1.5" in="shadowOffsetOuter1" result="shadowBlurOuter1"></feGaussianBlur>
            <feColorMatrix values="0 0 0 0 0.2471   0 0 0 0 0.2471   0 0 0 0 0.2667  0 0 0 0.15 0" type="matrix" in="shadowBlurOuter1" result="shadowMatrixOuter1"></feColorMatrix>
            <feMerge>
                <feMergeNode in="shadowMatrixOuter1"></feMergeNode>
                <feMergeNode in="SourceGraphic"></feMergeNode>
            </feMerge>
        </filter>
        <circle id="path-2" cx="9" cy="9" r="9"></circle>
        <filter x="-72.2%" y="-61.1%" width="244.4%" height="244.4%" filterUnits="objectBoundingBox" id="filter-3">
            <feOffset dx="0" dy="2" in="SourceAlpha" result="shadowOffsetOuter1"></feOffset>
            <feGaussianBlur stdDeviation="4" in="shadowOffsetOuter1" result="shadowBlurOuter1"></feGaussianBlur>
            <feColorMatrix values="0 0 0 0 0   0 0 0 0 0   0 0 0 0 0  0 0 0 0.1 0" type="matrix" in="shadowBlurOuter1"></feColorMatrix>
        </filter>
    </defs>
    <g id="Components" stroke="none" stroke-width="1" fill="none" fill-rule="evenodd">
        <g id="弹出-5" transform="translate(-1470.000000, -796.000000)">
            <g id="使用场景" transform="translate(664.000000, 264.000000)">
                <g id="场景" filter="url(#filter-1)" transform="translate(24.000000, 25.000000)">
                    <g transform="translate(-19.000000, -141.000000)" id="Notification/Default+Icon/Success备份">
                        <g transform="translate(787.000000, 639.000000)">
                            <g id="编组-5" transform="translate(22.000000, 15.000000)">
                                <g id="编组-3" transform="translate(9.000000, 9.000000)">
                                    <rect id="矩形" fill="#F6F6F6" x="0" y="0" width="38" height="28" rx="3"></rect>
                                    <path d="M2.8,0 L35.2,0 C36.7463973,-2.94860383e-15 38,1.2536027 38,2.8 L38,2.8 L38,2.8 L0,2.8 C-1.8937905e-16,1.2536027 1.2536027,7.28157785e-16 2.8,0 Z" id="矩形" fill="#E2E2E2"></path>
                                    <rect id="矩形" fill="#E1E1E1" x="3.58490566" y="5.6" width="15.0566038" height="20.3"></rect>
                                    <rect id="矩形" fill="#E1E1E1" x="21.509434" y="5.6" width="9.32075472" height="2.8"></rect>
                                    <rect id="矩形" fill="#E1E1E1" x="21.509434" y="9.8" width="13.6226415" height="4.9"></rect>
                                </g>
                                <g id="编组-4">
                                    <g id="椭圆形">
                                        <use fill="black" fill-opacity="1" filter="url(#filter-3)" xlink:href="#path-2"></use>
                                        <use fill="#FFFFFF" fill-rule="evenodd" xlink:href="#path-2"></use>
                                    </g>
                                    <g id="frown" transform="translate(3.000000, 3.000000)" fill-rule="nonzero">
                                        <rect id="矩形" fill="#000000" opacity="0" x="0" y="0" width="12" height="12"></rect>
                                        <path d="M3.375,4.93359375 C3.375,5.24425392 3.62683983,5.49609375 3.9375,5.49609375 C4.24816017,5.49609375 4.5,5.24425392 4.5,4.93359375 C4.5,4.62293358 4.24816017,4.37109375 3.9375,4.37109375 C3.62683983,4.37109375 3.375,4.62293358 3.375,4.93359375 L3.375,4.93359375 Z M7.5,4.93359375 C7.5,5.24425392 7.75183983,5.49609375 8.0625,5.49609375 C8.37316017,5.49609375 8.625,5.24425392 8.625,4.93359375 C8.625,4.62293358 8.37316017,4.37109375 8.0625,4.37109375 C7.75183983,4.37109375 7.5,4.62293358 7.5,4.93359375 L7.5,4.93359375 Z M6,0.75 C3.10078125,0.75 0.75,3.10078125 0.75,6 C0.75,8.89921875 3.10078125,11.25 6,11.25 C8.89921875,11.25 11.25,8.89921875 11.25,6 C11.25,3.10078125 8.89921875,0.75 6,0.75 Z M9.08203125,9.08203125 C8.68125,9.4828125 8.21484375,9.796875 7.69570312,10.0171875 C7.16015625,10.2445312 6.58945312,10.359375 6,10.359375 C5.41054687,10.359375 4.83984375,10.2445312 4.303125,10.0171875 C3.78398437,9.79804687 3.31757812,9.4828125 2.91679687,9.08203125 C2.51601562,8.68125 2.20195312,8.21484375 1.98164062,7.69570313 C1.75546875,7.16015625 1.640625,6.58945313 1.640625,6 C1.640625,5.41054688 1.75546875,4.83984375 1.9828125,4.303125 C2.20195312,3.78398438 2.5171875,3.31757813 2.91796875,2.91679688 C3.31875,2.51601563 3.78515625,2.20195313 4.30429687,1.98164063 C4.83984375,1.75546875 5.41054687,1.640625 6,1.640625 C6.58945312,1.640625 7.16015625,1.75546875 7.696875,1.9828125 C8.21601562,2.20195313 8.68242187,2.5171875 9.08320312,2.91796875 C9.48398437,3.31875 9.79804687,3.78515625 10.0183594,4.30429688 C10.2445312,4.83984375 10.359375,5.41054688 10.359375,6 C10.359375,6.58945313 10.2445312,7.16015625 10.0171875,7.696875 C9.79804687,8.21601562 9.4828125,8.68242187 9.08203125,9.08203125 Z M6,6.24609375 C4.99804687,6.24609375 4.1765625,7.03476563 4.125,8.02265625 C4.12265625,8.0765625 4.16484375,8.12109375 4.21875,8.12109375 L4.78242187,8.12109375 C4.83164062,8.12109375 4.87382812,8.08359375 4.87734375,8.034375 C4.921875,7.45429688 5.40820312,6.99609375 6,6.99609375 C6.59179687,6.99609375 7.07929687,7.45429688 7.12265625,8.034375 C7.12617187,8.08359375 7.16835937,8.12109375 7.21757812,8.12109375 L7.78125,8.12109375 C7.83515625,8.12109375 7.87734375,8.0765625 7.875,8.02265625 C7.8234375,7.03476563 7.00195312,6.24609375 6,6.24609375 Z" id="形状" fill="#F25F28"></path>
                                    </g>
                                </g>
                                <g id="编组-2" transform="translate(25.000000, 32.000000)">
                                    <rect id="矩形" fill="#F25F28" x="0" y="0" width="29" height="8" rx="2"></rect>
                                    <path d="M4,2.0754717 L4,5.9245283 L4.57000238,5.9245283 L4.57000238,3.0296496 L4.5909199,3.0296496 L6.52056097,5.9245283 L7.07487521,5.9245283 L7.07487521,2.0754717 L6.50487283,2.0754717 L6.50487283,4.93800539 L6.48395531,4.93800539 L4.57523176,2.0754717 L4,2.0754717 Z M9.00451628,3.06199461 C8.59662467,3.06199461 8.26717376,3.20215633 8.02139292,3.48247978 C7.77561208,3.7574124 7.65533634,4.10781671 7.65533634,4.53369272 C7.65533634,4.9541779 7.77561208,5.30458221 8.01616354,5.57412399 C8.26717376,5.85444744 8.59662467,6 9.00451628,6 C9.41240789,6 9.74185881,5.85444744 9.99286903,5.57412399 C10.2334205,5.30458221 10.3536962,4.9541779 10.3536962,4.53369272 C10.3536962,4.10781671 10.2281911,3.7574124 9.98763965,3.48247978 C9.74185881,3.20215633 9.41240789,3.06199461 9.00451628,3.06199461 Z M9.00451628,3.5309973 C9.26075588,3.5309973 9.45947231,3.63342318 9.60589494,3.84366577 C9.73140005,4.02156334 9.7941526,4.25336927 9.7941526,4.53369272 C9.7941526,4.80862534 9.73140005,5.03504043 9.60589494,5.21832884 C9.45947231,5.42318059 9.26075588,5.5309973 9.00451628,5.5309973 C8.74827668,5.5309973 8.54956026,5.42318059 8.40836701,5.21832884 C8.2828619,5.04043127 8.22533872,4.81401617 8.22533872,4.53369272 C8.22533872,4.25336927 8.2828619,4.02156334 8.40836701,3.84366577 C8.54956026,3.63342318 8.74827668,3.5309973 9.00451628,3.5309973 Z M13.8782981,3.06199461 C13.7109579,3.06199461 13.5645353,3.11051213 13.4390302,3.21832884 C13.3344426,3.29380054 13.2455431,3.40700809 13.1775612,3.55795148 L13.1775612,3.13746631 L12.623247,3.13746631 L12.623247,5.9245283 L13.1775612,5.9245283 L13.1775612,4.44743935 C13.1775612,4.20485175 13.2455431,4.00539084 13.3867364,3.85444744 C13.5174709,3.71428571 13.6691229,3.64420485 13.836463,3.64420485 C13.9619681,3.64420485 14.0927026,3.66037736 14.2286665,3.70350404 L14.2286665,3.13207547 C14.1345377,3.08355795 14.0142619,3.06199461 13.8782981,3.06199461 Z M15.7138103,3.06199461 C15.3163775,3.06199461 14.9973853,3.20215633 14.7672926,3.48787062 C14.5267411,3.76819407 14.4116948,4.11320755 14.4116948,4.52830189 C14.4116948,4.98652291 14.5371999,5.34770889 14.7882101,5.61725067 C15.0183028,5.87061995 15.337295,6 15.7347278,6 C16.095555,6 16.3936297,5.89218329 16.6289517,5.6819407 C16.8172094,5.50943396 16.9374851,5.2884097 17.0002377,5.0296496 L16.4459235,5.0296496 C16.3727121,5.19137466 16.2942715,5.31536388 16.2001426,5.39083558 C16.0798669,5.48247978 15.9229855,5.5309973 15.7294985,5.5309973 C15.5098645,5.5309973 15.337295,5.45552561 15.2117899,5.31536388 C15.0862848,5.16981132 15.0183028,4.95956873 14.9973853,4.69002695 L17.0473021,4.69002695 C17.0420727,4.19407008 16.9322558,3.80592992 16.7230806,3.52560647 C16.4929879,3.21293801 16.1530782,3.06199461 15.7138103,3.06199461 Z M15.7294985,3.5309973 C16.1687663,3.5309973 16.4145472,3.77358491 16.466841,4.25876011 L15.0078441,4.25876011 C15.0392203,4.02156334 15.117661,3.84366577 15.2327074,3.71967655 C15.3582125,3.5902965 15.5203233,3.5309973 15.7294985,3.5309973 Z M18.5272165,3.06199461 C18.202995,3.06199461 17.9362966,3.13207547 17.7323508,3.27762803 C17.528405,3.41778976 17.4290468,3.61725067 17.4290468,3.87061995 C17.4290468,4.10781671 17.5336344,4.29649596 17.7428096,4.43126685 C17.8503854,4.50519831 18.0309591,4.57516915 18.2812375,4.64117938 L18.6265595,4.72666263 C18.785804,4.76846911 18.8962613,4.80477474 18.9560257,4.83557951 C19.1129071,4.91105121 19.1965771,5.01886792 19.1965771,5.15363881 C19.1965771,5.40161725 18.9769432,5.5309973 18.5481341,5.5309973 C18.3389589,5.5309973 18.1925362,5.49326146 18.0984074,5.42318059 C18.0042786,5.34770889 17.9362966,5.21293801 17.9049204,5.02425876 L17.3610649,5.02425876 C17.4238174,5.67115903 17.8212503,6 18.5638222,6 C19.3639173,6 19.7665795,5.70350404 19.7665795,5.11590296 C19.7665795,4.86792453 19.6567625,4.67385445 19.442358,4.53369272 C19.3203391,4.45283019 19.140216,4.37571129 18.905015,4.30857542 L18.7573092,4.26954178 C18.4853815,4.19946092 18.3075826,4.14555256 18.2134538,4.10242588 C18.0670311,4.03234501 17.9938198,3.95148248 17.9938198,3.85444744 C17.9938198,3.74663073 18.0408842,3.66037736 18.1402425,3.606469 C18.2239125,3.55256065 18.3494176,3.5309973 18.5167578,3.5309973 C18.7050155,3.5309973 18.8514381,3.56334232 18.9455669,3.62803235 C19.0344664,3.68733154 19.0972189,3.78975741 19.139054,3.94070081 L19.6776801,3.94070081 C19.6149275,3.35309973 19.2279534,3.06199461 18.5272165,3.06199461 Z M20.2372237,3.13746631 L20.2372237,4.87331536 C20.2372237,5.62264151 20.5614452,6 21.2151177,6 C21.5550273,6 21.8374138,5.8490566 22.0675065,5.54716981 L22.0675065,5.9245283 L22.6218208,5.9245283 L22.6218208,3.13746631 L22.0675065,3.13746631 L22.0675065,4.84097035 C22.0204421,5.0458221 21.9315427,5.21293801 21.8060376,5.33692722 C21.6805324,5.45552561 21.549798,5.52021563 21.4033753,5.52021563 C21.1889708,5.52021563 21.0320894,5.46091644 20.9379605,5.35309973 C20.8386023,5.24528302 20.7915379,5.07277628 20.7915379,4.83557951 L20.7915379,3.13746631 L20.2372237,3.13746631 Z M23.3173283,2 L23.3173283,5.9245283 L23.8716425,5.9245283 L23.8716425,2 L23.3173283,2 Z M25.3829332,2.23719677 L25.3829332,3.13746631 L26,3.13746631 L26,3.61185984 L25.3829332,3.61185984 L25.3829332,5.22911051 C25.3829332,5.30458221 25.3986213,5.35849057 25.4299976,5.39622642 C25.4613739,5.42857143 25.5084383,5.45013477 25.5764203,5.45013477 L25.9320181,5.45013477 L25.9320181,5.9245283 L25.4875208,5.9245283 C25.2574281,5.9245283 25.0848586,5.85983827 24.980271,5.73584906 C24.8756834,5.61725067 24.828619,5.45013477 24.828619,5.22911051 L24.828619,3.61185984 L24.3265985,3.61185984 L24.3265985,3.13746631 L24.828619,3.13746631 L24.828619,2.47439353 L25.3829332,2.23719677 Z" id="Noresult" fill="#FFFFFF" fill-rule="nonzero"></path>
                                </g>
                            </g>
                        </g>
                    </g>
                </g>
            </g>
        </g>
    </g>
</svg>