<svg id="图层_1" data-name="图层 1" xmlns="http://www.w3.org/2000/svg" xmlns:xlink="http://www.w3.org/1999/xlink" viewBox="0 0 562.52 754.33"><defs><clipPath id="clip-path" transform="translate(-906 -223.47)"><rect x="906" y="223" width="588" height="755.76" style="fill:none"/></clipPath></defs><title>icon_tips</title><g style="clip-path:url(#clip-path)"><path d="M976,501.89c0,116.87,94.74,211.61,211.61,211.61s211.6-94.74,211.6-211.61-94.74-211.6-211.6-211.6S976,385,976,501.89Zm0,0" transform="translate(-906 -223.47)" style="fill:#fed847"/><path d="M1088,649.82a65.94,65.94,0,0,1-66.18-65.59h33.09a33.1,33.1,0,1,0,66.19,0h33.09A66,66,0,0,1,1088,649.82Zm99.27,0a66,66,0,0,1-66.18-65.59h33.09a33.1,33.1,0,0,0,66.18,0h33.1a66,66,0,0,1-66.19,65.59Zm99.28,0a66,66,0,0,1-66.19-65.59h33.1a33.1,33.1,0,0,0,66.18,0h33.08a66,66,0,0,1-66.17,65.59ZM1206,871.12,1073.64,641.59l28.72-16.27,132.36,229.57Zm-37.46,0-28.72-16.26L1272.16,625.3l28.72,16.26Zm134.54,106.65H1071.44v-82h33.09V945H1270V895.81h33.08v82Zm0-82H1071.44v-93a81.42,81.42,0,0,0-38.5-67.57,276.51,276.51,0,0,1-126.82-240.6c5.63-155.25,136.07-276.55,291.33-270.91,150.32,5.46,269.74,128.2,271.07,278.61a277.1,277.1,0,0,1-129.14,234.29,79.55,79.55,0,0,0-36.31,67.68v91.54ZM1104.53,863H1270V804.26A112.16,112.16,0,0,1,1321.49,709a244.52,244.52,0,0,0,114-206.74c-1.39-137.07-113.65-247.07-250.72-245.69-132.48,1.36-240.55,106.49-245.53,238.88a244,244,0,0,0,111.93,212.31,114.05,114.05,0,0,1,53.43,95V863Zm99.27-229.58h-33.09V518.67h33.09Zm-182-131.17H988.72a196.37,196.37,0,0,1,180.5-196l3,32.67a163.62,163.62,0,0,0-150.4,163.3Zm0,0" transform="translate(-906 -223.47)"/></g></svg>