<svg id="图层_1" data-name="图层 1" xmlns="http://www.w3.org/2000/svg" xmlns:xlink="http://www.w3.org/1999/xlink" viewBox="0 0 674.26 674.27">
  <defs>
  <clipPath id="clip-path" transform="translate(-861.88 -263.61)"><rect x="862" y="263" width="674.88" height="675.84" style="fill:none"/></clipPath></defs>
  <title>icon_certification矢量智能对象</title>
  <g style="clip-path:url(#clip-path)">
    <path d="M1521.21,564.55l-66.2-66.2V395.94a51.34,51.34,0,0,0-51.2-51.19h-102.4l-66.2-66.2a51.35,51.35,0,0,0-72.4,0l-66.2,66.2H994.21A51.35,51.35,0,0,0,943,395.94V498.35l-66.2,66.2a51.35,51.35,0,0,0,0,72.4l66.2,66.2v102.4a51.36,51.36,0,0,0,51.2,51.2h102.4l66.2,66.2a51.36,51.36,0,0,0,72.41,0l66.19-66.2h102.4a51.35,51.35,0,0,0,51.2-51.2V703.15l66.2-66.2a51.35,51.35,0,0,0,0-72.4ZM1199,779.94l-153.6-281.59h76.8L1199,652l76.8-153.6h76.8Zm0,0" transform="translate(-861.88 -263.61)" style="fill:#ffb600"/>
  </g>
</svg>