<?xml version="1.0" encoding="UTF-8"?>
<svg width="468px" height="207px" viewBox="0 0 468 207" version="1.1" xmlns="http://www.w3.org/2000/svg" xmlns:xlink="http://www.w3.org/1999/xlink">
    <!-- Generator: Sketch 52.5 (67469) - http://www.bohemiancoding.com/sketch -->
    <title>提醒-补齐个人信息@1x</title>
    <desc>Created with Sketch.</desc>
    <defs>
        <rect id="path-1" x="0" y="0" width="468" height="227"></rect>
        <linearGradient x1="50%" y1="0%" x2="50%" y2="93.7535042%" id="linearGradient-3">
            <stop stop-color="#FFFFFF" offset="0%"></stop>
            <stop stop-color="#E0ECFF" offset="100%"></stop>
        </linearGradient>
        <linearGradient x1="36.599996%" y1="100%" x2="36.599996%" y2="4.06824313%" id="linearGradient-4">
            <stop stop-color="#FFFFFF" offset="0%"></stop>
            <stop stop-color="#E0ECFF" offset="100%"></stop>
        </linearGradient>
        <linearGradient x1="89.0938674%" y1="56.8903889%" x2="50.4549872%" y2="84.6222612%" id="linearGradient-5">
            <stop stop-color="#FFFFFF" offset="0%"></stop>
            <stop stop-color="#CDDFFF" offset="100%"></stop>
        </linearGradient>
        <path d="M30.9447281,47.0194702 C82.8014275,61.8279358 174.127305,91.5831901 167.68784,13.1112324 C167.68784,13.1112324 235.77919,-6.45074795 256.702436,2.696122 C288.459238,16.5790225 277.067434,64.7217165 271.434275,96.0168988 C268.434834,112.680054 231.792458,123.105939 203.34316,128.084883 C195.724228,129.418281 187.9349,121.610455 182.443255,123.892011 C130.908113,145.302781 51.8205608,143.355597 8.83361379,105.869963 C8.83361379,105.869963 -20.9119714,32.2120628 30.9447281,47.0194702 Z" id="path-6"></path>
        <linearGradient x1="0%" y1="85.8831095%" x2="99.0268244%" y2="85.8831095%" id="linearGradient-8">
            <stop stop-color="#BBEAFF" offset="0%"></stop>
            <stop stop-color="#5BA1FF" offset="100%"></stop>
        </linearGradient>
        <linearGradient x1="2.22044605e-14%" y1="87.9731039%" x2="92.6348887%" y2="87.9731039%" id="linearGradient-9">
            <stop stop-color="#E9F2FF" offset="0%"></stop>
            <stop stop-color="#BFD7FD" offset="100%"></stop>
        </linearGradient>
        <linearGradient x1="100%" y1="85.8831095%" x2="0%" y2="85.8831095%" id="linearGradient-10">
            <stop stop-color="#A5C5FF" offset="0%"></stop>
            <stop stop-color="#5B97FF" offset="100%"></stop>
        </linearGradient>
        <linearGradient x1="3.12324792%" y1="46.8767521%" x2="96.8767521%" y2="46.8767521%" id="linearGradient-11">
            <stop stop-color="#FFFFFF" offset="0%"></stop>
            <stop stop-color="#E0ECFF" offset="100%"></stop>
        </linearGradient>
        <linearGradient x1="50%" y1="5.55111512e-15%" x2="50%" y2="100%" id="linearGradient-12">
            <stop stop-color="#A5C5FF" offset="0%"></stop>
            <stop stop-color="#5B97FF" offset="100%"></stop>
        </linearGradient>
    </defs>
    <g id="Page-1" stroke="none" stroke-width="1" fill="none" fill-rule="evenodd">
        <g id="提醒" transform="translate(-620.000000, -208.000000)">
            <g id="提醒-补齐个人信息" transform="translate(620.000000, 188.000000)">
                <mask id="mask-2" fill="white">
                    <use xlink:href="#path-1"></use>
                </mask>
                <g id="Mask" fill-rule="nonzero"></g>
                <rect id="Rectangle" fill="url(#linearGradient-3)" fill-rule="nonzero" mask="url(#mask-2)" x="0" y="177" width="468" height="50"></rect>
                <g id="Group-2" mask="url(#mask-2)">
                    <g transform="translate(94.000000, 20.000000)">
                        <path d="M157.286718,79.6437277 C120.879457,57.5897594 103.693474,-10.1700289 47.4874961,30.3209764 C-8.7174261,70.8119816 14.5892166,154.002458 68.4505956,174.119918 C122.310919,194.239495 191.608013,182.874416 211.107982,145.498754 C244.430633,81.6342039 181.710238,94.4384367 157.286718,79.6437277" id="Fill-1" stroke="none" fill="url(#linearGradient-4)" fill-rule="nonzero"></path>
                        <g id="Group-5" stroke="none" stroke-width="1" fill="none" fill-rule="evenodd" transform="translate(0.762589, 52.167522)">
                            <path d="M8.83361379,105.869963 C8.83361379,105.869963 39.8823943,74.6625552 91.7390937,89.4699626 C143.595793,104.278428 174.127305,91.5831901 167.68784,13.1112324 C167.68784,13.1112324 240.574144,23.3059414 231.22953,75.2202271 C219.888681,138.223402 73.5059053,162.26573 8.83361379,105.869963" id="Fill-3" fill="url(#linearGradient-5)" fill-rule="nonzero"></path>
                            <g id="Group">
                                <mask id="mask-7" fill="white">
                                    <use xlink:href="#path-6"></use>
                                </mask>
                                <g id="Mask" fill-rule="nonzero"></g>
                                <g mask="url(#mask-7)" id="Shape">
                                    <g transform="translate(6.504065, 34.959350)">
                                        <path d="M172.537544,91.0981572 C169.942782,93.6423843 169.269769,95.0866475 169.213566,96.0883749 C169.187118,96.5634988 168.695464,96.8704874 168.374779,96.5195758 C162.37386,89.9561597 163.671714,83.263336 169.453017,76.3438131 C175.583344,69.0067856 178.06759,70.1213904 193.644663,61.7184041 C209.221737,53.3158901 213.358526,36.7262264 212.108847,32.162959 C224.820536,50.2502547 220.068352,69.9102767 203.193898,79.0566477 C186.318971,88.2030186 176.872696,86.8475459 172.537544,91.0981572 Z" fill="url(#linearGradient-8)" fill-rule="nonzero" opacity="0.603608631"></path>
                                        <path d="M14.1127055,52.00321 C30.6940063,37.3536165 50.2395348,39.107275 59.7980714,38.8893889 C58.7330307,43.6349173 56.5809982,46.8438604 50.8891283,53.9804458 C45.1980714,61.1162181 35.8744941,68.0300393 24.0549819,67.8438604 C30.4712421,83.9365433 3.18668926,103.749551 0.53384373,105.866625 C0.49888438,105.943047 0.455794949,105.99508 0.404575437,106.021909 C0.266364055,106.093454 0.319209583,106.037356 0.53384373,105.866625 C1.78831527,103.160934 -6.04095302,69.8097141 14.1127055,52.00321 Z" fill="url(#linearGradient-8)" fill-rule="nonzero" transform="translate(29.924245, 72.470833) scale(-1, 1) translate(-29.924245, -72.470833) "></path>
                                        <path d="M166.96972,91.242678 C167.071262,91.4514303 167.173749,91.60398 167.275291,91.6941874 C167.172804,91.5435269 167.07079,91.3928663 166.96972,91.242678 C165.470671,88.1567342 164.283805,72.7898297 172.706628,65.0097941 C181.699032,56.7036273 198.374181,51.6642914 225.839269,44.9374629 C251.433145,38.6687558 269.31405,24.602066 261.695065,0.738661789 C261.518429,0.186082318 260.835025,0.395306853 260.949791,0.96441648 C264.030068,16.1886894 261.755046,32.1639036 227.019995,40.9229966 C187.975296,50.7688293 174.8683,51.0984878 165.858421,61.7037631 C156.979366,72.1550717 160.105455,81.0407386 166.96972,91.242678 Z" fill-opacity="0.6" fill="#E46D6D" fill-rule="nonzero"></path>
                                        <path d="M225.260242,10.5032606 C225.520474,13.8891086 225.23096,17.5210199 223.805588,20.8601112 C223.72766,16.9193222 223.122184,13.3573099 222.352351,10.3634627 C219.659353,10.4376122 216.938489,11.0780377 214.362147,12.3428307 C214.081134,12.4807394 213.797288,12.6262048 213.51108,12.7787545 C215.156066,15.978048 216.378353,19.69261 216.270671,23.5720012 C214.734784,19.8933333 212.838539,16.77244 211.004636,14.2551335 C208.271493,16.0186649 205.466089,18.3262746 203.032851,20.9805452 C205.169019,23.2130607 207.037871,25.8885844 208.058962,28.9929475 C205.839671,26.5672653 203.518365,24.5817576 201.326466,22.9797494 C198.386932,26.6928945 196.285241,30.9265034 196.044373,35.2267052 C199.083088,34.5532194 202.34189,36.0824949 203.819686,39.0919277 C205.324875,42.1570908 204.48467,45.7455513 201.989089,47.7168904 C205.487815,50.3149585 209.99488,51.2722906 214.618128,51.2118375 C214.935979,48.5471765 215.027603,45.4754014 214.606321,42.2137656 C216.472339,44.8430049 217.215251,48.0087657 217.376775,51.0602323 C220.80324,50.7348244 224.196644,49.9205962 227.194742,48.8692784 C226.551955,45.9802795 225.412319,42.5424795 223.400835,39.0872048 C226.748428,41.2115659 228.820365,44.5138186 230.101688,47.724447 C230.560754,47.5223069 231.004707,47.3159161 231.431657,47.1062192 C234.003277,45.8437877 236.170144,44.086396 237.874167,42.0059579 C236.053016,39.5198226 233.409608,36.5925683 229.74936,33.9954448 C233.836558,34.7430801 237.171399,36.9401738 239.712792,39.329962 C242.340615,34.7199378 243.037715,29.1006297 241.342666,23.8242042 C239.666508,24.6455167 234.929438,25.0002066 233.703845,24.9444764 C234.322545,23.763751 237.588904,20.4057681 239.263645,19.5839832 C239.296233,19.5674531 239.330237,19.5513952 239.365187,19.5358096 C236.20226,14.4095724 230.937642,11.2065006 225.260242,10.5032606 Z" fill="#0A41A8" fill-rule="evenodd"></path>
                                        <path d="M168.691217,60.5797125 C176.9903,46.1923378 195.772334,39.6530084 203.607628,36.8579953 L204.128091,37.9178144 C196.226205,40.2197566 177.966996,48.3960436 170.575655,62.8112835 C164.192181,75.261324 166.109207,87.7415912 168.521665,94.7489601 C168.759699,95.4403929 168.460267,96.2083366 167.803312,96.5309108 C167.059927,96.8959911 166.162576,96.5479132 165.897621,95.762967 C163.424237,88.4486095 160.94188,74.0140058 168.691217,60.5797125 Z" fill="#0A41A8" fill-rule="nonzero"></path>
                                    </g>
                                </g>
                            </g>
                        </g>
                        <g id="Group-18" stroke="none" stroke-width="1" fill="none" fill-rule="evenodd" transform="translate(3.252033, 24.485498)">
                            <path d="M74.342393,5.31791199 L74.342393,35.7517744 C74.342393,38.376113 72.2173694,40.496748 69.5993572,40.496748 L4.86055965,40.496748 C2.24149178,40.496748 0.117523792,38.376113 0.117523792,35.7517744 L0.117523792,5.31791199 C0.117523792,2.69357336 2.24149178,0.571880243 4.86055965,0.571880243 L69.5993572,0.571880243 C72.2173694,0.571880243 74.342393,2.69357336 74.342393,5.31791199" id="Fill-6" fill="url(#linearGradient-9)"></path>
                            <path d="M74.342393,5.31791199 L74.342393,7.95177442 L0.117523792,7.95177442 L0.117523792,5.31791199 C0.117523792,2.69357336 2.24149178,0.571880243 4.86055965,0.571880243 L69.5993572,0.571880243 C72.2173694,0.571880243 74.342393,2.69357336 74.342393,5.31791199" id="Fill-8" fill="url(#linearGradient-10)"></path>
                            <path d="M5.29527636,4.61315008 C5.29527636,5.16447284 4.84979202,5.60997548 4.30085397,5.60997548 C3.75191593,5.60997548 3.30643159,5.16447284 3.30643159,4.61315008 C3.30643159,4.06182733 3.75191593,3.61632469 4.30085397,3.61632469 C4.84979202,3.61632469 5.29527636,4.06182733 5.29527636,4.61315008" id="Fill-10" fill="#FFFFFF"></path>
                            <path d="M9.2750772,4.61315008 C9.2750772,5.16447284 8.83064852,5.60997548 8.28065482,5.60997548 C7.73171677,5.60997548 7.28623243,5.16447284 7.28623243,4.61315008 C7.28623243,4.06182733 7.73171677,3.61632469 8.28065482,3.61632469 C8.83064852,3.61632469 9.2750772,4.06182733 9.2750772,4.61315008" id="Fill-12" fill="#FFFFFF"></path>
                            <path d="M13.2564615,4.61315008 C13.2564615,5.16447284 12.8109772,5.60997548 12.2609835,5.60997548 C11.7120454,5.60997548 11.2665611,5.16447284 11.2665611,4.61315008 C11.2665611,4.06182733 11.7120454,3.61632469 12.2609835,3.61632469 C12.8109772,3.61632469 13.2564615,4.06182733 13.2564615,4.61315008" id="Fill-14" fill="#FFFFFF"></path>
                            <path d="M25.1093007,26.2194993 L10.2056328,26.2194993 C9.71897807,26.2194993 9.32522058,25.8237321 9.32522058,25.3369596 L9.32522058,13.2459543 C9.32522058,12.7581236 9.71897807,12.3634146 10.2056328,12.3634146 L25.1093007,12.3634146 C25.5959554,12.3634146 25.9897129,12.7581236 25.9897129,13.2459543 L25.9897129,25.3369596 C25.9897129,25.8237321 25.5959554,26.2194993 25.1093007,26.2194993" id="Fill-16" fill="#FFFFFF"></path>
                            <path d="M64.0786239,32.702039 L9.32838753,32.702039 C8.74989128,32.702039 8.28118264,32.2321977 8.28118264,31.6523035 C8.28118264,31.0713511 8.74989128,30.6015099 9.32838753,30.6015099 L64.0786239,30.6015099 C64.6571201,30.6015099 65.1258288,31.0713511 65.1258288,31.6523035 C65.1258288,32.2321977 64.6571201,32.702039 64.0786239,32.702039" id="Fill-18" fill="url(#linearGradient-11)"></path>
                            <path d="M64.0786239,24.7732559 L30.8625937,24.7732559 C30.2840975,24.7732559 29.8153889,24.3034146 29.8153889,23.7224623 C29.8153889,23.1425681 30.2840975,22.6727268 30.8625937,22.6727268 L64.0786239,22.6727268 C64.6571201,22.6727268 65.1258288,23.1425681 65.1258288,23.7224623 C65.1258288,24.3034146 64.6571201,24.7732559 64.0786239,24.7732559" id="Fill-20" fill="url(#linearGradient-11)"></path>
                            <path d="M51.4356306,17.3229914 L30.8631216,17.3229914 C30.2846253,17.3229914 29.8159167,16.8531501 29.8159167,16.2732559 C29.8159167,15.6923035 30.2846253,15.2224623 30.8631216,15.2224623 L51.4356306,15.2224623 C52.0141268,15.2224623 52.4828354,15.6923035 52.4828354,16.2732559 C52.4828354,16.8531501 52.0141268,17.3229914 51.4356306,17.3229914" id="Fill-22" fill="url(#linearGradient-11)"></path>
                        </g>
                        <path d="M104.296989,51.3462674 L103.805056,49.9346271 L103.313123,51.3462674 C102.899308,52.5367435 101.913331,53.5420346 100.580045,54.1356853 C101.913331,54.7293361 102.899308,55.7335689 103.313123,56.9251033 L103.805056,58.3367435 L104.296989,56.9251033 C104.71186,55.7335689 105.696781,54.7293361 107.030067,54.1356853 C105.696781,53.5420346 104.71186,52.5367435 104.296989,51.3462674" id="Fill-28" stroke="none" fill="#FFFFFF" fill-rule="evenodd"></path>
                        <path d="M59.8514811,132.082564 L59.3595481,130.669865 L58.8676152,132.082564 C58.4527447,133.27304 57.4678232,134.277273 56.1345371,134.871982 C57.4678232,135.464574 58.4527447,136.469865 58.8676152,137.660341 L59.3595481,139.07304 L59.8514811,137.660341 C60.2663515,136.469865 61.2502174,135.464574 62.5845591,134.871982 C61.2502174,134.277273 60.2663515,133.27304 59.8514811,132.082564" id="Fill-30" stroke="none" fill="#FFFFFF" fill-rule="evenodd"></path>
                        <path d="M193.100492,123.575685 L192.775351,122.644468 L192.451267,123.575685 C192.177853,124.360871 191.528629,125.024363 190.648216,125.415897 C191.528629,125.807431 192.177853,126.470923 192.451267,127.257167 L192.775351,128.188384 L193.100492,127.257167 C193.373905,126.470923 194.02313,125.807431 194.903542,125.415897 C194.02313,125.024363 193.373905,124.360871 193.100492,123.575685" id="Fill-32" stroke="none" fill="#FFFFFF" fill-rule="evenodd"></path>
                        <path d="M38.369424,76.7083838 L38.0442837,75.7771668 L37.7201992,76.7083838 C37.4467858,77.4935689 36.7965053,78.157061 35.9171488,78.5485954 C36.7965053,78.9401298 37.4467858,79.6036219 37.7201992,80.388807 L38.0442837,81.3210822 L38.369424,80.388807 C38.6428373,79.6036219 39.2931178,78.9401298 40.1724743,78.5485954 C39.2931178,78.157061 38.6428373,77.4935689 38.369424,76.7083838" id="Fill-34" stroke="none" fill="#FFFFFF" fill-rule="evenodd"></path>
                        <g id="Group-32" stroke="none" stroke-width="1" fill="none" fill-rule="evenodd" transform="translate(108.943089, 0.095254)">
                            <g id="Group-38" transform="translate(0.649146, 0.181701)" fill="url(#linearGradient-10)">
                                <path d="M34.0710011,0.0632804233 L3.25974192,0.0632804233 C1.57914697,0.0632804233 0.216302704,1.42412698 0.216302704,3.10772487 L0.216302704,19.7944974 C0.216302704,21.4791534 1.57914697,22.84 3.25974192,22.84 L4.91816821,22.84 L4.91816821,30.4749206 L12.5346836,22.84 L34.0710011,22.84 C35.7515961,22.84 37.1144403,21.4791534 37.1144403,19.7944974 L37.1144403,3.10772487 C37.1144403,1.42412698 35.7515961,0.0632804233 34.0710011,0.0632804233" id="Fill-36"></path>
                            </g>
                            <path d="M8.23304185,16.5902723 L15.5022484,16.5902723 C16.0627986,16.5902723 16.5177838,17.0463569 16.5177838,17.6082617 C16.5177838,18.1701665 16.0627986,18.6251929 15.5022484,18.6251929 L8.23304185,18.6251929 C7.67249165,18.6251929 7.21750646,18.1701665 7.21750646,17.6082617 C7.21750646,17.0463569 7.67249165,16.5902723 8.23304185,16.5902723" id="Fill-39" fill="#FFFFFF"></path>
                            <path d="M8.23304185,11.4930236 L21.6271302,11.4930236 C22.1887361,11.4930236 22.6426656,11.9491083 22.6426656,12.511013 C22.6426656,13.0729178 22.1887361,13.5279443 21.6271302,13.5279443 L8.23304185,13.5279443 C7.67249165,13.5279443 7.21750646,13.0729178 7.21750646,12.511013 C7.21750646,11.9491083 7.67249165,11.4930236 8.23304185,11.4930236" id="Fill-41" fill="#FFFFFF"></path>
                            <path d="M8.23304185,6.53884372 L31.2599373,6.53884372 C31.8215431,6.53884372 32.2754727,6.99492838 32.2754727,7.55577494 C32.2754727,8.1187379 31.8215431,8.57376436 31.2599373,8.57376436 L8.23304185,8.57376436 C7.67249165,8.57376436 7.21750646,8.1187379 7.21750646,7.55577494 C7.21750646,6.99492838 7.67249165,6.53884372 8.23304185,6.53884372" id="Fill-43" fill="#FFFFFF"></path>
                        </g>
                        <path d="M124.562621,143.520236 L160.241482,143.520236 C167.400901,143.520236 173.412829,138.119177 174.19401,130.983728 L179.339248,77.3001298 L143.679388,77.3001298 L142.952045,108.427114 L124.562621,143.520236 Z" id="Fill-45" stroke="none" fill="#C8DAFA" fill-rule="nonzero"></path>
                        <path d="M124.562621,142.941611 C133.72883,142.573357 142.893984,142.411453 152.060194,142.263304 L158.934588,142.209336 C159.489859,142.196638 160.119027,142.21886 160.614127,142.176532 C161.134562,142.160659 161.650775,142.118331 162.160654,142.023093 C163.186746,141.870712 164.185391,141.568066 165.13442,141.159601 C168.963263,139.552193 171.850466,135.963833 172.650649,131.899283 C172.833277,130.939495 172.925118,129.737378 173.038073,128.604045 L173.373769,125.175474 L174.044107,118.318331 C174.474813,113.745844 174.975191,109.180765 175.457623,104.612511 C176.41193,95.477061 177.419021,86.3447859 178.524286,77.2220346 C178.57918,76.7722991 178.986661,76.4516642 179.435312,76.5056324 C179.87024,76.5585425 180.183768,76.9458441 180.15421,77.3786483 C179.504985,86.5479605 178.759696,95.7077488 177.960569,104.863304 C177.566812,109.441082 177.191,114.020976 176.74446,118.593463 L176.099458,125.455897 L175.77854,128.886585 C175.662419,130.037908 175.600136,131.129971 175.365781,132.431558 C174.418863,137.392405 170.901437,141.826267 166.187959,143.677061 C165.025689,144.155368 163.807468,144.502458 162.562857,144.668595 C161.942135,144.771241 161.31719,144.814627 160.691189,144.824151 C160.041964,144.859072 159.52364,144.826267 158.934588,144.8305 L152.060194,144.776532 C142.893984,144.629442 133.72883,144.466479 124.562621,144.099283 C124.243814,144.085527 123.996792,143.816744 124.00946,143.496109 C124.021072,143.193463 124.265983,142.95431 124.562621,142.941611" id="Fill-47" stroke="none" fill="#393F5C" fill-rule="evenodd"></path>
                        <path d="M144.96422,144.533992 L144.96422,182.44722" id="Stroke-49" stroke="#393F5C" stroke-width="3.24480018" fill="none"></path>
                        <polygon id="Fill-51" stroke="none" fill="#393F5C" fill-rule="evenodd" points="36.6890401 110.808172 151.700006 110.808172 151.700006 109.01558 36.6890401 109.01558"></polygon>
                        <g id="Group-40" stroke="none" stroke-width="1" fill="none" fill-rule="evenodd" transform="translate(40.650407, 86.991870)">
                            <path d="M8.4742693,13.8211368 C8.4742693,13.8211368 16.9719372,13.8516593 15.2055219,4.87804878 C15.2055219,4.87804878 6.29138214,5.78319833 8.4742693,13.8211368" id="Fill-84" fill="#29BECE" opacity="0.5"></path>
                            <path d="M6.97302788,13.0081287 C6.97302788,13.0081287 -1.52443698,13.0382751 0.241520005,4.06504065 C0.241520005,4.06504065 9.15539813,4.97047244 6.97302788,13.0081287" id="Fill-85" fill="#29BECE" opacity="0.5"></path>
                            <path d="M7.59342801,13.0081301 C7.59342801,13.0081301 0.730982302,6.09457688 8.82500497,0 C8.82500497,0 15.3278662,8.04034778 7.59342801,13.0081301" id="Fill-86" fill="#29BECE"></path>
                            <polygon id="Fill-87" fill="#E46D6D" points="14.6341463 12.195122 0.81300813 12.195122 3.01288036 21.9512195 12.2568817 21.9512195"></polygon>
                        </g>
                        <path d="M111.452135,102.647658 L129.310842,99.8855513 L132.268691,87.4478559 L130.158305,86.9313467 L133.503767,77.8093066 C126.142353,75.8416693 124.378158,71.5421482 126.590313,65.3624578 C128.344243,60.4626793 127.875815,56.5150673 127.374408,54.4404683 C126.868073,54.1951954 126.38138,53.875326 125.922615,53.4689129 C121.744351,49.7673256 128.497345,42.9927224 136.223648,41.3673256 C136.283251,41.3477093 146.83421,37.7852247 152.385123,47.8143097 C152.707096,48.3984367 153.061795,48.9603414 153.4925,49.4714525 C154.624157,50.8090187 156.979312,53.2735689 159.578323,54.0725107 C168.818546,56.914721 175.017506,72.9058218 161.433586,77.4466276 C161.441039,77.6693146 161.440506,77.8937759 161.431728,78.1197065 C161.431728,78.1197065 163.254764,100.564178 163.414634,105.085239 C163.490397,107.227775 163.749159,115.597642 163.48288,118.078402 C164.426222,122.255118 164.285649,127.468206 160.216569,132.014521 C155.233901,137.580659 136.170971,139.134098 125.903718,139.570077 L138.136516,189.604689 L138.716395,191.686867 L139.486768,191.50214 L141.132527,197.431241 C141.188476,198.110606 140.661707,198.695791 139.980812,198.709548 L119.098998,199.218542 C118.604954,199.229124 118.252367,198.741294 118.415992,198.273569 L118.745355,197.332828 C118.973376,196.680976 119.513868,196.191029 120.182095,196.027008 L126.67012,194.444998 L129.557323,191.587855 C130.161244,190.990211 131.062277,190.830918 131.826147,191.165702 L131.556829,190.380647 L113.642055,149.569838 L108.105986,186.420659 L102.257684,186.420659 L99.3852603,137.322246 C99.1530173,133.351876 101.290709,129.619601 104.829248,127.820659 L137.20171,111.352246 C136.469129,110.090059 135.897909,108.351105 135.452653,106.317411 L132.868856,106.300498 C132.516891,106.439337 132.138801,106.512105 131.755081,106.510394 L109.758012,106.351982 L100.396679,106.351982 C100.396679,104.218648 101.946373,102.490606 103.8571,102.490606 L111.452135,102.647658 Z M107.904533,187.630764 L108.689655,187.369019 L109.180532,193.42722 C109.236481,194.106585 108.708656,194.69177 108.028818,194.706585 L89.1274028,195.105527 C88.6333585,195.116109 88.2807714,194.628278 88.4443972,194.160553 L88.77376,193.219812 C89.0028361,192.56796 89.5422733,192.078013 90.2104998,191.913992 L96.6985252,190.331982 L99.5857282,187.474839 C100.246565,186.820871 101.263156,186.69177 102.066506,187.160553 L102.257895,187.272271 L102.257895,186.420765 L105.963841,186.420765 L108.106197,186.420765 L107.904533,187.630764 Z" id="Combined-Shape" stroke="#1F8CEB" stroke-width="2" fill-opacity="0.8" fill="#F7FBFF" fill-rule="evenodd" stroke-linecap="round" stroke-dasharray="2,4"></path>
                        <path d="M97.0074085,77.7810822 L107.582911,106.269971 L73.2130554,106.269971 L63.4292904,79.4339922 C63.1368753,78.6318758 63.7312063,77.7810822 64.5831159,77.7810822 L97.0074085,77.7810822 Z" id="Fill-68" stroke="none" fill="url(#linearGradient-12)" fill-rule="evenodd"></path>
                        <path d="M97.0074085,77.7810822 L98.653167,77.7810822 C99.5367461,77.7810822 100.326372,78.3334631 100.632511,79.164151 L110.603126,106.269971 L107.582911,106.269971 L97.0074085,77.7810822 Z" id="Fill-69" stroke="none" fill="#0A41A8" fill-rule="evenodd"></path>
                        <path d="M75.7892639,109.01505 L107.582278,109.01505 L107.582278,106.270077 L73.3074305,106.270077 L73.3074305,106.52722 C73.3074305,107.900765 74.4190301,109.01505 75.7892639,109.01505" id="Fill-70" stroke="none" fill="#0A41A8" fill-rule="evenodd"></path>
                        <path d="M107.582489,109.01505 L128.79261,109.01505 C129.548456,109.01505 130.161789,108.400236 130.161789,107.642564 C130.161789,106.883833 129.548456,106.270077 128.79261,106.270077 L107.582489,106.270077 L107.582489,109.01505 Z" id="Fill-71" stroke="none" fill="#0B42A8" fill-rule="evenodd"></path>
                        <path d="M88.3973152,91.9422462 C89.0475956,93.909442 88.2632476,95.941188 86.6459917,96.4776959 C85.0276801,97.0152621 83.1887376,95.8544155 82.5384572,93.8861615 C81.8881767,91.9189658 82.6725247,89.8872197 84.2908363,89.3507118 C85.9091479,88.8131457 87.7480904,89.9739922 88.3973152,91.9422462" id="Fill-72" stroke="none" fill="#EAF2F5" fill-rule="evenodd"></path>
                        <g id="Group-33" stroke="none" stroke-width="1" fill="none" fill-rule="evenodd" transform="translate(184.552846, 42.371677)">
                            <path d="M3.47450841,22.424749 L56.5283151,22.424749 C58.3281985,22.424749 59.7871069,20.9633733 59.7871069,19.1591405 L59.7871069,4.07660085 C59.7871069,2.27342625 58.3281985,0.810992386 56.5283151,0.810992386 L3.47450841,0.810992386 C1.67568066,0.810992386 0.216772232,2.27342625 0.216772232,4.07660085 L0.216772232,19.1591405 C0.216772232,20.9633733 1.67568066,22.424749 3.47450841,22.424749" id="Fill-78" fill="url(#linearGradient-10)"></path>
                            <path d="M41.2975011,17.8198813 L52.2741508,17.8198813 C52.8431462,17.8198813 53.3023539,17.3585056 53.3023539,16.7891934 L53.3023539,6.4463363 C53.3023539,5.87596593 52.8431462,5.41564847 52.2741508,5.41564847 L41.2975011,5.41564847 C40.7295614,5.41564847 40.2692979,5.87596593 40.2692979,6.4463363 L40.2692979,16.7891934 C40.2692979,17.3585056 40.7295614,17.8198813 41.2975011,17.8198813" id="Fill-79" fill="#FFFFFF"></path>
                            <path d="M7.58784899,8.01247387 L35.9309983,8.01247387 C36.4197643,8.01247387 36.8177444,7.61459027 36.8177444,7.12358498 C36.8177444,6.63257969 36.4197643,6.23363789 35.9309983,6.23363789 L7.58784899,6.23363789 C7.09802735,6.23363789 6.70110292,6.63257969 6.70110292,7.12358498 C6.70110292,7.61459027 7.09802735,8.01247387 7.58784899,8.01247387" id="Fill-80" fill="#FFFFFF"></path>
                            <path d="M26.0369178,12.5071829 L35.9304705,12.5071829 C36.4202921,12.5071829 36.8182722,12.1092993 36.8182722,11.618294 L36.8182722,11.6172358 C36.8182722,11.1262305 36.4202921,10.7283469 35.9304705,10.7283469 L26.0369178,10.7283469 C25.5470962,10.7283469 25.1501717,11.1262305 25.1501717,11.6172358 L25.1501717,11.618294 C25.1501717,12.1092993 25.5470962,12.5071829 26.0369178,12.5071829" id="Fill-81" fill="#FFFFFF"></path>
                            <path d="M7.58784899,12.5071829 L19.414297,12.5071829 C19.9041186,12.5071829 20.301043,12.1092993 20.301043,11.618294 L20.301043,11.6172358 C20.301043,11.1262305 19.9041186,10.7283469 19.414297,10.7283469 L7.58784899,10.7283469 C7.09802735,10.7283469 6.70110292,11.1262305 6.70110292,11.6172358 L6.70110292,11.618294 C6.70110292,12.1092993 7.09802735,12.5071829 7.58784899,12.5071829" id="Fill-82" fill="#FFFFFF"></path>
                            <path d="M14.6836122,17.0014686 L35.9306816,17.0014686 C36.4205032,17.0014686 36.8184833,16.603585 36.8184833,16.1125797 C36.8184833,15.6215744 36.4205032,15.2226326 35.9306816,15.2226326 L14.6836122,15.2226326 C14.1937906,15.2226326 13.7968661,15.6215744 13.7968661,16.1125797 C13.7968661,16.603585 14.1937906,17.0014686 14.6836122,17.0014686" id="Fill-83" fill="#FFFFFF"></path>
                        </g>
                        <path d="M90.444643,110.80796 L90.444643,180.252405" id="Stroke-88" stroke="#393F5C" stroke-width="2.60000014" fill="none"></path>
                        <g id="Group" stroke="none" stroke-width="1" fill="none" fill-rule="evenodd" transform="translate(156.097561, 41.463415)" stroke-linecap="round">
                            <path d="M1.21959078,0 L0,2.43902439" id="Path-36" stroke="#1F8CEB" stroke-width="2" fill-rule="nonzero"></path>
                            <path d="M5.28463143,3.25203252 L3.25203252,4.87804878" id="Path-36-Copy" stroke="#1F8CEB" stroke-width="2" fill-rule="nonzero"></path>
                        </g>
                        <g id="Group-Copy" stroke="none" stroke-width="1" fill="none" fill-rule="evenodd" transform="translate(98.016708, 126.471992) rotate(-89.000000) translate(-98.016708, -126.471992) translate(95.171179, 123.626464)" stroke-linecap="round">
                            <path d="M1.21959078,0 L0,2.43902439" id="Path-36" stroke="#1F8CEB" stroke-width="2" fill-rule="nonzero"></path>
                            <path d="M5.28463143,3.25203252 L3.25203252,4.87804878" id="Path-36-Copy" stroke="#1F8CEB" stroke-width="2" fill-rule="nonzero"></path>
                        </g>
                        <g id="Group-Copy-2" stroke="none" stroke-width="1" fill="none" fill-rule="evenodd" transform="translate(147.111164, 190.200595) rotate(47.000000) translate(-147.111164, -190.200595) translate(144.265636, 187.355067)" stroke-linecap="round">
                            <path d="M1.21959078,0 L0,2.43902439" id="Path-36" stroke="#1F8CEB" stroke-width="2" fill-rule="nonzero"></path>
                            <path d="M5.28463143,3.25203252 L3.25203252,4.87804878" id="Path-36-Copy" stroke="#1F8CEB" stroke-width="2" fill-rule="nonzero"></path>
                        </g>
                        <g id="Group" stroke="none" stroke-width="1" fill="none" fill-rule="evenodd" transform="translate(121.432668, 58.520838) rotate(-164.000000) translate(-121.432668, -58.520838) translate(118.587139, 56.081814)" stroke-linecap="round">
                            <path d="M1.21959078,0 L0,2.43902439" id="Path-36" stroke="#1F8CEB" stroke-width="2" fill-rule="nonzero"></path>
                            <path d="M5.28463143,3.25203252 L2.79091479,4.12984652" id="Path-36-Copy" stroke="#1F8CEB" stroke-width="2" fill-rule="nonzero"></path>
                        </g>
                    </g>
                </g>
            </g>
        </g>
    </g>
</svg>