<?xml version="1.0" encoding="UTF-8"?>
<svg width="12px" height="12px" viewBox="0 0 12 12" version="1.1" xmlns="http://www.w3.org/2000/svg" xmlns:xlink="http://www.w3.org/1999/xlink">
    <!-- Generator: Sketch 56.2 (81672) - https://sketch.com -->
    <title>logout@2x</title>
    <desc>Created with Sketch.</desc>
    <g id="页面-1" stroke="none" stroke-width="1" fill="none" fill-rule="evenodd">
        <g id="工作台-选择管理员" transform="translate(-1388.000000, -179.000000)" fill="#FF4141" fill-rule="nonzero">
            <g id="编组-2" transform="translate(1256.000000, 48.000000)">
                <path d="M143.197307,134 L140.645824,134 C139.940691,133.377637 139.014446,133 138,133 C135.790861,133 134,134.790861 134,137 C134,139.209139 135.790861,141 138,141 C139.014446,141 139.940691,140.622363 140.645824,140 L143.197307,140 C142.159879,141.793404 140.220847,143 138,143 C134.686292,143 132,140.313708 132,137 C132,133.686292 134.686292,131 138,131 C140.220847,131 142.159879,132.206596 143.197307,134 Z M139,136 L143,136 C143.552285,136 144,136.447715 144,137 C144,137.552285 143.552285,138 143,138 L139,138 C138.447715,138 138,137.552285 138,137 C138,136.447715 138.447715,136 139,136 Z" id="logout"></path>
            </g>
        </g>
    </g>
</svg>