<?xml version="1.0" encoding="UTF-8"?>
<svg width="24px" height="24px" viewBox="0 0 24 24" version="1.1" xmlns="http://www.w3.org/2000/svg" xmlns:xlink="http://www.w3.org/1999/xlink">
    <!-- Generator: Sketch 56.2 (81672) - https://sketch.com -->
    <title>news备份</title>
    <desc>Created with Sketch.</desc>
    <g id="页面-1" stroke="none" stroke-width="1" fill="none" fill-rule="evenodd">
        <g id="news备份">
            <rect id="Rectangle" fill="#FFFFFF" opacity="0.01" x="0" y="0" width="24" height="24"></rect>
            <path d="M10,19 L4,19 C3.44771525,19 3,18.5522847 3,18 C3,17.4477153 3.44771525,17 4,17 L19.5,17 L20,17 C20.5522847,17 21,17.4477153 21,18 C21,18.5522847 20.5522847,19 20,19 L14,19 C14,20.1045695 13.1045695,21 12,21 C10.8954305,21 10,20.1045695 10,19 Z M19,16 L5,16 L5,11 C5,7.4726794 7.60896116,4.55471433 11.0024493,4.07053895 C11.0008255,4.04723689 11,4.02371485 11,4 C11,3.44771525 11.4477153,3 12,3 C12.5522847,3 13,3.44771525 13,4 C13,4.02371485 12.9991745,4.04723689 12.9975507,4.07053895 C16.3910388,4.55471433 19,7.4726794 19,11 L19,16 Z M14.1490307,7.19636475 C15.0233403,7.46924384 16.2066624,8.90131589 16.2066624,9.92997358 C16.2066624,10.206116 16.43052,10.4299736 16.7066624,10.4299736 C16.9828048,10.4299736 17.2066624,10.206116 17.2066624,9.92997358 C17.2066624,8.43921028 15.7189657,6.63878007 14.4469648,6.24177832 C14.1833631,6.15950608 13.9029768,6.3065027 13.8207045,6.57010446 C13.7384323,6.83370623 13.8854289,7.1140925 14.1490307,7.19636475 Z" id="Rectangle-10" fill="#29BECE"></path>
        </g>
    </g>
</svg>