<?xml version="1.0" encoding="UTF-8"?>
<svg width="14px" height="14px" viewBox="0 0 14 14" version="1.1" xmlns="http://www.w3.org/2000/svg" xmlns:xlink="http://www.w3.org/1999/xlink">
    <!-- Generator: Sketch 52.2 (67145) - http://www.bohemiancoding.com/sketch -->
    <title>search</title>
    <desc>Created with Sketch.</desc>
    <g id="Page-1" stroke="none" stroke-width="1" fill="none" fill-rule="evenodd">
        <g id="工作台-蓝绿色" transform="translate(-30.000000, -73.000000)">
            <g id="菜单-搜索功能" transform="translate(20.000000, 64.000000)">
                <g id="搜索框">
                    <g id="search" transform="translate(10.000000, 9.000000)">
                        <path d="M10.5815273,9.87442052 L13.0710678,12.363961 C13.26633,12.5592232 13.26633,12.8758057 13.0710678,13.0710678 C12.8758057,13.26633 12.5592232,13.26633 12.363961,13.0710678 L9.87442052,10.5815273 C8.82907934,11.4664216 7.47685163,12 6,12 C2.6862915,12 -1.77635684e-15,9.3137085 -1.77635684e-15,6 C-1.77635684e-15,2.6862915 2.6862915,-1.77635684e-15 6,-1.77635684e-15 C9.3137085,-1.77635684e-15 12,2.6862915 12,6 C12,7.47685163 11.4664216,8.82907934 10.5815273,9.87442052 Z M6,11 C8.76142375,11 11,8.76142375 11,6 C11,3.23857625 8.76142375,1 6,1 C3.23857625,1 1,3.23857625 1,6 C1,8.76142375 3.23857625,11 6,11 Z" id="Oval-2" fill="#A5ADBB"></path>
                    </g>
                </g>
            </g>
        </g>
    </g>
</svg>
