<?xml version="1.0" encoding="UTF-8"?>
<svg width="24px" height="24px" viewBox="0 0 24 24" version="1.1" xmlns="http://www.w3.org/2000/svg" xmlns:xlink="http://www.w3.org/1999/xlink">
    <!-- Generator: Sketch 58 (84663) - https://sketch.com -->
    <title>configure</title>
    <desc>Created with Sketch.</desc>
    <g id="页面-1" stroke="none" stroke-width="1" fill="none" fill-rule="evenodd">
        <g id="顶部导航样式2" transform="translate(-1018.000000, -13.000000)">
            <g id="编组-58" transform="translate(200.000000, 0.000000)">
                <g id="configure" transform="translate(818.000000, 13.000000)">
                    <rect id="矩形" fill="#D8D8D8" opacity="0.01" x="0" y="0" width="24" height="24"></rect>
                    <path d="M16.5771008,4 C16.8839739,4 17.1738561,4.14089915 17.3634405,4.38220564 L20.5516279,8.44018752 C20.8190402,8.78055462 20.8371124,9.25432858 20.5964062,9.61407797 L19.3932193,11.4123108 C19.2148783,11.6788518 18.8542302,11.7503521 18.5876892,11.5720111 C18.5561787,11.5509276 18.5268088,11.5268088 18.5,11.5 C18.3856181,11.3856181 18.2001684,11.3856181 18.0857864,11.5 C18.0308583,11.5549281 18,11.6294267 18,11.7071068 L18,19 C18,19.5522847 17.5522847,20 17,20 L7,20 C6.44771525,20 6,19.5522847 6,19 L6,11.7071068 C6,11.5453463 5.86886724,11.4142136 5.70710678,11.4142136 C5.62942667,11.4142136 5.55492813,11.4450719 5.5,11.5 C5.27193753,11.7280625 4.90217521,11.7280625 4.67411274,11.5 C4.64792053,11.4738078 4.62427969,11.445183 4.60350978,11.4145126 L3.41452916,9.65877402 C3.16818111,9.29499788 3.18811956,8.81304006 3.46367301,8.47085483 L6.76373481,4.37280266 C6.95356165,4.13707366 7.23993633,4 7.5425952,4 L9.17100001,4.00083226 C9.58307131,5.16558987 10.6940922,6 12,6 C13.3059078,6 14.4169287,5.16558987 14.829,4.00083226 L16.5771008,4 Z" id="矩形-8" fill="#FFFFFF"></path>
                    <rect id="矩形" fill="#FD6868" x="7.5" y="13" width="1" height="3" rx="0.5"></rect>
                    <rect id="矩形" fill="#FD6868" x="15.5" y="13" width="1" height="3" rx="0.5"></rect>
                    <rect id="矩形" fill="#F8B303" x="9.5" y="12" width="1" height="5" rx="0.5"></rect>
                    <rect id="矩形" fill="#F8B303" x="13.5" y="12" width="1" height="5" rx="0.5"></rect>
                    <rect id="矩形" fill="#39C878" x="11.5" y="11" width="1" height="7" rx="0.5"></rect>
                </g>
            </g>
        </g>
    </g>
</svg>