<svg xmlns="http://www.w3.org/2000/svg" xmlns:xlink="http://www.w3.org/1999/xlink" width="1280" height="800" viewBox="0 0 1280 800">
  <defs>
    <rect id="bg-a" width="1280" height="800"/>
  </defs>
  <g fill="none" fill-rule="evenodd">
    <mask id="bg-b" fill="#fff">
      <use xlink:href="#bg-a"/>
    </mask>
    <g mask="url(#bg-b)">
      <g transform="rotate(180 641.5 870)">
        <path fill="#000" fill-opacity=".01" d="M1741,939.612374 C1741,456.957596 1551.2886,57.7107271 1305.75002,0 L0,0 L0,1880 L1305.75,1880 C1550.89726,1821.55397 1741,1422.32137 1741,939.612374 Z"/>
        <path fill="#F7F7F7" d="M1305.00598,939.612376 C1305.00598,456.957598 1115.40268,57.7107272 870.004007,0 L0,0 L0,1880 L870.003989,1880 C1115.01156,1821.55397 1305.00598,1422.32137 1305.00598,939.612376 Z"/>
        <path fill="#EFEFEE" d="M870.5,939.612376 C870.5,456.957598 680.788601,57.7107272 435.250018,0 L0,0 L0,1880 L435.25,1880 C680.397256,1821.55397 870.5,1422.32137 870.5,939.612376 Z"/>
        <path fill="#E7E7E7" d="M434.505983,1880 C189.777782,1821.55397 0,1422.32137 0,939.612378 C0,456.957601 189.387106,57.7107314 434.505965,4.29024137e-06 L434.505983,1880 Z" transform="matrix(-1 0 0 1 434.506 0)"/>
      </g>
    </g>
  </g>
</svg>
