<svg xmlns="http://www.w3.org/2000/svg" viewBox="0 0 1070.79 203.97"><title>hzero_logo</title><g id="图层_28" data-name="图层 28"><polygon points="58.81 203.88 29.69 203.97 0.47 174.94 0 29.31 29.03 0.09 58.16 0 58.38 68.53 116.63 68.34 58.59 135.35 58.81 203.88" style="fill:#386bd7"/><polygon points="145.86 203.88 174.99 203.88 204.11 174.75 204.11 29.13 174.99 0 145.86 0 145.86 68.53 87.61 135.35 145.86 135.35 145.86 203.88" style="fill:#4588f4"/></g><g id="图层_30" data-name="图层 30"><polygon points="595.25 33.94 595.25 169.28 729.68 169.28 729.68 141.85 624.51 141.85 624.51 114.41 711.39 114.41 711.39 88.81 624.51 88.81 624.51 61.37 725.11 61.37 725.11 33.94 595.25 33.94" style="fill:#3c4349"/><polygon points="376.69 33.94 376.69 88.81 302.61 88.81 302.61 33.94 272.43 33.94 272.43 169.28 302.61 169.28 302.61 114.41 376.69 114.41 376.69 169.28 406.93 169.28 406.93 142.6 406.93 115.41 406.93 88.22 406.93 63.75 406.93 33.94 376.69 33.94" style="fill:#3c4349"/><path d="M1356.16,162h-62.6c-21.25,0-38.48,17.48-38.48,39v57.26c0,21.57,17.23,39,38.48,39h62.6c21.25,0,38.47-17.47,38.47-39V201C1394.63,179.45,1377.41,162,1356.16,162Zm8.27,86.88a20.39,20.39,0,0,1-20.29,20.5h-38.56a20.4,20.4,0,0,1-20.3-20.5v-39a20.4,20.4,0,0,1,20.3-20.5h38.56a20.39,20.39,0,0,1,20.29,20.5Z" transform="translate(-323.84 -128.03)" style="fill:#3c4349"/><polygon points="566.45 33.94 437.04 33.94 437.04 61.37 520.88 61.8 432.47 141.85 432.47 169.28 562.33 169.28 562.33 141.85 477.58 141.42 566.45 61.8 566.45 33.94" style="fill:#3c4349"/><path d="M1180.64,241.53c24.69.91,43-17.87,43-38.16v-2.68c0-21.36-17.95-38.72-38.92-38.72h-101V297.31H1113V241.53h29.27l54.87,55.78h40.24ZM1113,215.92V188.49h70.33c7.09,0,12.89,6.39,12.89,13.85h0c0,7.47-5.8,13.58-12.89,13.58Z" transform="translate(-323.84 -128.03)" style="fill:#3c4349;opacity:0.97"/></g></svg>