<svg id="图层_1" data-name="图层 1" xmlns="http://www.w3.org/2000/svg" xmlns:xlink="http://www.w3.org/1999/xlink" viewBox="0 0 636.02 638.88"><defs><clipPath id="clip-path" transform="translate(-881 -281)"><rect x="881" y="281" width="636.96" height="639.84" style="fill:none"/></clipPath></defs><title>icon_exportPPT_default</title><g style="clip-path:url(#clip-path)"><path d="M1402.12,516.2c-3.2-50.88-44.48-95.36-95.36-95.36V519.4c31.84-3.2,63.6-3.2,95.36-3.2Zm0,0" transform="translate(-881 -281)" style="fill:#e95d3b"/><path d="M1494.36,821.32H1256v-60.4h174.8V732.28H1256V694.2h174.8V665.56H1256V621.08c28.64,9.52,60.4,9.52,85.84-9.52,28.64-15.92,41.28-47.68,44.48-79.44h-95.36V436.76c-12.72,3.2-22.24,6.32-35,6.32V370h238.4Zm-400.48-197c-15.92,6.32-35,6.32-54,6.32v85.84c-12.72,0-28.64-3.2-44.48-3.2V474.84c38.16,3.2,85.84-15.92,120.8,12.72,31.68,41.36,22.16,111.28-22.32,136.72ZM1516.6,376.36c3.2-15.92-12.72-31.76-28.64-28.64H1256V281h-41.28C1103.48,300,992.2,319.16,881,341.4V859.48c111.2,19,219.28,38.16,330.56,60.4H1256V846.76h216.08c12.72,0,25.44,0,38.16-6.32,6.32-19,6.32-35,6.32-50.88Zm0,0" transform="translate(-881 -281)" style="fill:#e95d3b"/></g><path d="M1039.88,516.2v73.12c15.92-3.2,31.76,0,41.28-15.92,6.32-15.92,6.32-35,0-47.68-9.52-12.72-28.64-9.52-41.28-9.52Zm0,0" transform="translate(-881 -281)" style="fill:#e95d3b"/></svg>