<svg id="图层_1" data-name="图层 1" xmlns="http://www.w3.org/2000/svg" xmlns:xlink="http://www.w3.org/1999/xlink" viewBox="0 0 639.6 624.48"><defs><clipPath id="clip-path" transform="translate(-879.88 -288.48)"><rect x="880" y="288" width="639.84" height="625.92" style="fill:none"/></clipPath></defs><title>icon_exportWord_hoverr</title><g style="clip-path:url(#clip-path)"><path d="M1518.2,374.64c1.6-16.48-11.28-29.36-28.08-27.76-77.52-1.28-155.28,0-233.12-.32V288.48h-43c-111.36,19.68-222.8,38.72-334.16,58.08V854.8C990.6,874.16,1101.4,892.56,1212.12,913h45.52V854.8q109,0,217.92.32c12.24-.64,26.16.32,36.8-7.12,8.4-12.88,6.16-29.36,7.12-43.92-1.28-143.36.32-286.4-1.28-429.44Zm-395.84,324.8c-12.24,6.16-30.32-.32-44.56.64-9.68-48.08-21-95.92-29.36-144-8.4,46.8-19.68,93.28-29.36,140.16-13.92-.64-28.08-1.6-42-2.56-12.24-63.92-26.16-127.2-37.44-191.44,12.24-.64,24.88-1,37.44-1.6,7.44,46.16,15.84,92.32,22.64,138.48l31-142.4c13.92-.64,27.44-1.28,41.36-2.24,9.68,49.12,19.68,97.84,30,146.88,8.4-50.4,17.44-100.72,26.16-151.12,14.56-.64,29-1.28,43.6-2.24-17.12,70.32-31.68,141.36-49.44,211.44Zm374.56,133.68h-239.6V775H1446.2v-29H1257.32V709.44H1446.2v-29H1257.32V643.92H1446.2v-29H1257.32V578.4H1446.2v-29H1257.32V513.52H1446.2v-29H1257.32V448.32H1446.2v-29H1257.32v-51h239.6Zm0,0" transform="translate(-879.88 -288.48)" style="fill:#2a5699"/></g></svg>