<svg id="图层_1" data-name="图层 1" xmlns="http://www.w3.org/2000/svg" xmlns:xlink="http://www.w3.org/1999/xlink" viewBox="0 0 819.2 819.2"><defs><clipPath id="clip-path" transform="translate(-789.88 -190.52)"><rect x="790" y="190" width="819.84" height="820.72" style="fill:none"/></clipPath></defs><title>icon_exporPDF_default</title><g style="clip-path:url(#clip-path)"><path d="M943.48,497.72h512a34.13,34.13,0,0,1,34.13,34.13V822a34.13,34.13,0,0,1-34.13,34.13h-512v85.33a17.07,17.07,0,0,0,17.07,17.07h580.26a17.07,17.07,0,0,0,17.07-17.07V437.58l-8.07-8.13H1448.58A78.42,78.42,0,0,1,1370.15,351V248.65l-6.9-6.93H960.55a17.07,17.07,0,0,0-17.07,17.07Zm-51.2,358.4H824A34.13,34.13,0,0,1,789.88,822V531.85A34.14,34.14,0,0,1,824,497.72h68.27V258.79a68.26,68.26,0,0,1,68.27-68.27h424l224.51,226v525a68.25,68.25,0,0,1-68.27,68.27H960.55a68.25,68.25,0,0,1-68.27-68.27ZM860.66,568.51V787.85H896.6V703.68H951c53.46,0,80.18-22.73,80.18-67.89,0-44.85-26.72-67.28-79.56-67.28Zm35.94,30.72h52.22c15.67,0,27.34,2.77,34.72,8.6,7.37,5.53,11.36,14.75,11.36,28s-3.68,22.73-11.06,28.57c-7.37,5.53-19,8.6-35,8.6H896.6Zm165.27-30.72V787.85h80.18c35.63,0,62.36-9.83,80.8-29.49,17.51-18.74,26.41-45.46,26.41-80.18,0-35-8.9-61.75-26.41-80.18-18.44-19.66-45.17-29.49-80.8-29.49Zm35.94,30.72h37.48c27.34,0,47.31,6.15,59.91,18.74,12.28,12.29,18.43,32.57,18.43,60.21q0,40.56-18.43,59.91c-12.6,12.59-32.57,19-59.91,19h-37.48Zm185.25-30.72V787.85H1319V690.78h107.21V660.06H1319V599.23h113.66V568.51Zm0,0" transform="translate(-789.88 -190.52)" style="fill:#ca4347"/></g></svg>