<svg class="icon" viewBox="0 0 1024 1024" version="1.1" xmlns="http://www.w3.org/2000/svg"><path d="M921.18736592 338.03832889h-162.38364445v100.92544h162.38364445v-100.92544z m0 128.45056h-162.38364445v100.96184889h162.38364445V466.48888889z m0-256.90112h-162.38364445v100.92544h162.38364445V209.58776889z m0 509.21472h-162.38364445v100.96184889h162.38364445V718.80248889z m74.63822222-610.14016H605.34025481a33.86026667 33.86026667 0 0 0-13.18001778 2.69425778V2.27555555L12.89481481 117.83736889v788.32526222L592.16023703 1021.72444445v-103.61969778a33.86026667 33.86026667 0 0 0 13.18001778 2.69425778h390.48533333c19.40593778 0 35.13457778-16.49322667 35.13457778-36.70016V145.36248889c-0.03640889-20.24334222-15.72864-36.70016-35.13457778-36.70016z m-592.37262222 573.54922666l-70.19633778-4.58752-52.61084444-133.11089777-57.05272889 123.97226667-65.86368-4.58752 83.37635556-151.53379556-74.56540445-165.15072 65.79086222-4.58752 43.87271111 123.86304h8.73813334l48.27818666-133.07448889 70.19633778-4.55111111-87.74542222 174.32576 87.74542222 179.02250666z m583.59808 192.67584H592.08741925v-55.05024h131.61813334V718.80248889h-131.61813334v-22.86478222h131.61813334V595.01226667h-131.61813334v-27.52512h131.61813334V466.48888889h-131.61813334v-27.56152889h131.61813334v-100.92544h-131.61813334v-27.48871111h131.61813334V209.58776889h-131.61813334V154.53752889h394.96362667v720.34986666z m-65.86368-279.91153777h-162.38364445v100.92544h162.38364445V595.01226667z" fill="#33c90e" /></svg>
