<svg id="图层_1" data-name="图层 1" xmlns="http://www.w3.org/2000/svg" xmlns:xlink="http://www.w3.org/1999/xlink" viewBox="0 0 637.7 638.8"><defs><clipPath id="clip-path" transform="translate(-881 -281.08)"><rect x="881" y="281" width="637.92" height="639.84" style="fill:none"/></clipPath></defs><title>icon_exporExcel_default</title><g style="clip-path:url(#clip-path)"><path d="M1450.84,491.88H1348.6v62.64h102.24Zm0,80.48H1348.6v63.92h102.24Zm0-161H1348.6V474h102.24Zm0,318.16H1348.6V793.4h102.24Zm47.28-382H1252.84c-2.56,0-5.12,0-7.68,1.28V281.08L881,353.88V848.36l362.88,71.52V854.76c2.56,1.28,5.12,1.28,7.68,1.28h245.28c12.8,0,21.76-10.24,21.76-23V370.44a20.93,20.93,0,0,0-20.48-23Zm-371.76,359L1082.92,704l-33.2-83L1014,698.84l-40.88-2.56,52.4-94.56L978.2,498.2l40.88-2.56,28.08,77.92h5.12l30.64-83,43.44-2.56-55,109.84Zm365.36,121.36H1243.88V793.4h83V729.48h-83V715.4h83V652.76h-83V636.12h83V572.2h-83V554.28h83V491.64h-83V475h83V412.36h-83V376.6h247.84Zm-40.88-175H1348.6v62.64h102.24Zm0,0" transform="translate(-881 -281.08)" style="fill:#2b975c"/></g></svg>