<svg id="图层_1" data-name="图层 1" xmlns="http://www.w3.org/2000/svg" xmlns:xlink="http://www.w3.org/1999/xlink" viewBox="0 0 819.2 819.2"><defs><clipPath id="clip-path" transform="translate(-789.88 -190.52)"><rect x="790" y="190" width="819.84" height="820.72" style="fill:none"/></clipPath></defs><title>icon_exporHTML_hover</title><g style="clip-path:url(#clip-path)"><path d="M943.48,497.72h512a34.13,34.13,0,0,1,34.13,34.13V822a34.13,34.13,0,0,1-34.13,34.13h-512v85.33a17.07,17.07,0,0,0,17.07,17.07h580.26a17.07,17.07,0,0,0,17.07-17.07V437.58l-8.07-8.13H1448.58A78.42,78.42,0,0,1,1370.15,351V248.65l-6.9-6.93H960.55a17.07,17.07,0,0,0-17.07,17.07Zm-51.2,358.4H824A34.13,34.13,0,0,1,789.88,822V531.85A34.14,34.14,0,0,1,824,497.72h68.27V258.79a68.26,68.26,0,0,1,68.27-68.27h424l224.51,226v525a68.25,68.25,0,0,1-68.27,68.27H960.55a68.25,68.25,0,0,1-68.27-68.27Zm-51.2-287.61V787.85h29.78V690.78H946v97.07h29.8V568.51H946v91.55H870.86V568.51Zm156.3,0v30.72h42V787.85h29.8V599.23h42V568.51Zm135.51,0V787.85h29.78V636.71h1l53.44,151.14h25.7l53.47-151.14h1V787.85h29.78V568.51h-34.88l-61.61,172h-1l-61.85-172h-34.85Zm229.89,0V787.85h92.7V757.13H1392.3V568.51Zm0,0" transform="translate(-789.88 -190.52)" style="fill:#de730a"/></g></svg>