<?xml version="1.0" encoding="UTF-8"?>
<svg width="14px" height="14px" viewBox="0 0 14 14" version="1.1" xmlns="http://www.w3.org/2000/svg" xmlns:xlink="http://www.w3.org/1999/xlink">
    <!-- Generator: Sketch 64 (93537) - https://sketch.com -->
    <title>icon/info</title>
    <desc>Created with Sketch.</desc>
    <g id="页面-1" stroke="none" stroke-width="1" fill="none" fill-rule="evenodd">
        <g id="接口对比备份" transform="translate(-1184.000000, -186.000000)" fill="#5A6677" fill-rule="nonzero">
            <g id="编组-6" transform="translate(1184.000000, 183.000000)">
                <g id="icon/info" transform="translate(0.000000, 3.000000)">
                    <path d="M6.99999969,-6.21725617e-15 L6.99999969,-6.21725617e-15 C3.13400725,-6.21725617e-15 -3.05979653e-07,3.13400755 -3.05979653e-07,7 C-3.05979653e-07,10.8660087 3.13400725,14.0000163 6.99999969,14.0000163 L6.99999969,14.0000163 C10.8660087,14.0000163 14.0000162,10.8660087 14.0000162,7 C14.0000162,3.13400755 10.8660087,-6.21725617e-15 6.99999969,-6.21725617e-15 L6.99999969,-6.21725617e-15 Z M8.89351035,10.9281748 C8.48167608,11.0705088 8.15850949,11.1801751 7.91350921,11.2583414 L7.91350918,11.2583414 C7.63727819,11.3406543 7.35003313,11.3800029 7.06184198,11.3750082 C6.56600761,11.3750082 6.17750716,11.2641747 5.90450684,11.0518416 L5.90450671,11.0518415 C5.63968082,10.8596284 5.48478376,10.5507065 5.48917244,10.2235068 C5.48917244,10.0940066 5.49850579,9.96334024 5.51950585,9.8291725 L5.51950564,9.82917378 C5.54579573,9.67418376 5.57888321,9.5204242 5.61867224,9.36833945 L6.13200662,7.74433757 C6.1786733,7.58917117 6.15300665,7.44683722 6.18450669,7.30450326 L6.18450673,7.30450308 C6.21338012,7.18134901 6.22825213,7.0553274 6.22884002,6.92883643 C6.22884002,6.71533618 6.24867342,6.57300223 6.15300656,6.49483593 C6.05617306,6.41083583 5.87650623,6.43533586 5.60467213,6.43533586 C5.47050535,6.43533586 5.3340056,6.4540025 5.19633786,6.48783592 C5.0563377,6.52516934 4.93617135,6.49483593 4.83817124,6.53450259 L4.97583761,6.02933579 C5.30950421,5.90683565 5.63383837,5.80300174 5.93950494,5.71900164 C6.22183906,5.63383492 6.51467182,5.59066812 6.80867216,5.58950149 C7.30450653,5.58950149 7.68483939,5.69333499 7.95200728,5.90683565 C8.2191738,6.1203359 8.51434172,6.39800243 8.51434172,6.7351704 C8.51434172,6.80633711 8.50384171,6.93000442 8.48634169,7.11083705 C8.46884167,7.28583726 8.43384163,7.44683744 8.38367495,7.59617141 L7.70817417,9.21317329 C7.66500749,9.36017346 7.62767407,9.50950742 7.59967404,9.6600076 C7.564674,9.822174 7.54717398,9.95167415 7.54717398,10.0356742 C7.54717398,10.2491745 7.60317404,10.3973409 7.70817417,10.4755085 C7.81784091,10.5536753 8.0045083,10.5921753 8.26817482,10.5921753 L8.26817473,10.5921753 C8.41076025,10.5894522 8.55252272,10.5698717 8.69050901,10.533842 C8.8480092,10.4953419 8.96117554,10.4626753 9.03117562,10.4300085 L8.89467546,10.9293429 L8.89351035,10.9281748 Z M8.80251024,4.36566719 L8.80251029,4.36566715 C8.56226236,4.56643613 8.2568036,4.6722675 7.94384308,4.66316749 C7.6113427,4.66316749 7.32200857,4.56750076 7.07934208,4.36566715 L7.07934202,4.3656671 C6.8531775,4.19662238 6.72034551,3.930525 6.72117153,3.64816627 C6.72117153,3.36933216 6.84017553,3.13016567 7.07934202,2.92949922 C7.32200851,2.7276652 7.62884266,2.61916507 7.94500924,2.62499887 C8.27867584,2.62499887 8.56800996,2.72766561 8.80367645,2.92833301 C9.04167673,3.13016703 9.16184308,3.36933352 9.16184308,3.64816764 C9.16184308,3.93283418 9.04167632,4.17200204 8.80250887,4.36566847 L8.80251024,4.36566719 Z" id="形状"></path>
                </g>
            </g>
        </g>
    </g>
</svg>