<?xml version="1.0" standalone="no"?><!DOCTYPE svg PUBLIC "-//W3C//DTD SVG 1.1//EN" "http://www.w3.org/Graphics/SVG/1.1/DTD/svg11.dtd"><svg t="1591258691534" class="icon" viewBox="0 0 1109 1024" version="1.1" xmlns="http://www.w3.org/2000/svg" p-id="14685" width="34.65625" height="32" xmlns:xlink="http://www.w3.org/1999/xlink"><defs><style type="text/css"></style></defs><path d="M1010.133333 19.242667H98.986667A99.072 99.072 0 0 0 0 118.272v766.805333a99.029333 99.029333 0 0 0 98.986667 98.986667h911.36a99.029333 99.029333 0 0 0 98.986666-98.986667V118.272A99.242667 99.242667 0 0 0 1010.133333 19.242667zM414.037333 198.613333c0.853333-27.306667 24.746667-50.773333 51.584-50.773333 28.330667 0 52.437333 25.173333 51.626667 54.101333a51.413333 51.413333 0 0 1-51.626667 50.133334 51.712 51.712 0 0 1-51.584-53.461334z m-149.973333-1.28c1.28-27.050667 26.24-50.56 52.864-49.493333 28.501333 0.853333 52.010667 26.837333 50.346667 55.381333a51.84 51.84 0 0 1-52.864 48.853334 51.797333 51.797333 0 0 1-50.346667-54.741334z m-150.613333 0.853334c1.066667-27.264 25.173333-50.56 52.053333-50.346667 28.074667 0.213333 52.224 25.6 51.157333 54.528a51.498667 51.498667 0 0 1-52.010666 49.706667 51.925333 51.925333 0 0 1-51.2-53.888z m953.941333 686.890666a57.258667 57.258667 0 0 1-57.258667 57.045334H98.986667a57.088 57.088 0 0 1-57.045334-57.045334V389.888h1025.450667v495.189333z" p-id="14686"></path><path d="M199.466667 795.136H134.016v-292.821333h65.450667v114.901333h59.904v-114.901333h65.450666v292.821333H259.413333v-133.973333H199.466667v133.973333z m348.885333-250.538667h-65.92v250.538667H416.426667v-250.538667H351.018667v-42.282666h197.333333v42.282666z m214.954667 0h-65.962667v250.538667h-65.92v-250.538667h-65.450667v-42.282666h197.333334v42.282666z m92.16 250.538667h-65.962667v-292.821333h131.882667c2.005333 0 10.581333 0 17.621333 1.237333 21.162667 3.754667 31.232 14.933333 34.730667 20.736 7.594667 12.458667 7.594667 31.104 7.594666 43.989333v38.570667c0 27.392-1.536 40.618667-12.629333 51.84-10.538667 10.752-25.642667 14.506667-57.856 14.506667H855.466667v121.941333z m0-249.685333v85.845333h31.701333c13.610667 0 21.162667-1.237333 25.173333-5.802667 4.522667-4.949333 4.522667-14.506667 4.522667-20.309333v-29.866667c0-8.32 1.493333-17.024-4.992-23.637333-7.594667-7.893333-21.674667-6.229333-24.192-6.229333h-32.213333z" p-id="14687"></path></svg>