<?xml version="1.0" standalone="no"?><!DOCTYPE svg PUBLIC "-//W3C//DTD SVG 1.1//EN" "http://www.w3.org/Graphics/SVG/1.1/DTD/svg11.dtd"><svg t="1591257005228" class="icon" viewBox="0 0 1024 1024" version="1.1" xmlns="http://www.w3.org/2000/svg" p-id="10531" width="32" height="32" xmlns:xlink="http://www.w3.org/1999/xlink"><defs><style type="text/css"></style></defs><path d="M112.10903703 910.55111585c-16.7565843 0-30.34074075-13.58415645-30.34074073-30.34074074v-728.17777778c0-16.7565843 13.58415645-30.34074075 30.34074073-30.34074074s30.34074075 13.58415645 30.34074075 30.34074074v728.17777778c0 16.75537067-13.58415645 30.34074075-30.34074075 30.34074074zM841.50044445 673.98921482c-16.7565843 0-30.34074075-13.58415645-30.34074075-30.34074074V152.03259733c0-16.7565843 13.58415645-30.34074075 30.34074075-30.34074074s30.34074075 13.58415645 30.34074073 30.34074074v491.61587675c0 16.75537067-13.58415645 30.34074075-30.34074073 30.34074074z" fill="#707070" p-id="10532"></path><path d="M477.51835497 282.82667615c-107.53972148 0-199.0656-8.51603911-264.68412682-24.62575882-37.41984237-9.1871763-66.97415111-21.03584237-87.84372623-35.21467733-34.63213511-23.52985125-41.90177659-50.8437997-41.90177659-69.61379555 0-18.73844148 7.25143703-46.04753541 41.79619082-69.73151763 20.88413867-14.31718875 50.43116563-26.31877215 87.82188088-35.67100207 66.0809197-16.52842192 157.65170252-25.26534163 264.81155794-25.26534164 107.16106903 0 198.73063822 8.7369197 264.81155792 25.26534164 37.39192889 9.35222992 66.93774222 21.35381333 87.82188089 35.67100207 34.54475378 23.68398222 41.79497718 50.99307615 41.79497719 69.73151763 0 18.76999585-7.26964148 46.0839443-41.90056297 69.61379555-20.86957511 14.17883497-50.42509748 26.02628741-87.84493985 35.21467733-65.61731318 16.1097197-157.14440533 24.62575882-264.68291318 24.62575882z m0-199.44061156c-252.16796445 0-333.74814815 47.15193837-333.74814815 69.98637986 0 11.71152592 21.8768877 30.75944297 83.53291377 45.89704533 60.95576178 14.96526697 147.47905897 22.87570489 250.21523438 22.87570489 102.73738903 0 189.26068622-7.91043792 250.21523436-22.87570489 61.65602608-15.13760237 83.53291378-34.18551941 83.53291378-45.89704533 0-22.83444148-81.5801837-69.98637985-333.74814814-69.98637986zM477.51835497 525.55260208c-107.53972148 0-199.0656-8.51603911-264.68412682-24.62575883-37.41984237-9.1871763-66.97536475-21.03584237-87.84372623-35.21467733-34.63213511-23.52985125-41.90177659-50.8437997-41.90177659-69.61379555 0-16.7565843 13.58415645-30.34074075 30.34074075-30.34074074s30.34074075 13.58415645 30.34074074 30.34074074c0 11.71152592 21.8768877 30.75944297 83.53291377 45.89704533 60.95576178 14.96526697 147.47905897 22.87570489 250.21523438 22.87570489 102.73738903 0 189.25947259-7.91043792 250.21523436-22.87570489 61.65602608-15.13760237 83.53291378-34.18430578 83.53291378-45.89704533 0-16.7565843 13.58415645-30.34074075 30.34074074-30.34074074s30.34074075 13.58415645 30.34074074 30.34074074c0 18.76999585-7.26964148 46.08515792-41.90056296 69.61379555-20.86957511 14.17883497-50.42509748 26.02628741-87.84493985 35.21467733-65.61852682 16.1097197-157.14561897 24.62575882-264.68412681 24.62575883zM477.51835497 763.42400948c-107.53850785 0-199.0656-8.51603911-264.68412682-24.62575881-37.41984237-9.1871763-66.97536475-21.03462875-87.84372623-35.2134637-34.63213511-23.53106489-41.90177659-50.84501333-41.90177659-69.61379556 0-16.7565843 13.58415645-30.34074075 30.34074075-30.34074074s30.34074075 13.58415645 30.34074074 30.34074074c0 11.7103123 21.8768877 30.75822933 83.53291377 45.8958317 60.95576178 14.96526697 147.47905897 22.87570489 250.21523438 22.87570489 16.7565843 0 30.34074075 13.58415645 30.34074073 30.34074075s-13.58415645 30.34074075-30.34074073 30.34074073zM477.51835497 1001.29541689c-107.53850785 0-199.0656-8.51603911-264.68412682-24.62575881-37.41984237-9.1871763-66.97536475-21.03462875-87.84372623-35.21346371-34.63213511-23.53106489-41.90177659-50.84501333-41.90177659-69.61379555 0-16.7565843 13.58415645-30.34074075 30.34074075-30.34074074s30.34074075 13.58415645 30.34074074 30.34074074c0 11.7103123 21.8768877 30.75822933 83.53291377 45.8958317 60.95576178 14.96526697 147.47905897 22.87570489 250.21523438 22.87570489 16.7565843 0 30.34074075 13.58415645 30.34074073 30.34074074s-13.58415645 30.34074075-30.34074073 30.34074074zM911.89096297 695.84425718H541.8395117c-16.75779792 0-30.34074075-13.58415645-30.34074073-30.34074073s13.58294282-30.34074075 30.34074073-30.34074075H911.89096297c16.7565843 0 30.34074075 13.58415645 30.34074073 30.34074075s-13.58415645 30.34074075-30.34074073 30.34074073zM911.89096297 823.2753683H541.8395117c-16.75779792 0-30.34074075-13.58415645-30.34074073-30.34074075s13.58294282-30.34074075 30.34074073-30.34074073H911.89096297c16.7565843 0 30.34074075 13.58415645 30.34074073 30.34074073s-13.58415645 30.34074075-30.34074073 30.34074075zM911.89096297 950.70647941H541.8395117c-16.75779792 0-30.34074075-13.58415645-30.34074073-30.34074074s13.58294282-30.34074075 30.34074073-30.34074075H911.89096297c16.7565843 0 30.34074075 13.58415645 30.34074073 30.34074075s-13.58415645 30.34074075-30.34074073 30.34074074z" fill="#707070" p-id="10533"></path></svg>
